<?xml version="1.0" encoding="utf-8"?>
<svg viewBox="0 0 760 200" style="enable-background:new 0 0 760 200;" xmlns="http://www.w3.org/2000/svg">
  <defs>
    <style type="text/css">

	.st0{fill:#FFFFFF;}

	.st1{fill:none;}

	.st2{fill:#595C5C;}

</style>
  </defs>
  <g id="Capa_1">
    <path class="st0" d="M240.4,97.2c0-4.5-0.8-7.9-1.3-9.9l10.5-1.1l0.8,0.8c-0.5,3.1-0.5,10.1-0.4,15.9c-2.5,0.9-7.7,2.7-14.6,2.7&#10;&#10;&#9;&#9;c-11.7,0-18.9-7.3-18.9-19.3c0-11.7,9.5-19.9,21.1-19.9c5.4,0,10,1.6,13.3,3.5c-0.6,2.6-1.8,7.6-2.3,10c-3.1-2.2-8.4-4.2-13.3-4.2&#10;&#10;&#9;&#9;c-2.8,0-5.2,0.5-6.7,1.2c-1.3,2-2.2,5-2.2,8.5c0,7.4,3.7,12.3,9.5,12.3C237.7,97.8,239.1,97.6,240.4,97.2" style="fill: rgb(0, 0, 0);"/>
    <path class="st0" d="M270.6,105.7c-8.9,0-14.6-5.6-14.6-14.6s6.4-15.3,15.3-15.3s14.3,5.7,14.3,14.7&#10;&#10;&#9;&#9;C285.6,99.3,279.9,105.7,270.6,105.7 M270.9,83.4c-4,0-6.1,3.3-6.1,7.7c0,4.5,2.3,7.8,6.2,7.8s5.7-3.2,5.7-7.9&#10;&#10;&#9;&#9;C276.8,86.2,274.9,83.4,270.9,83.4" style="fill: rgb(0, 0, 0);"/>
    <path class="st0" d="M300.4,82.6c1.4-3.1,4.9-6.7,9.8-6.7c6.3,0,10.7,5.2,10.7,14.3c0,9.7-6.4,15.5-15.8,15.5&#10;&#10;&#9;&#9;c-5.5,0-9.3-1-14.1-2.7l0.5-5.1V76.1c0-3.2-0.7-8.4-1.3-11.3l10.2-1.6L300.4,82.6L300.4,82.6z M300.4,84.1v13.6&#10;&#10;&#9;&#9;c1.6,0.5,3.1,0.8,4.5,0.8c4.8,0,6.7-2.8,6.7-7.8c0-4.4-2.1-7.3-6.8-7.3C303.3,83.4,301.6,83.7,300.4,84.1" style="fill: rgb(0, 0, 0);"/>
    <path class="st0" d="M336.8,104.9h-9.9c0.5-4.3,0.5-8.3,0.5-13.2c0-6.2-0.7-10.8-1.3-13.9l10.2-1.9v15.7&#10;&#10;&#9;&#9;C336.2,96.5,336.2,100.8,336.8,104.9 M326.1,66.7c0-3,2.4-5.7,5.6-5.7c3.1,0,5.2,2.3,5.2,5.3c0,3.2-2.3,5.7-5.5,5.7&#10;&#10;&#9;&#9;C328.4,72,326.1,69.6,326.1,66.7" style="fill: rgb(0, 0, 0);"/>
    <path class="st0" d="M358.4,105.7c-9.9,0-16.1-5.3-16.1-14.6c0-9,6.7-15.2,14.9-15.2c7.1,0,12.4,4.1,12.4,12.4&#10;&#10;&#9;&#9;c0,1.1-0.2,3.2-0.5,4.6l-17.2,0.5c0.8,3.5,3.7,5.7,8.2,5.7c3.7,0,6.7-1.1,8.8-2.1l-1.1,7.5C365.4,105,362,105.7,358.4,105.7&#10;&#10;&#9;&#9; M351.7,89.8l9.2-0.8c0.1-0.4,0.1-1,0.1-1.4c0-2.8-0.9-4.9-3.9-4.9c-3.2,0-5.4,3-5.4,6.9L351.7,89.8L351.7,89.8z" style="fill: rgb(0, 0, 0);"/>
    <path class="st0" d="M375.7,104.9c0.4-3.7,0.5-8.1,0.5-12.4v-0.8c0-6.2-0.7-10.8-1.3-14l9.9-1.9V84l0.3,0.1c1.6-4.4,4-8.3,7.5-8.3&#10;&#10;&#9;&#9;c1,0,1.9,0.3,2.6,0.8l-1.7,10.2c-2.6-0.8-6.1-1.3-8.5-1.2v6.8c0,4.4,0,8.9,0.5,12.4L375.7,104.9L375.7,104.9z" style="fill: rgb(0, 0, 0);"/>
    <path class="st0" d="M400.1,104.9c0.4-3.7,0.5-8.1,0.5-12.4c0-6.6-0.7-11.7-1.3-14.8l9.9-1.9v7.7l0.3,0.1c2-5.2,5.7-7.8,9.8-7.8&#10;&#10;&#9;&#9;c4.6,0,8.3,3,8.3,8.5v8.1c0,4.4,0,8.9,0.5,12.4h-9.4v-16c0-3-1.2-4.4-4.6-4.4c-1.6,0-3.4,0.3-4.6,0.7v7.4c0,4.4,0,8.9,0.5,12.4&#10;&#10;&#9;&#9;L400.1,104.9L400.1,104.9z" style="fill: rgb(0, 0, 0);"/>
    <path class="st0" d="M448.1,105.7c-8.9,0-14.6-5.6-14.6-14.6s6.4-15.3,15.3-15.3s14.3,5.7,14.3,14.7&#10;&#10;&#9;&#9;C463.2,99.3,457.4,105.7,448.1,105.7 M448.4,83.4c-4,0-6.1,3.3-6.1,7.7c0,4.5,2.3,7.8,6.2,7.8c4,0,5.7-3.2,5.7-7.9&#10;&#10;&#9;&#9;C454.3,86.2,452.5,83.4,448.4,83.4" style="fill: rgb(0, 0, 0);"/>
    <path class="st0" d="M567.7,104.9c0.4-3.7,0.5-9.4,0.5-18.4s-0.3-15-0.5-18c3.8-0.5,9-1.1,14.4-1.1c10.5,0,16.3,4.5,16.3,13.3&#10;&#10;&#9;&#9;c0,8.7-5.7,13.7-14.4,13.7c-2.8,0-4.7-0.1-6.5-0.3c0,4.6,0.1,7.4,0.3,10.7h-10.1V104.9z M582,74.5c-1.7,0-3.2,0.2-4.4,0.4v12.3&#10;&#10;&#9;&#9;c1.6,0.3,3.4,0.4,4.8,0.4c1.6,0,3-0.3,4.2-0.7c0.8-1.2,1.6-3.1,1.6-5.8C588.2,76.5,585.9,74.5,582,74.5" style="fill: rgb(0, 0, 0);"/>
    <path class="st0" d="M622.6,89.1c0-5.6-0.5-8.5-1.3-11.5l10.2-1.6v13.9c0,8.6,0.3,10.8,1.1,13.9l-9,1.9c-0.2-2-0.4-3.7-0.5-6.6&#10;&#10;&#9;&#9;l-0.3-0.1c-2.1,4.5-5.7,6.7-9.7,6.7c-4.7,0-8.3-2.9-8.3-8.5v-8.1c0-4.4-0.5-8.3-1.3-11.2l10.2-1.9v17.6c0,3.2,1.2,4.7,4.7,4.7&#10;&#10;&#9;&#9;c1.5,0,3.3-0.3,4.5-0.7v-8.5C622.9,89.1,622.6,89.1,622.6,89.1z" style="fill: rgb(0, 0, 0);"/>
    <path class="st0" d="M653.7,105.7c-9.9,0-16.1-5.3-16.1-14.6c0-9,6.6-15.1,14.9-15.1c7.1,0,12.3,4.1,12.3,12.3&#10;&#10;&#9;&#9;c0,1.1-0.2,3.2-0.5,4.5l-17.2,0.5c0.7,3.5,3.6,5.7,8.2,5.7c3.6,0,6.7-1.1,8.8-2.1l-1.1,7.5C660.6,105,657.3,105.7,653.7,105.7&#10;&#10;&#9;&#9; M647,89.8l9.2-0.8c0.1-0.4,0.1-1,0.1-1.4c0-2.8-0.9-4.9-3.9-4.9c-3.2,0-5.4,3-5.4,6.8L647,89.8L647,89.8z" style="fill: rgb(0, 0, 0);"/>
    <path class="st0" d="M680.3,82.7c1.4-3.1,4.9-6.7,9.7-6.7c6.3,0,10.7,5.1,10.7,14.2c0,9.7-6.4,15.5-15.8,15.5c-5.5,0-9.3-1-14-2.7&#10;&#10;&#9;&#9;l0.5-5.1V76.2c0-3.2-0.7-8.4-1.3-11.2l10.2-1.6L680.3,82.7L680.3,82.7z M680.3,84.2v13.5c1.6,0.5,3.1,0.8,4.4,0.8&#10;&#10;&#9;&#9;c4.8,0,6.6-2.8,6.6-7.8c0-4.4-2.1-7.2-6.7-7.2C683.2,83.5,681.5,83.8,680.3,84.2" style="fill: rgb(0, 0, 0);"/>
    <path class="st0" d="M706.6,76.5c0-4-0.6-8.6-1.3-11.5l10.2-1.6v28.2c0,5,0,9.3,0.5,13.3h-9.9c0.5-4.3,0.5-8.3,0.5-13.3V76.5z" style="fill: rgb(0, 0, 0);"/>
    <path class="st0" d="M738.3,89.3v-2c0-2.5-0.9-3.8-3.5-3.8c-3.7,0-7.8,2.1-10.7,4.5c-0.5-1.8-1.3-6.6-1.3-8.8&#10;&#10;&#9;&#9;c3.2-1.7,8.6-3.2,13.9-3.2c7.1,0,10.8,3.9,10.8,9.5c0,3.8-0.3,6.9-0.3,10c0,3.4,0.3,5.5,1,8.4l-9,1.9l-0.5-5.1l-0.3-0.1&#10;&#10;&#9;&#9;c-1.7,2.9-4.4,5.2-8.8,5.2c-4.5,0-7.9-2.5-7.9-7.2C721.6,91.1,730.9,89.5,738.3,89.3 M733.9,99.7c1.7,0,3.3-0.4,4.4-0.7v-5.9&#10;&#10;&#9;&#9;c-3.5,0.1-8,0.8-8,3.7C730.3,98.7,731.7,99.7,733.9,99.7" style="fill: rgb(0, 0, 0);"/>
    <path class="st0" d="M514.2,63.2v23.6c0,9.1,0.3,13.5,1.1,16.9l-9.1,1.9l-0.5-6.6l-0.3-0.1c-1.6,4.1-4.4,6.7-8.9,6.7&#10;&#10;&#9;&#9;c-6.4,0-11.4-4.8-11.4-14c0-9.1,6.1-15.8,15-15.8c2,0,3.6,0.2,5.3,0.7v-0.2c0-4-0.6-8.6-1.3-11.5L514.2,63.2z M505.3,84.1&#10;&#10;&#9;&#9;c-1.5-0.5-2.8-0.7-4.1-0.7c-4.3,0-6.8,2.7-6.8,7.7c0,4.2,2.1,7,6.6,7c1.5,0,3.1-0.3,4.3-0.7V84.1z" style="fill: rgb(0, 0, 0);"/>
    <path class="st0" d="M536.2,105.7c-9.9,0-16.1-5.3-16.1-14.6c0-9,6.7-15.2,14.9-15.2c7.1,0,12.4,4.1,12.4,12.4&#10;&#10;&#9;&#9;c0,1.1-0.2,3.2-0.5,4.6l-17.2,0.5c0.8,3.5,3.7,5.7,8.2,5.7c3.7,0,6.7-1.1,8.8-2.1l-1.1,7.5C543.2,105,539.8,105.7,536.2,105.7&#10;&#10;&#9;&#9; M529.5,89.8l9.2-0.8c0.1-0.4,0.1-1,0.1-1.4c0-2.8-0.9-4.9-3.9-4.9c-3.2,0-5.4,3-5.4,6.9L529.5,89.8L529.5,89.8z" style="fill: rgb(0, 0, 0);"/>
    <polygon class="st0" points="237.9,158.2 234.3,158.2 236.1,144.7 222.4,144.7 220.6,158.2 217,158.2 221,129 224.6,129 &#10;&#10;&#9;&#9;222.8,141.7 236.5,141.7 238.2,129 241.9,129 &#9;" style="fill: rgb(0, 0, 0);"/>
    <path class="st0" d="M261.4,154.3c-0.2,1.1,0,1.7,1,1.7c0.4,0,0.7,0,1.3-0.2l-0.2,2.2c-0.6,0.3-1.6,0.4-2.4,0.4&#10;&#10;&#9;&#9;c-1.9,0-3.1-0.8-3-2.9c-1.7,1.9-4.4,3.2-7.2,3.2c-3.9,0-6.7-2.4-6.7-8c0-6.8,3.2-13.6,10.1-13.6c2.4,0,4.5,1.1,5.8,2.2l0.3-1.8h3.4&#10;&#10;&#9;&#9;L261.4,154.3z M259.6,142.1c-1.1-1-3-2-5-2c-5,0-6.6,6-6.6,10.2c0,4,1.5,5.4,4,5.4c2,0,3.7-0.7,6.2-3L259.6,142.1z" style="fill: rgb(0, 0, 0);"/>
    <path class="st0" d="M267,149.9c0-8.2,4.7-12.8,11.3-12.8c4.9,0,7.5,3.4,7,8.1l-3.3,0.2c0.1-3.3-0.6-5.4-4.1-5.4&#10;&#10;&#9;&#9;c-3.3,0-7,2.2-7,9.7c0,4.4,2.2,6,4.8,6c2.8,0,4.7-1.4,5.6-4.4l3.2,0.6c-1.2,4.7-4.9,6.7-9.1,6.7C269.5,158.7,267,155.1,267,149.9" style="fill: rgb(0, 0, 0);"/>
    <path class="st0" d="M287.8,149.6c0-6.8,4-12.6,11.1-12.6c4.5,0,6.6,2.4,6.6,5.4c0,3.4-2.3,5.4-5.4,6.4s-6.7,1.1-8.7,1.2&#10;&#10;&#9;&#9;c0,2.8,0.7,5.7,5,5.7c2.9,0,4.6-1.7,5.3-3.9l3,0.7c-1.2,4.1-4.7,6.1-8.9,6.1C289.9,158.7,287.8,154.6,287.8,149.6 M291.6,147.3&#10;&#10;&#9;&#9;c1,0,4.3-0.2,7.1-1c2.1-0.6,3.3-1.7,3.3-3.7c0-1.8-1.3-2.7-3.4-2.7C294.4,139.9,292.2,143.3,291.6,147.3" style="fill: rgb(0, 0, 0);"/>
    <path class="st0" d="M311.4,158.2h-3.7l2.9-20.7h3.4l-0.4,3.5c2.1-2.4,3.9-3.9,6.8-3.9c0.3,0,0.6,0,1,0l-0.5,3.6&#10;&#10;&#9;&#9;c-2.7-0.3-4.9,0.9-7.4,3L311.4,158.2z" style="fill: rgb(0, 0, 0);"/>
    <path class="st0" d="M333.2,158.2h-3.7l4.3-30.4h3.6l-1.9,12.6c1.6-1.4,4.5-3.3,7.6-3.3c4.2,0,6.1,2.3,5.5,7.1l-1.9,14H343&#10;&#10;&#9;&#9;l1.9-13.6c0.4-3.2-0.6-4.4-2.8-4.4c-2.6,0-4.8,1.6-6.9,3.1L333.2,158.2z" style="fill: rgb(0, 0, 0);"/>
    <path class="st0" d="M355.8,158.2h-3.7l2.9-20.7h3.7L355.8,158.2z M357.5,133.4c-1.4,0-2.3-0.8-2.3-2.1c0-1.9,1.1-3,3-3&#10;&#10;&#9;&#9;c1.5,0,2.3,0.7,2.3,2.1C360.4,132.3,359.3,133.4,357.5,133.4" style="fill: rgb(0, 0, 0);"/>
    <path class="st0" d="M377.8,143.4l-3.1,0.4c-0.1-2.3-1.2-4.1-4.2-4.1c-3.2,0-4.3,1.5-4.3,3.1c0,2,1.7,2.7,3.8,3.3&#10;&#10;&#9;&#9;c3.1,0.9,6.8,1.6,6.8,5.9c0,4.2-3.4,6.6-8.4,6.6c-4.9,0-7.3-2.1-7.7-6.3l3-0.7c0.3,2.3,1.2,4.2,4.9,4.2c2.2,0,4.6-0.7,4.6-3.3&#10;&#10;&#9;&#9;c0-2.2-1.9-2.8-4.1-3.5c-2.9-0.8-6.3-1.6-6.3-5.8c0-4.4,3.9-6.3,7.8-6.3C375.5,137.1,377.6,139.8,377.8,143.4" style="fill: rgb(0, 0, 0);"/>
    <path class="st0" d="M391.5,157.4c-1.1,0.7-3.1,1.3-5,1.3c-4,0-5.8-1.8-5.2-6l1.8-12.5h-3.2l0.4-2.7h3.2l0.8-6l3.7-0.5l-0.9,6.5&#10;&#10;&#9;&#9;h5.7l-0.4,2.7h-5.7l-1.7,12.1c-0.3,2.2,0,3.5,2.4,3.5c1.3,0,2.8-0.5,3.7-1L391.5,157.4z" style="fill: rgb(0, 0, 0);"/>
    <path class="st0" d="M393.8,150.2c0-0.9,0-1.8,0.2-2.6c0.8-6.3,4.6-10.5,11.2-10.5c6,0,8.1,3.7,8.1,8.4c0,0.9,0,1.7-0.2,2.6&#10;&#10;&#9;&#9;c-0.8,6.6-4.5,10.5-11,10.5C396.3,158.7,393.8,155.3,393.8,150.2 M409.4,147.8c0.1-0.8,0.1-1.6,0.1-2.4c0-3.6-1.6-5.4-4.8-5.4&#10;&#10;&#9;&#9;c-3.7,0-6.5,2.5-7.1,7.8c-0.1,0.7-0.1,1.5-0.1,2.3c0,3.8,1.6,5.8,5,5.8C406.2,155.9,408.8,153.3,409.4,147.8" style="fill: rgb(0, 0, 0);"/>
    <path class="st0" d="M419.9,158.2h-3.7l2.9-20.7h3.4L422,141c2.1-2.4,3.9-3.9,6.8-3.9c0.3,0,0.6,0,1,0l-0.5,3.6&#10;&#10;&#9;&#9;c-2.7-0.3-4.9,0.9-7.4,3L419.9,158.2z" style="fill: rgb(0, 0, 0);"/>
    <path class="st0" d="M433.7,158.2H430l2.9-20.7h3.7L433.7,158.2z M435.4,133.4c-1.5,0-2.3-0.8-2.3-2.1c0-1.9,1.1-3,3-3&#10;&#10;&#9;&#9;c1.5,0,2.3,0.7,2.3,2.1C438.4,132.3,437.3,133.4,435.4,133.4" style="fill: rgb(0, 0, 0);"/>
    <path class="st0" d="M456.6,154.3c-0.2,1.1,0,1.7,1,1.7c0.4,0,0.7,0,1.3-0.2l-0.2,2.2c-0.6,0.3-1.6,0.4-2.4,0.4&#10;&#10;&#9;&#9;c-1.9,0-3.1-0.8-3-2.9c-1.7,1.9-4.4,3.2-7.2,3.2c-3.9,0-6.7-2.4-6.7-8c0-6.8,3.2-13.6,10.1-13.6c2.4,0,4.5,1.1,5.8,2.2l0.3-1.8h3.4&#10;&#10;&#9;&#9;L456.6,154.3z M454.7,142.1c-1.1-1-3-2-5-2c-5,0-6.6,6-6.6,10.2c0,4,1.5,5.4,4,5.4c2,0,3.7-0.7,6.2-3L454.7,142.1z" style="fill: rgb(0, 0, 0);"/>
    <path class="st0" d="M463.5,158.7c-1.6,0-2.4-0.7-2.4-2.2c0-2.1,1-3.1,3.2-3.1c1.6,0,2.4,0.7,2.4,2.2&#10;&#10;&#9;&#9;C466.6,157.6,465.6,158.7,463.5,158.7" style="fill: rgb(0, 0, 0);"/>
    <polygon class="st0" points="499.8,158.2 496.2,158.2 498,144.7 484.3,144.7 482.5,158.2 478.9,158.2 482.9,129 486.5,129 &#10;&#10;&#9;&#9;484.7,141.7 498.4,141.7 500.1,129 503.8,129 &#9;" style="fill: rgb(0, 0, 0);"/>
    <path class="st0" d="M523.3,154.3c-0.2,1.1,0,1.7,1,1.7c0.4,0,0.7,0,1.3-0.2l-0.2,2.2c-0.6,0.3-1.6,0.4-2.4,0.4&#10;&#10;&#9;&#9;c-1.9,0-3.1-0.8-3-2.9c-1.7,1.9-4.4,3.2-7.2,3.2c-3.9,0-6.7-2.4-6.7-8c0-6.8,3.2-13.6,10.1-13.6c2.4,0,4.5,1.1,5.8,2.2l0.3-1.8h3.4&#10;&#10;&#9;&#9;L523.3,154.3z M521.5,142.1c-1.1-1-3-2-5-2c-5,0-6.6,6-6.6,10.2c0,4,1.5,5.4,4,5.4c2,0,3.7-0.7,6.2-3L521.5,142.1z" style="fill: rgb(0, 0, 0);"/>
    <path class="st0" d="M528.9,149.9c0-8.2,4.7-12.8,11.3-12.8c4.9,0,7.5,3.4,7,8.1l-3.3,0.2c0.1-3.3-0.6-5.4-4.1-5.4&#10;&#10;&#9;&#9;c-3.3,0-7,2.2-7,9.7c0,4.4,2.2,6,4.8,6c2.8,0,4.7-1.4,5.6-4.4l3.2,0.6c-1.2,4.7-4.9,6.7-9.1,6.7&#10;&#10;&#9;&#9;C531.4,158.7,528.9,155.1,528.9,149.9" style="fill: rgb(0, 0, 0);"/>
    <path class="st0" d="M549.7,149.6c0-6.8,4-12.6,11.1-12.6c4.5,0,6.6,2.4,6.6,5.4c0,3.4-2.3,5.4-5.4,6.4c-3.1,1-6.7,1.1-8.6,1.2&#10;&#10;&#9;&#9;c0,2.8,0.7,5.7,5,5.7c2.9,0,4.6-1.7,5.3-3.9l3,0.7c-1.2,4.1-4.7,6.1-8.9,6.1C551.8,158.7,549.7,154.6,549.7,149.6 M553.5,147.3&#10;&#10;&#9;&#9;c1,0,4.3-0.2,7.1-1c2.1-0.6,3.3-1.7,3.3-3.7c0-1.8-1.3-2.7-3.4-2.7C556.3,139.9,554.1,143.3,553.5,147.3" style="fill: rgb(0, 0, 0);"/>
    <path class="st0" d="M573.3,158.2h-3.7l2.9-20.7h3.4l-0.4,3.5c2.1-2.4,3.9-3.9,6.8-3.9c0.3,0,0.6,0,1,0l-0.5,3.6&#10;&#10;&#9;&#9;c-2.7-0.3-4.9,0.9-7.4,3L573.3,158.2z" style="fill: rgb(0, 0, 0);"/>
    <path class="st0" d="M605.6,130.8c-0.8-0.3-1.9-0.5-2.9-0.5c-1.9,0-3.2,0.8-3.7,3.7l-0.5,3.5h5.8l-0.4,2.7h-5.8l-3.7,26.5h-3.7&#10;&#10;&#9;&#9;l3.7-26.5h-3.1l0.4-2.7h3.1l0.5-3.5c0.6-4.5,3.1-6.6,7-6.6c1.8,0,3.1,0.4,3.7,0.7L605.6,130.8z" style="fill: rgb(0, 0, 0);"/>
    <path class="st0" d="M618.9,137.5h3.7l-2.9,20.7h-3.3l0.4-2.7c-1.6,1.5-4.6,3.1-7.8,3.1c-4.2,0-6-2.3-5.4-7.1l1.9-14h3.7l-1.9,13.6&#10;&#10;&#9;&#9;c-0.1,0.9-0.2,1.6,0,2.3c0.2,1.6,1.1,2.3,2.9,2.3c2.5,0,4.9-1.4,6.7-2.9L618.9,137.5z" style="fill: rgb(0, 0, 0);"/>
    <path class="st0" d="M637.1,157.4c-1.1,0.7-3.1,1.3-5,1.3c-4,0-5.8-1.8-5.2-6l1.8-12.5h-3.2l0.4-2.7h3.2l0.8-6l3.7-0.5l-0.9,6.5&#10;&#10;&#9;&#9;h5.7l-0.4,2.7h-5.7l-1.7,12.1c-0.3,2.2,0,3.5,2.4,3.5c1.3,0,2.8-0.5,3.7-1L637.1,157.4z" style="fill: rgb(0, 0, 0);"/>
    <path class="st0" d="M655.3,137.5h3.7l-2.9,20.7h-3.3l0.4-2.7c-1.6,1.5-4.6,3.1-7.8,3.1c-4.2,0-6-2.3-5.4-7.1l1.9-14h3.7l-1.9,13.6&#10;&#10;&#9;&#9;c-0.1,0.9-0.2,1.6,0,2.3c0.2,1.6,1.1,2.3,2.9,2.3c2.5,0,4.9-1.4,6.7-2.9L655.3,137.5z" style="fill: rgb(0, 0, 0);"/>
    <path class="st0" d="M665.4,158.2h-3.7l2.9-20.7h3.4l-0.4,3.5c2.1-2.4,3.9-3.9,6.8-3.9c0.3,0,0.6,0,1,0l-0.5,3.6&#10;&#10;&#9;&#9;c-2.7-0.3-4.9,0.9-7.4,3L665.4,158.2z" style="fill: rgb(0, 0, 0);"/>
    <path class="st0" d="M675.1,150.2c0-0.9,0-1.8,0.2-2.6c0.8-6.3,4.6-10.5,11.2-10.5c6,0,8.1,3.7,8.1,8.4c0,0.9,0,1.7-0.2,2.6&#10;&#10;&#9;&#9;c-0.8,6.6-4.5,10.5-11,10.5C677.6,158.7,675.1,155.3,675.1,150.2 M690.7,147.8c0.1-0.8,0.1-1.6,0.1-2.4c0-3.6-1.6-5.4-4.8-5.4&#10;&#10;&#9;&#9;c-3.7,0-6.5,2.5-7.1,7.8c-0.1,0.7-0.1,1.5-0.1,2.3c0,3.8,1.6,5.8,5,5.8C687.4,155.9,690.1,153.3,690.7,147.8" style="fill: rgb(0, 0, 0);"/>
    <path class="st0" d="M697.6,158.7c-1.6,0-2.4-0.7-2.4-2.2c0-2.1,1-3.1,3.2-3.1c1.6,0,2.4,0.7,2.4,2.2&#10;&#10;&#9;&#9;C700.8,157.6,699.7,158.7,697.6,158.7" style="fill: rgb(0, 0, 0);"/>
    <g transform="matrix(0.014416, 0, 0, -0.012784, 28.739806, 193.589572)" fill="#000000" stroke="none" style="">
      <path d="M3370 14195 l0 -315 -305 0 -305 0 0 -34 0 -34 -267 -7 c-351 -10&#10;-730 0 -925 25 -159 20 -224 35 -316 76 -30 13 -72 24 -93 24 l-39 0 0 -80 c0&#10;-58 -4 -80 -13 -80 -18 0 -102 59 -176 124 -36 31 -73 56 -83 56 -28 0 -60&#10;-81 -66 -166 -7 -116 50 -300 132 -420 30 -44 26 -54 -18 -54 -41 0 -184 -41&#10;-258 -73 -129 -57 -192 -161 -139 -229 31 -39 114 -78 231 -107 l109 -28 -85&#10;-84 c-108 -106 -204 -232 -252 -329 -33 -67 -37 -84 -38 -155 -1 -72 -6 -94&#10;-53 -215 -173 -443 -267 -819 -247 -983 10 -77 41 -115 99 -119 l42 -3 3 -55&#10;c2 -30 -2 -78 -8 -106 -11 -45 -10 -54 8 -90 47 -93 64 -181 66 -339 2 -163&#10;13 -213 73 -313 22 -38 28 -60 29 -117 1 -38 8 -86 16 -105 9 -21 18 -89 22&#10;-166 7 -119 22 -224 40 -265 5 -12 -4 -20 -38 -33 -64 -25 -140 -96 -173 -164&#10;-24 -49 -28 -69 -28 -142 0 -66 5 -96 22 -132 46 -101 153 -183 253 -195 l48&#10;-6 -10 -31 c-6 -17 -19 -43 -29 -57 -17 -24 -18 -31 -5 -67 8 -21 17 -68 21&#10;-103 6 -53 3 -73 -15 -119 -34 -84 -38 -208 -10 -285 12 -33 21 -67 20 -75 -1&#10;-8 -3 -58 -4 -110 -1 -52 -10 -140 -20 -195 -12 -68 -16 -120 -11 -162 6 -58&#10;5 -63 -13 -63 -34 0 -140 -60 -173 -98 -80 -91 -105 -224 -65 -342 37 -107&#10;175 -210 281 -210 32 0 35 -3 35 -29 0 -36 -18 -89 -42 -121 -16 -23 -16 -29&#10;-4 -65 8 -22 17 -72 21 -112 6 -61 4 -80 -15 -130 -15 -38 -24 -90 -27 -148&#10;-5 -77 -2 -100 19 -162 17 -51 21 -78 15 -95 -5 -13 -7 -59 -4 -103 3 -51 -1&#10;-105 -10 -150 -19 -88 -22 -252 -6 -281 11 -20 10 -23 -14 -29 -15 -3 -50 -22&#10;-79 -41 -163 -108 -192 -346 -59 -492 39 -44 143 -102 182 -102 19 0 23 -5 23&#10;-32 0 -46 -19 -108 -42 -140 -18 -26 -18 -30 -3 -83 26 -87 24 -205 -4 -305&#10;-29 -104 -26 -242 7 -328 17 -43 19 -59 10 -84 -6 -17 -8 -66 -5 -117 3 -53 0&#10;-113 -8 -156 -20 -105 -28 -235 -17 -282 9 -39 8 -42 -14 -47 -35 -9 -127&#10;-105 -154 -161 -33 -70 -35 -208 -3 -277 47 -102 154 -182 260 -194 l50 -6 28&#10;-62 c17 -38 50 -83 87 -119 36 -37 58 -67 58 -81 0 -39 29 -111 60 -148 16&#10;-20 50 -44 75 -54 33 -14 47 -26 51 -44 25 -111 72 -194 135 -240 45 -32 124&#10;-60 172 -60 22 0 43 -14 88 -59 33 -33 85 -72 117 -88 52 -25 67 -28 167 -29&#10;91 0 125 -5 195 -28 71 -23 240 -56 288 -56 9 0 12 -71 12 -320 l0 -320 2850&#10;0 2850 0 0 378 0 378 94 12 c52 6 132 24 178 38 67 22 104 27 193 28 99 1 116&#10;4 168 30 32 15 82 52 112 81 44 43 62 53 100 58 142 20 260 141 292 299 4 20&#10;14 30 39 38 53 18 111 92 136 174 16 55 30 81 64 115 23 24 59 75 79 112 31&#10;58 44 73 84 93 58 30 126 102 154 164 15 35 21 68 21 127 1 122 -48 211 -154&#10;281 -37 25 -37 25 -43 112 -4 48 -13 122 -21 165 -10 51 -13 105 -9 161 3 50&#10;1 96 -5 115 -9 25 -7 41 10 88 32 86 31 281 -1 373 -20 55 -22 77 -17 141 3&#10;42 13 98 21 124 13 46 13 50 -11 98 -14 27 -28 75 -31 106 -4 44 -11 61 -31&#10;77 l-25 21 53 6 c117 14 227 101 270 213 57 152 -12 334 -156 407 l-44 22 -4&#10;90 c-3 50 -11 122 -20 160 -9 46 -13 98 -9 150 3 44 1 90 -4 103 -7 17 -2 43&#10;15 95 21 61 24 85 19 157 -3 50 -14 111 -27 149 -19 53 -21 75 -16 133 4 38&#10;13 86 21 107 12 36 11 42 -16 96 -17 33 -29 74 -29 95 0 34 -5 41 -50 70 -27&#10;18 -50 34 -50 35 0 2 17 -1 38 -7 53 -15 155 -3 216 25 70 32 116 75 151 139&#10;25 45 30 67 33 146 4 88 3 96 -27 157 -47 94 -115 148 -228 181 -7 2 -13 19&#10;-13 37 0 19 -7 74 -17 123 -9 49 -17 132 -18 184 -2 52 -4 104 -5 115 -1 11 8&#10;47 20 80 28 76 24 189 -10 284 -24 69 -23 144 6 225 12 37 12 43 -4 66 -24 32&#10;-42 85 -42 121 0 29 5 32 75 44 90 15 179 88 224 184 37 80 37 192 0 272 -33&#10;69 -96 134 -156 161 -34 15 -43 23 -38 36 4 9 11 82 17 162 5 80 17 169 25&#10;199 9 29 16 83 16 119 1 56 6 74 34 121 56 93 66 139 69 306 1 157 19 246 66&#10;339 17 33 18 45 9 82 -6 23 -11 69 -11 102 l0 58 53 22 c29 12 70 39 90 60&#10;l37 38 -24 121 c-63 309 -143 550 -261 784 -52 105 -53 108 -40 145 8 22 14&#10;69 15 106 0 44 4 68 13 71 9 3 7 25 -10 92 -59 228 -149 333 -383 444 l-102&#10;48 25 29 c16 19 46 36 79 47 59 18 141 87 158 133 14 37 12 91 -5 124 -17 33&#10;-98 75 -165 85 -59 9 -113 44 -133 88 -23 48 -22 52 19 108 55 75 76 140 81&#10;249 9 163 -41 379 -92 402 -13 6 -39 8 -58 4 -33 -6 -35 -9 -40 -57 -13 -104&#10;-104 -242 -166 -251 -28 -4 -29 -3 -35 55 -3 33 -6 80 -6 105 l0 45 -45 -6&#10;c-25 -4 -55 -16 -67 -27 -31 -29 -175 -96 -233 -109 -119 -26 -277 -32 -1082&#10;-38 l-853 -6 0 249 c0 137 -3 273 -6 302 l-7 52 -1558 0 -1559 0 0 -315z m759&#10;198 c-137 -68 -266 -225 -298 -363 -6 -25 -11 -172 -11 -337 l0 -293 -275 0&#10;-275 0 -6 28 c-38 172 -52 181 -239 142 -54 -11 -99 -19 -100 -18 -24 29 -35&#10;78 -35 153 l0 85 275 0 275 0 0 320 0 320 381 0 382 0 -74 -37z m2271 -295 l0&#10;-333 47 2 c27 2 190 4 364 6 l316 3 -44 -59 c-23 -33 -43 -67 -43 -76 0 -14&#10;-17 -16 -137 -16 -120 0 -142 -3 -172 -20 -53 -31 -74 -67 -79 -135 l-4 -60&#10;-274 0 -274 0 0 -99 0 -99 123 -22 c339 -62 392 -75 395 -96 3 -20 -3 -21&#10;-230 -28 -127 -4 -234 -9 -236 -11 -3 -2 -1 -51 3 -108 l7 -104 156 -6 c281&#10;-11 601 -58 811 -118 424 -121 670 -334 750 -649 l19 -75 52 -3 c34 -2 60 2&#10;76 12 32 22 82 20 121 -3 97 -60 210 -282 259 -511 16 -77 32 -340 20 -329 -4&#10;4 -108 159 -231 345 l-223 339 -49 12 c-26 6 -74 17 -105 23 -42 8 -83 29&#10;-160 79 -200 133 -350 287 -521 537 l-78 114 -80 0 -79 0 -82 -72 c-46 -40&#10;-144 -134 -219 -208 -153 -151 -242 -212 -381 -261 -80 -28 -89 -29 -274 -29&#10;-180 0 -193 -1 -218 -21 -21 -16 -51 -24 -119 -31 -61 -7 -101 -17 -118 -29&#10;-15 -10 -55 -32 -90 -49 l-64 -30 -227 0 -226 0 -130 -45 c-71 -25 -141 -45&#10;-156 -45 -15 0 -50 10 -77 21 -43 19 -61 21 -137 15 -120 -9 -172 -28 -236&#10;-87 -41 -37 -68 -75 -107 -152 -29 -56 -56 -105 -62 -108 -12 -8 -94 39 -266&#10;154 -220 147 -481 349 -740 572 l-105 90 -101 3 c-149 6 -163 -2 -204 -114&#10;-130 -350 -420 -703 -837 -1021 l-82 -62 -12 29 c-19 46 -7 190 24 295 36 122&#10;113 276 185 371 78 104 95 119 135 116 23 -2 43 6 70 27 21 17 46 33 57 36 10&#10;4 22 18 25 33 33 155 110 321 195 422 127 151 372 270 679 330 58 11 249 38&#10;424 60 176 22 321 41 322 43 2 1 6 49 9 105 l6 103 -43 -5 c-67 -10 -295 -26&#10;-354 -26 -86 0 -68 22 44 52 102 29 268 62 365 73 l57 7 1 37 c0 34 1 32 15&#10;-19 18 -67 81 -202 129 -274 31 -47 37 -66 55 -191 22 -155 48 -224 120 -313&#10;l42 -54 147 7 c80 4 149 12 152 16 5 9 111 12 697 24 218 4 252 3 252 -10 0&#10;-12 20 -15 116 -15 137 0 148 5 220 106 67 93 94 177 94 291 l0 92 43 44 c54&#10;56 93 127 112 208 16 69 19 179 6 245 l-8 42 44 21 43 21 0 277 c0 309 -6 354&#10;-66 478 -39 83 -101 157 -163 197 l-45 28 282 0 282 0 0 -332z m-1352 222 c68&#10;-42 81 -146 24 -203 -35 -34 -104 -47 -152 -27 -84 35 -96 180 -18 234 32 23&#10;106 20 146 -4z m307 -47 c37 -37 45 -103 19 -159 -30 -62 -80 -51 -105 23 -14&#10;42 -5 93 22 127 24 30 41 33 64 9z m-648 -23 c15 -30 17 -108 3 -144 -11 -29&#10;-42 -48 -65 -40 -46 18 -62 140 -24 188 27 34 68 32 86 -4z m1008 -29 c67 -30&#10;125 -99 125 -148 0 -14 -2 -14 -22 1 -46 33 -104 64 -129 70 -22 5 -28 2 -33&#10;-18 -10 -41 -55 -86 -85 -86 -44 0 -65 22 -58 59 24 120 103 167 202 122z&#10;m-1335 -26 c32 -17 42 -31 64 -95 16 -47 13 -66 -15 -80 -48 -26 -89 -2 -119&#10;70 -7 16 -19 30 -27 30 -18 0 -70 -27 -111 -58 -18 -14 -35 -22 -38 -19 -12&#10;12 7 57 36 91 58 66 150 92 210 61z m660 -197 c114 -58 112 -209 -2 -266 -64&#10;-32 -115 -24 -168 27 -81 77 -60 191 45 245 41 22 73 20 125 -6z m4025 -160&#10;c0 -134 -2 -147 -27 -200 -54 -115 -162 -186 -433 -283 -71 -26 -145 -54 -164&#10;-62 -51 -21 -224 -34 -297 -22 -100 17 -145 54 -158 131 l-7 36 73 12 c278 45&#10;514 132 712 264 91 61 253 200 279 240 10 14 19 26 20 26 1 0 3 -64 2 -142z&#10;m-3359 88 c60 -60 43 -155 -34 -192 -94 -44 -205 64 -158 154 25 48 63 72 113&#10;72 38 0 50 -5 79 -34z m-1718 -13 c10 -24 17 -67 18 -113 1 -41 2 -82 3 -91 0&#10;-9 19 -43 41 -75 43 -64 48 -89 25 -133 -42 -82 -113 -18 -161 144 -36 125&#10;-15 305 36 305 15 0 26 -11 38 -37z m417 3 c51 -22 70 -59 66 -134 -1 -13 -16&#10;-39 -35 -58 -94 -94 -239 18 -181 140 17 36 59 65 93 66 12 0 38 -6 57 -14z&#10;m1584 -27 c17 -56 15 -182 -4 -254 -21 -78 -65 -156 -99 -175 -26 -14 -28 -14&#10;-52 13 -47 55 -45 69 30 175 26 38 28 49 30 139 2 111 14 143 57 143 22 0 28&#10;-7 38 -41z m2625 -36 c-4 -16 -16 -40 -27 -55 -32 -43 -136 -123 -217 -167&#10;-180 -96 -275 -103 -521 -41 -338 85 -442 76 -564 -49 -58 -60 -87 -65 -105&#10;-21 -7 17 -16 30 -21 30 -14 0 -10 38 7 73 9 18 32 57 52 89 l36 56 111 6 c60&#10;4 299 13 530 22 372 13 434 18 543 40 68 14 134 29 145 34 34 14 38 12 31 -17z&#10;m-7299 -58 c123 -38 342 -75 502 -86 131 -10 239 -9 488 0 231 9 328 10 348 2&#10;73 -28 167 -134 167 -189 0 -18 -10 -42 -23 -58 l-24 -27 -64 45 c-75 53 -142&#10;88 -218 113 -75 24 -170 16 -406 -36 -157 -34 -215 -42 -331 -46 -154 -6 -214&#10;3 -301 42 -91 42 -203 171 -203 235 0 24 1 24 65 5z m-268 -88 c83 -46 120&#10;-74 142 -104 83 -115 301 -198 516 -197 86 1 224 19 303 40 20 6 22 3 22 -30&#10;0 -20 -4 -36 -10 -36 -5 0 -17 -23 -27 -50 -16 -45 -20 -50 -43 -46 -157 32&#10;-625 61 -779 49 l-76 -6 -64 89 c-110 155 -155 266 -131 324 7 17 18 30 24 30&#10;6 0 61 -29 123 -63z m4486 -25 c29 -11 85 -25 124 -32 40 -6 76 -16 79 -21 3&#10;-5 -11 -26 -31 -46 l-36 -36 -78 5 c-122 7 -182 60 -198 174 l-6 47 47 -36&#10;c27 -20 71 -45 99 -55z m-1013 -37 c-27 -91 -68 -120 -180 -129 -65 -6 -79 -4&#10;-108 14 -27 17 -56 58 -47 68 1 1 48 11 104 22 111 21 151 36 202 79 33 28 34&#10;28 37 8 2 -12 -2 -39 -8 -62z m543 -133 c21 -20 27 -35 27 -70 0 -54 -12 -77&#10;-52 -98 -41 -21 -87 -11 -124 27 -53 55 -34 132 41 165 38 17 73 10 108 -24z&#10;m2617 -1 c14 -28 -13 -55 -41 -41 -22 12 -25 30 -7 48 18 18 36 15 48 -7z&#10;m-5350 -11 c0 -34 29 -80 63 -100 23 -14 50 -20 95 -20 58 0 66 3 94 31 34 33&#10;44 32 97 -12 l23 -19 -23 -21 c-13 -11 -49 -32 -79 -47 -46 -22 -68 -27 -135&#10;-27 -89 0 -136 17 -220 81 -44 34 -46 38 -43 81 3 44 5 47 43 59 63 19 85 17&#10;85 -6z m4801 -33 c99 -87 208 -127 350 -127 93 0 210 25 278 59 22 12 44 21&#10;48 21 15 0 71 -103 87 -159 9 -30 16 -76 16 -102 0 -55 -31 -161 -60 -204 -39&#10;-60 -123 -134 -183 -163 -136 -65 -248 -67 -441 -8 -241 74 -416 102 -738 118&#10;l-238 12 0 37 0 38 633 -2 c543 -2 632 0 632 12 0 11 -107 36 -455 103 -250&#10;49 -547 108 -660 131 -204 42 -205 42 -208 70 l-3 27 235 0 c192 0 236 -3 236&#10;-14 0 -23 135 -56 231 -56 l86 0 7 38 c3 20 6 58 6 84 l0 46 -40 7 c-36 6 -43&#10;4 -61 -19 -15 -19 -30 -26 -54 -26 -43 0 -56 17 -48 64 10 60 30 68 169 64&#10;l121 -4 54 -47z m-4027 -21 c63 -26 86 -91 44 -120 -34 -24 -67 -19 -98 14&#10;-21 23 -37 30 -64 30 l-36 0 0 -80 0 -80 75 0 c43 0 75 4 75 10 0 6 28 10 64&#10;10 58 0 67 3 85 26 12 15 21 33 21 40 0 12 45 14 246 14 l245 0 -3 -32 -3 -33&#10;-255 -52 c-298 -61 -679 -128 -835 -149 -60 -8 -143 -19 -182 -26 l-73 -11 0&#10;-54 0 -54 48 6 c26 3 121 10 212 15 402 23 841 50 913 55 73 6 77 5 77 -14 0&#10;-13 -6 -21 -17 -21 -98 0 -633 -64 -745 -89 -157 -36 -360 -112 -457 -173 -17&#10;-11 -29 -8 -74 14 -178 87 -294 306 -271 509 9 82 13 85 70 56 122 -62 288&#10;-90 396 -68 99 21 171 65 281 172 l102 99 63 0 c34 0 78 -6 96 -14z m1282 -27&#10;c32 -6 83 -23 112 -39 l53 -29 49 31 c86 54 164 36 201 -45 32 -72 19 -146&#10;-32 -172 -40 -21 -49 -19 -126 22 -199 106 -190 103 -283 103 -80 0 -90 -2&#10;-126 -28 -43 -32 -83 -98 -110 -184 -15 -48 -21 -58 -40 -58 -19 0 -24 7 -30&#10;36 -11 58 1 185 20 224 39 75 102 124 179 140 59 11 66 11 133 -1z m1344 -11&#10;c119 -44 181 -168 165 -330 -6 -62 -9 -68 -30 -68 -19 0 -25 8 -34 48 -27 105&#10;-90 201 -149 223 -13 5 -60 9 -105 9 l-82 -1 -125 -69 c-144 -81 -174 -86&#10;-214 -39 -65 77 -1 229 96 229 27 0 122 -43 132 -59 5 -7 26 0 63 21 95 54&#10;200 67 283 36z m3275 -53 c48 -14 101 -33 118 -41 53 -27 113 -81 127 -113 10&#10;-26 10 -35 -6 -62 -25 -42 -102 -84 -199 -109 -63 -16 -111 -20 -246 -20 -394&#10;0 -674 62 -643 143 8 22 26 27 144 37 90 8 136 20 298 74 105 36 213 76 239&#10;90 60 31 62 31 168 1z m-7477 -135 c53 -5 170 -17 260 -27 l163 -17 -3 -25&#10;c-2 -19 -11 -27 -33 -32 -395 -87 -711 -131 -955 -133 -184 -1 -257 13 -299&#10;58 l-23 25 20 28 c41 58 165 107 308 122 113 12 448 13 562 1z m4085 -44 c43&#10;-17 85 -68 93 -111 8 -45 -20 -102 -66 -133 -51 -34 -129 -27 -171 15 -72 71&#10;-49 187 46 229 39 17 58 17 98 0z m-1164 -54 c93 -50 92 -185 -1 -242 -84 -51&#10;-194 10 -205 113 -11 105 110 180 206 129z m684 -67 c29 -13 115 -69 192 -125&#10;178 -128 259 -169 351 -178 81 -8 96 -29 47 -68 -26 -21 -38 -23 -141 -24&#10;-104 0 -116 2 -145 24 -55 41 -173 104 -266 141 -83 33 -95 35 -203 35 l-115&#10;0 -74 -48 c-101 -66 -185 -111 -309 -167 -101 -46 -108 -47 -175 -42 -102 9&#10;-151 55 -126 120 9 23 16 27 48 27 135 1 290 77 448 220 118 106 125 109 283&#10;110 121 0 138 -2 185 -25z m-3183 -56 c0 -20 -69 -81 -87 -77 -11 2 -20 15&#10;-23 33 -5 29 -3 31 40 42 59 15 70 15 70 2z m6265 -44 c200 -30 356 -84 513&#10;-178 215 -127 332 -254 303 -330 -11 -29 -37 -50 -88 -74 -35 -17 -50 -19 -99&#10;-11 -134 21 -289 108 -404 228 -88 91 -147 124 -303 169 -152 44 -167 53 -167&#10;99 0 37 19 75 48 100 21 16 75 15 197 -3z m-6645 -72 c-390 -133 -718 -310&#10;-919 -497 -39 -37 -42 -38 -36 -16 33 113 147 271 305 423 l111 107 292 -1&#10;c276 -1 289 -1 247 -16z m7395 -3 c100 -10 170 -39 287 -116 106 -71 251 -235&#10;233 -265 -8 -13 -27 -7 -150 46 -55 24 -154 64 -221 90 -120 45 -217 96 -263&#10;138 -28 26 -81 97 -81 109 0 11 82 10 195 -2z m-7008 -45 l37 -16 -45 -45&#10;c-173 -178 -519 -413 -791 -539 -87 -40 -92 -41 -141 -20 -74 31 -99 111 -69&#10;216 13 44 17 47 115 101 240 132 435 213 657 273 36 10 72 24 80 31 19 19 112&#10;18 157 -1z m2967 -99 c29 -39 30 -166 1 -214 -24 -40 -44 -38 -68 8 -24 47&#10;-20 173 6 214 21 32 33 30 61 -8z m-2835 -52 c-19 -31 -59 -76 -89 -100 -50&#10;-40 -56 -42 -67 -27 -19 25 -17 31 29 71 23 20 65 58 93 84 64 60 79 48 34&#10;-28z m3007 21 c27 -65 7 -204 -28 -193 -28 9 -49 71 -45 129 8 98 45 131 73&#10;64z m-358 -20 c16 -34 15 -144 -1 -175 -30 -59 -69 -6 -68 92 0 91 43 141 69&#10;83z m3411 -14 c40 -21 111 -102 111 -128 0 -7 -7 -25 -16 -38 l-16 -25 -77 68&#10;c-42 38 -91 79 -108 91 -19 13 -33 31 -33 43 0 19 4 20 49 15 27 -3 68 -15 90&#10;-26z m-207 -70 c46 -37 109 -101 140 -142 53 -67 58 -78 58 -124 0 -37 -9 -70&#10;-35 -124 -19 -40 -35 -79 -35 -87 0 -11 -8 -14 -27 -12 -24 3 -28 10 -50 91&#10;-32 124 -94 238 -170 317 -35 35 -63 73 -63 83 0 44 42 80 82 69 9 -2 54 -34&#10;100 -71z m-5663 0 l25 -19 -66 -71 c-74 -80 -144 -207 -173 -313 -10 -38 -22&#10;-68 -27 -68 -26 0 -67 34 -83 67 -26 53 -26 176 -2 222 28 51 94 111 186 168&#10;88 55 89 55 140 14z m3276 -5 c18 -8 38 -24 44 -35 10 -17 7 -26 -18 -53 -26&#10;-29 -35 -33 -79 -33 -79 0 -129 58 -84 98 40 36 86 44 137 23z m-1067 -56 c53&#10;-33 33 -91 -37 -110 -62 -16 -131 19 -131 66 0 57 102 84 168 44z m4800 -45&#10;c17 -14 44 -47 62 -74 30 -48 31 -51 15 -75 -37 -56 -127 -105 -250 -137 -96&#10;-25 -113 -24 -128 8 -10 23 -9 28 7 37 46 27 92 76 147 157 78 117 96 127 147&#10;84z m-2198 -80 c23 -47 67 -122 97 -166 29 -45 53 -83 51 -84 -9 -7 -238 -37&#10;-323 -42 -106 -6 -223 7 -281 32 l-35 14 115 111 c63 61 133 136 157 166 l41&#10;54 68 0 68 0 42 -85z m1395 46 c59 -34 135 -112 135 -139 0 -10 -9 -45 -20&#10;-77 -28 -82 -25 -111 20 -206 37 -79 71 -178 184 -540 28 -88 53 -153 66 -164&#10;13 -11 43 -20 82 -24 57 -5 64 -9 77 -35 19 -41 25 -179 11 -266 -7 -41 -14&#10;-97 -16 -125 -2 -27 -46 -302 -99 -610 l-95 -560 -55 -3300 -55 -3300 -29&#10;-120 c-91 -381 -321 -647 -673 -779 l-68 -26 0 145 0 145 33 0 c18 0 66 9 107&#10;21 195 54 324 174 374 349 17 60 17 40 32 5012 l7 2097 42 45 c113 117 195&#10;355 226 655 17 163 7 492 -20 650 -65 380 -206 726 -392 962 -46 58 -40 137&#10;14 197 27 29 52 28 112 -7z m-6861 -145 c28 -37 28 -105 1 -142 -11 -15 -44&#10;-47 -72 -71 -40 -34 -50 -40 -46 -24 4 18 1 21 -23 21 -37 0 -91 33 -106 65&#10;-12 28 -8 33 95 103 29 19 66 46 82 58 35 28 42 27 69 -10z m-844 -24 c0 -5&#10;14 -30 32 -57 38 -58 102 -100 175 -116 48 -11 54 -15 49 -33 -3 -12 -6 -24&#10;-6 -28 0 -22 -139 13 -246 62 -90 41 -99 50 -90 85 11 42 86 118 86 87z m8048&#10;-73 c46 -42 147 -275 193 -445 24 -90 51 -126 89 -122 38 4 38 58 1 171 -43&#10;130 -51 176 -41 221 17 78 92 124 245 151 48 8 95 15 105 15 11 0 39 -46 92&#10;-157 122 -253 194 -469 243 -730 14 -76 28 -146 30 -157 5 -25 -47 -76 -77&#10;-76 -14 0 -34 10 -45 23 -27 28 -115 302 -198 609 -35 131 -67 243 -70 248&#10;-11 18 -61 11 -83 -13 l-21 -22 35 -94 c44 -117 74 -232 74 -283 0 -39 -1 -39&#10;-72 -73 -96 -45 -238 -85 -311 -88 l-58 -2 -54 185 c-64 222 -80 267 -134 386&#10;-56 125 -56 188 2 252 25 27 28 27 55 1z m-6985 -66 l25 -61 -40 -39 c-122&#10;-119 -249 -395 -305 -662 -30 -149 -37 -352 -22 -656 5 -104 8 -305 7 -445&#10;l-3 -255 -51 76 c-152 228 -189 577 -113 1079 23 157 98 513 109 520 4 3 10&#10;18 14 34 15 60 80 181 143 264 76 102 194 225 204 214 4 -4 18 -35 32 -69z&#10;m1080 1 c34 -30 135 -121 224 -200 l161 -145 -14 -27 c-8 -15 -14 -33 -14 -39&#10;0 -9 -22 -13 -77 -13 -58 0 -87 -5 -121 -21 l-44 -22 -67 22 c-83 27 -96 26&#10;-150 -4 -37 -22 -55 -25 -135 -25 -89 0 -151 12 -237 47 l-36 14 54 82 c30 45&#10;89 151 130 235 l74 152 96 0 95 0 61 -56z m5389 9 c32 -29 147 -279 197 -428&#10;145 -440 193 -997 112 -1304 -26 -100 -78 -181 -115 -181 -3 0 -6 246 -6 548&#10;0 585 -5 678 -46 842 -41 163 -91 261 -183 358 -40 41 -41 44 -41 110 0 38 2&#10;71 5 74 9 9 59 -4 77 -19z m-7037 -70 c19 -9 35 -23 35 -30 0 -23 -70 -230&#10;-111 -330 -51 -121 -119 -259 -172 -345 -39 -64 -44 -68 -77 -68 -49 0 -159&#10;30 -251 69 -120 50 -115 41 -84 148 14 50 37 142 50 204 l25 114 -21 18 c-26&#10;21 -53 22 -72 3 -7 -8 -35 -85 -61 -172 -130 -434 -180 -570 -228 -621 -46&#10;-49 -74 -13 -64 84 13 124 120 474 244 793 l48 125 64 -3 c129 -6 280 -64 349&#10;-136 l33 -34 -50 -146 c-60 -174 -57 -210 14 -192 19 5 32 21 49 59 149 337&#10;218 477 236 477 4 0 24 -8 44 -17z m6086 -50 c45 -54 222 -174 356 -242 51&#10;-25 74 -31 130 -31 l68 -1 69 -122 c78 -139 166 -273 260 -397 43 -58 60 -87&#10;52 -92 -21 -12 -159 -11 -206 2 -158 42 -398 155 -571 268 -90 59 -114 70&#10;-165 76 -142 16 -347 97 -404 159 -74 81 -191 229 -200 252 -24 62 -6 80 109&#10;110 86 22 190 32 352 34 116 1 139 -1 150 -16z m-850 -24 c16 -16 18 -23 9&#10;-34 -35 -42 -181 -60 -188 -23 -3 18 31 55 63 68 38 16 94 11 116 -11z m-340&#10;-75 c21 -40 114 -121 154 -134 30 -10 37 -9 55 8 25 23 63 32 134 32 91 -1&#10;163 -50 186 -129 l8 -29 -113 -4 c-83 -3 -119 -9 -139 -21 -16 -11 -46 -17&#10;-81 -17 -53 0 -61 4 -147 65 -101 72 -115 75 -203 45 -52 -18 -84 -20 -326&#10;-20 l-269 0 -42 -33 c-24 -17 -72 -45 -108 -61 -58 -26 -68 -28 -105 -17 -144&#10;41 -201 53 -286 58 -92 6 -97 7 -113 34 l-17 28 78 24 c70 22 103 25 311 31&#10;l233 6 70 40 c62 37 78 42 167 49 94 9 170 33 187 61 4 6 73 10 179 10 l173 0&#10;14 -26z m-1431 -275 c0 -4 -14 -12 -30 -19 -17 -7 -42 -22 -56 -33 -21 -16&#10;-44 -20 -117 -22 -165 -5 -277 -48 -383 -147 -35 -33 -68 -58 -71 -54 -9 9 11&#10;63 56 155 28 58 47 83 88 113 50 38 54 39 96 31 59 -13 314 -4 352 13 27 12&#10;32 11 47 -9 10 -12 18 -25 18 -28z m-1183 -45 c131 -96 307 -213 396 -263 32&#10;-18 57 -34 55 -36 -2 -1 -77 -65 -168 -141 -91 -77 -188 -159 -217 -182 l-52&#10;-43 -838 -14 c-461 -8 -900 -15 -976 -15 l-138 0 63 52 c222 183 442 398 587&#10;576 l82 100 67 -18 c142 -39 459 -54 470 -22 6 19 118 16 126 -3 9 -24 58 -18&#10;119 15 31 17 68 30 82 30 14 0 37 7 51 16 30 20 76 32 131 33 37 1 54 -8 160&#10;-85z m-2258 -19 c-140 -498 -143 -1033 -8 -1436 38 -113 122 -289 181 -379&#10;l43 -65 -1 -3085 c-1 -1722 -5 -3144 -10 -3218 -13 -184 -1 -373 30 -496 38&#10;-146 86 -236 176 -326 119 -120 234 -167 433 -177 l107 -6 0 -140 0 -139 -36&#10;7 c-71 13 -210 57 -287 90 -334 144 -536 382 -622 737 l-25 103 -50 3160 -49&#10;3160 -106 585 c-103 567 -106 587 -95 652 9 52 8 101 -4 233 -25 265 -27 255&#10;44 332 80 88 170 225 238 364 31 64 58 116 59 115 1 -1 -7 -33 -18 -71z m4541&#10;65 c0 -6 63 -10 168 -10 182 0 230 -7 274 -40 31 -23 19 -23 418 -4 75 3 141&#10;1 167 -5 23 -6 86 -38 138 -70 66 -41 127 -69 198 -91 71 -22 220 -90 487&#10;-223 l385 -192 -130 -6 c-71 -4 -364 -10 -650 -13 -456 -6 -529 -5 -595 9&#10;-165 35 -403 128 -720 282 l-175 84 -165 -3 -165 -3 -60 50 c-33 28 -71 57&#10;-85 66 l-24 16 22 34 c30 49 60 74 122 103 52 24 64 26 223 26 105 0 167 -4&#10;167 -10z m-821 -65 c83 -28 153 -76 209 -143 90 -106 194 -142 416 -142 l149&#10;0 303 -157 303 -158 -72 -3 c-199 -7 -2502 -40 -2507 -36 -13 13 70 141 122&#10;189 59 55 114 81 232 111 63 16 64 17 75 58 32 127 141 187 223 124 l32 -25&#10;70 60 c109 91 231 145 332 146 22 1 73 -10 113 -24z m4431 -237 c15 -97 33&#10;-163 77 -280 26 -73 40 -98 53 -98 23 0 30 -37 30 -151 0 -108 -14 -177 -46&#10;-224 -23 -35 -24 -36 -8 -103 31 -131 6 -255 -68 -338 -34 -38 -35 -42 -41&#10;-139 -3 -66 -12 -120 -27 -160 -18 -50 -21 -79 -20 -171 1 -61 -3 -129 -9&#10;-152 -10 -35 -15 -41 -49 -47 -102 -18 -191 -84 -239 -178 -31 -62 -42 -171&#10;-24 -244 16 -62 68 -142 115 -173 30 -21 43 -42 76 -127 22 -56 45 -135 52&#10;-176 10 -69 10 -78 -10 -115 -20 -39 -20 -40 -1 -71 34 -56 61 -152 54 -190&#10;-8 -42 -30 -88 -56 -116 -17 -19 -17 -24 -4 -69 18 -58 19 -150 4 -194 -9 -26&#10;-7 -41 10 -88 12 -31 24 -82 28 -114 l6 -59 -65 -29 c-81 -37 -136 -85 -173&#10;-154 -23 -43 -30 -68 -33 -134 -6 -104 14 -166 76 -242 71 -87 155 -306 167&#10;-434 5 -51 3 -70 -13 -101 l-20 -38 24 -42 c13 -24 31 -71 39 -106 20 -76 9&#10;-136 -36 -204 -28 -42 -28 -44 -14 -92 18 -57 19 -159 4 -203 -9 -25 -7 -41 9&#10;-85 26 -67 36 -137 28 -182 -6 -31 -10 -35 -39 -35 -49 0 -147 -51 -191 -100&#10;-134 -149 -105 -400 59 -506 52 -32 53 -34 88 -141 68 -204 81 -330 42 -390&#10;-14 -21 -13 -27 10 -73 34 -68 58 -173 50 -224 -8 -46 -39 -123 -60 -146 -12&#10;-13 -11 -24 1 -75 16 -72 18 -185 3 -239 -8 -30 -7 -47 4 -80 20 -53 37 -138&#10;37 -180 0 -33 0 -33 -56 -39 -165 -17 -294 -163 -294 -332 0 -158 98 -280 262&#10;-325 l59 -16 -36 -41 c-20 -24 -60 -54 -93 -69 -31 -15 -58 -28 -60 -29 -1 -1&#10;9 -26 23 -56 41 -89 32 -121 -45 -153 -19 -8 -56 -17 -81 -21 l-47 -7 -6 -57&#10;c-7 -65 -52 -165 -87 -198 -36 -33 -92 -53 -148 -53 -48 0 -50 -1 -98 -63 -90&#10;-114 -203 -150 -313 -99 -42 19 -43 20 -16 21 55 2 110 25 151 66 40 38 62 84&#10;48 98 -3 4 -8 19 -9 33 -2 15 -6 34 -10 43 -4 9 -6 25 -5 37 3 29 -22 46 -65&#10;46 -43 0 -82 -34 -150 -128 -55 -76 -81 -94 -139 -94 -53 0 -64 -15 -45 -60&#10;13 -33 21 -36 120 -48 l65 -9 -74 -36 c-83 -41 -140 -52 -206 -43 l-45 7 0&#10;168 0 169 88 27 c172 53 322 143 440 262 149 150 258 360 326 629 l26 101 25&#10;2664 c14 1465 25 2707 26 2759 l0 95 14 -50 c17 -64 50 -140 76 -176 16 -23&#10;28 -29 58 -29 56 0 69 20 42 65 -29 50 -27 73 17 157 21 40 46 93 56 118 16&#10;42 16 48 1 83 -18 43 -37 54 -68 40 -12 -6 -53 -19 -91 -29 l-70 -19 -18 -50&#10;c-17 -49 -17 -38 -12 450 l6 500 119 605 c66 333 122 613 125 623 11 35 19 15&#10;16 -38 -2 -30 2 -87 8 -125 13 -79 36 -104 87 -98 27 3 28 5 26 51 -4 63 11&#10;88 100 173 82 78 110 133 88 180 -11 24 -23 26 -169 27 -61 0 -85 -17 -114&#10;-80 -10 -24 -21 -43 -23 -43 -2 0 -3 35 -4 78 0 42 -3 125 -7 183 l-6 105 49&#10;36 c73 52 91 60 173 79 41 9 76 17 77 18 0 0 6 -32 13 -71z m-8825 -53 c33 -9&#10;103 -36 155 -62 l95 -45 -11 -162 c-8 -99 -9 -203 -4 -271 6 -78 5 -112 -3&#10;-117 -8 -5 28 -200 116 -640 l127 -633 5 -385 c5 -358 4 -383 -11 -354 -17 33&#10;-75 63 -130 68 -19 2 -40 9 -48 15 -35 29 -76 -12 -76 -76 0 -20 20 -71 50&#10;-129 52 -100 61 -144 35 -178 -37 -49 4 -101 63 -80 31 11 72 79 101 169 11&#10;33 20 58 21 55 1 -3 16 -1229 35 -2725 l34 -2720 26 -95 c84 -310 220 -534&#10;415 -682 136 -104 383 -200 573 -223 l57 -7 0 -209 0 -208 -36 -7 c-74 -14&#10;-159 2 -252 46 l-88 42 -64 -22 c-73 -24 -108 -22 -180 15 -45 23 -117 92&#10;-139 134 -10 17 -21 21 -64 21 -72 0 -147 37 -187 91 -33 46 -60 124 -60 175&#10;0 39 -10 45 -94 64 -41 8 -69 21 -89 41 -32 32 -31 38 8 126 l23 52 -33 11&#10;c-52 17 -113 66 -145 117 -17 26 -30 50 -30 54 0 4 20 17 44 29 52 24 115 89&#10;148 152 32 60 33 211 2 279 -45 97 -124 159 -241 188 -59 15 -68 20 -75 46&#10;-13 44 -2 161 22 230 18 53 19 66 9 109 -13 55 -7 204 10 249 9 23 6 34 -19&#10;73 -61 97 -62 200 -2 329 l29 60 -19 40 c-23 50 -19 153 12 265 38 138 46 154&#10;93 177 93 45 147 112 173 215 46 180 -68 370 -243 406 -46 9 -63 39 -70 121&#10;-4 43 1 75 21 137 21 65 24 87 16 115 -14 48 -12 136 4 199 14 53 13 55 -9 82&#10;-13 16 -32 52 -41 82 -22 68 -13 127 30 209 l32 63 -18 39 c-23 52 -22 91 2&#10;192 33 137 61 195 127 260 80 78 106 145 101 258 -6 132 -71 229 -190 287 -50&#10;25 -57 31 -67 72 -16 66 -14 99 14 181 19 58 22 80 15 106 -14 48 -12 125 4&#10;185 13 50 13 53 -10 80 -13 16 -31 51 -40 77 -21 63 -13 119 30 201 l33 62&#10;-19 35 c-25 44 -20 119 17 228 24 73 30 82 69 105 165 97 214 315 107 477 -38&#10;57 -100 102 -177 127 l-59 20 -23 68 c-18 53 -23 89 -23 166 0 54 2 102 5 106&#10;3 5 -6 37 -20 71 -20 49 -27 87 -31 174 -6 109 -7 113 -37 144 -77 78 -104&#10;202 -72 336 16 66 15 70 -4 94 -33 43 -50 119 -50 227 0 152 23 299 58 376 16&#10;36 37 82 45 103 9 20 20 37 24 37 5 0 36 -7 68 -15z m7735 -840 l0 -445 -180&#10;0 -180 0 0 -135 0 -135 25 0 25 0 0 110 0 110 55 0 55 0 0 -100 0 -100 25 0&#10;25 0 0 100 0 100 50 0 50 0 0 -110 0 -110 25 0 c25 0 25 -1 25 -90 l0 -90&#10;-180 0 -180 0 0 -25 0 -24 133 -3 132 -3 -132 -85 c-126 -80 -133 -87 -133&#10;-117 l0 -33 180 0 180 0 0 25 0 24 -136 3 -136 3 132 83 c73 46 135 80 139 77&#10;3 -4 7 -549 9 -1212 l2 -1205 -140 4 c-128 3 -141 5 -162 25 -19 19 -20 26&#10;-10 48 9 20 19 25 47 25 32 0 35 2 35 30 0 28 -2 30 -40 30 -60 0 -90 -33 -90&#10;-99 0 -39 6 -56 26 -80 l26 -31 154 0 154 0 0 -90 0 -90 -132 -1 c-73 -1 -144&#10;-4 -158 -8 -14 -4 -35 -22 -48 -41 -20 -30 -23 -45 -20 -103 3 -60 7 -71 36&#10;-100 l32 -32 145 -3 145 -3 0 -100 c0 -54 -2 -99 -4 -99 -2 0 -17 7 -32 15&#10;-51 27 -108 16 -128 -24 -7 -14 -21 -57 -32 -95 -21 -77 -48 -105 -82 -87 -11&#10;6 -25 25 -31 42 -18 53 6 111 57 130 15 6 22 17 22 34 0 31 -31 34 -77 5 -47&#10;-28 -55 -52 -51 -141 3 -69 6 -82 29 -105 20 -20 37 -26 72 -26 58 -1 93 21&#10;102 64 19 94 38 148 56 153 30 10 58 -12 65 -51 8 -44 -7 -81 -41 -96 -18 -8&#10;-25 -19 -25 -40 0 -33 12 -35 63 -9 l37 19 0 -89 c0 -82 -1 -89 -20 -89 -18 0&#10;-20 -7 -20 -60 l0 -60 -160 0 -160 0 0 -30 0 -30 160 0 160 0 0 -60 c0 -53 2&#10;-60 20 -60 18 0 20 -7 20 -75 l0 -75 -180 0 -180 0 0 -30 0 -30 180 0 180 0 0&#10;-117 c0 -114 -1 -117 -18 -96 -29 37 -94 56 -172 51 -118 -9 -170 -60 -170&#10;-169 0 -85 38 -133 123 -153 25 -6 27 -4 27 22 0 24 -7 32 -41 48 -89 39 -84&#10;141 8 180 68 29 164 9 195 -40 32 -51 6 -146 -39 -146 -8 0 -13 -12 -13 -30 0&#10;-37 15 -38 64 -5 l36 24 0 -114 0 -115 -180 0 -180 0 0 -25 0 -25 179 0 178 0&#10;7 -92 c3 -50 6 -115 6 -144 l0 -53 -52 23 c-70 31 -297 116 -310 116 -5 0 -8&#10;-14 -6 -31 3 -28 9 -34 56 -51 l53 -20 -3 -66 -3 -65 -50 -17 c-45 -15 -50&#10;-20 -53 -48 -4 -40 2 -40 103 -1 44 17 122 46 173 65 l93 33 -3 -707 c-3 -698&#10;-4 -708 -25 -772 -42 -123 -123 -221 -233 -279 -32 -17 -61 -31 -64 -31 -3 0&#10;-6 77 -6 170 l0 170 -140 0 -140 0 0 -30 0 -30 110 0 110 0 0 -55 0 -55 -100&#10;0 -100 0 0 -25 0 -25 100 0 100 0 0 -50 0 -50 -110 0 -110 0 0 -30 0 -30 -85&#10;0 -85 0 0 190 0 190 -30 0 -29 0 -3 -138 -3 -137 -85 137 c-81 130 -87 137&#10;-117 138 l-33 0 0 -190 0 -190 30 0 29 0 3 134 3 135 83 -132 83 -132 -53 -7&#10;c-29 -3 -162 -6 -295 -7 l-243 -1 0 180 0 180 -125 0 -125 0 0 -25 c0 -25 1&#10;-25 90 -25 l90 0 0 -154 0 -154 -232 -4 c-128 -2 -234 -4 -234 -4 -1 1 27 78&#10;62 171 35 94 63 176 64 183 0 9 -10 12 -27 10 -24 -3 -31 -11 -47 -56 l-19&#10;-53 -65 3 -65 3 -20 53 c-18 48 -22 52 -53 52 l-33 0 30 -82 c17 -46 48 -129&#10;69 -185 l38 -103 -279 0 -279 0 0 180 0 180 -135 0 -135 0 0 -25 0 -25 105 0&#10;105 0 0 -55 0 -55 -95 0 -95 0 0 -30 0 -30 95 0 95 0 0 -50 0 -50 -104 0&#10;c-101 0 -105 -1 -108 -23 -3 -21 -8 -22 -108 -24 -102 -3 -104 -2 -78 14 32&#10;20 48 52 48 97 0 52 -25 73 -113 95 -88 22 -107 34 -107 66 0 31 22 47 75 52&#10;39 5 47 2 75 -25 16 -17 30 -38 30 -46 0 -10 9 -16 25 -16 20 0 25 5 25 25 0&#10;90 -96 137 -212 105 -105 -30 -102 -183 4 -204 18 -3 56 -12 83 -19 43 -12 50&#10;-18 53 -41 5 -40 -14 -56 -66 -56 -46 0 -82 20 -82 47 0 8 -12 13 -30 13 -24&#10;0 -30 -4 -30 -21 0 -30 17 -57 48 -73 25 -14 20 -15 -85 -16 l-113 0 0 185 0&#10;185 -30 0 -30 0 0 -75 0 -75 -60 0 c-133 0 -191 -67 -144 -167 12 -24 25 -36&#10;46 -40 16 -3 26 -8 24 -11 -9 -9 -2327 -29 -2457 -21 -399 23 -575 131 -644&#10;394 -24 89 -30 284 -15 497 11 161 10 436 -8 1891 -12 936 -19 1835 -16 1997&#10;3 162 -4 1015 -14 1895 -10 880 -18 1601 -17 1602 0 1 1522 27 3380 56 1859&#10;30 3383 55 3388 56 4 0 7 -199 7 -444z m1133 -1096 c69 -36 97 -105 99 -246 2&#10;-107 -21 -164 -73 -182 -18 -6 -34 -9 -37 -7 -2 3 8 22 22 43 21 31 26 49 26&#10;103 0 116 -34 180 -95 180 -44 0 -77 26 -73 58 3 23 8 27 41 30 22 2 41 10 44&#10;18 6 17 17 18 46 3z m-8822 -95 c17 -21 14 -66 -7 -81 -10 -7 -33 -13 -51 -13&#10;-43 0 -79 -35 -88 -84 -4 -19 -5 -72 -3 -117 3 -70 6 -83 27 -100 21 -17 21&#10;-19 5 -26 -26 -10 -65 17 -88 62 -42 79 -19 291 37 343 40 38 142 47 168 16z&#10;m8704 -110 c26 -11 46 -59 35 -88 -17 -46 -63 -58 -98 -26 -29 27 -28 65 3 95&#10;25 26 33 29 60 19z m-8641 -106 c23 -33 19 -64 -11 -87 -58 -46 -128 24 -82&#10;82 26 34 71 36 93 5z m8801 -1624 c42 -28 67 -96 73 -200 7 -134 -21 -202 -90&#10;-219 -34 -9 -35 1 -6 32 45 48 32 233 -19 273 -14 11 -39 20 -56 20 -35 0 -67&#10;25 -67 52 0 10 12 31 26 45 22 22 31 25 70 19 24 -3 55 -13 69 -22z m-8872&#10;-96 c19 -25 19 -29 4 -51 -12 -18 -27 -26 -62 -30 -78 -8 -104 -54 -105 -183&#10;0 -49 5 -69 25 -98 31 -45 31 -46 2 -46 -27 0 -61 32 -77 75 -19 47 -16 222 4&#10;270 32 75 63 95 140 92 40 -2 53 -7 69 -29z m8741 -119 c31 -25 34 -61 6 -89&#10;-28 -28 -64 -25 -89 7 -24 30 -20 58 11 86 26 22 40 22 72 -4z m-8686 -75 c43&#10;-30 15 -114 -38 -114 -29 0 -60 36 -60 69 0 31 30 61 60 61 9 0 26 -7 38 -16z&#10;m7652 -434 l0 -90 -129 0 c-113 0 -131 2 -153 20 -45 35 -42 115 5 138 31 16&#10;59 19 175 21 l102 1 0 -90z m1110 -1349 c37 -26 61 -83 71 -169 14 -124 -4&#10;-204 -56 -238 -14 -9 -32 -14 -40 -10 -12 4 -11 12 10 42 21 30 25 49 25 104&#10;0 129 -27 180 -96 180 -62 0 -94 50 -61 92 23 31 102 31 147 -1z m-8780 -71&#10;c46 -46 20 -100 -47 -100 -67 0 -93 -51 -93 -181 0 -82 2 -92 24 -114 28 -28&#10;20 -40 -17 -26 -61 23 -93 107 -82 216 8 93 21 137 47 170 42 53 131 72 168&#10;35z m8660 -140 c25 -25 25 -51 2 -80 -35 -43 -112 -15 -112 41 0 27 35 59 65&#10;59 14 0 34 -9 45 -20z m-8596 -81 c15 -12 26 -30 26 -44 0 -28 -36 -65 -62&#10;-65 -23 0 -68 43 -68 65 0 20 44 65 63 65 8 0 26 -9 41 -21z m7492 -650 c-28&#10;-9 -59 -20 -68 -24 -16 -6 -18 -1 -18 43 l0 50 69 -27 68 -26 -51 -16z m1222&#10;-1273 c36 -42 52 -107 52 -217 0 -115 -36 -179 -100 -179 -21 0 -21 1 4 31 23&#10;27 26 40 26 102 0 126 -31 187 -95 187 -17 0 -38 6 -47 13 -20 16 -30 45 -17&#10;53 9 5 120 39 140 43 4 0 20 -14 37 -33z m-8779 -46 c19 -5 38 -15 43 -22 23&#10;-38 -7 -88 -53 -88 -79 0 -104 -43 -104 -177 0 -83 2 -94 24 -117 22 -23 22&#10;-26 7 -32 -28 -11 -69 28 -89 82 -14 38 -17 70 -13 146 5 115 29 172 86 200&#10;40 21 53 22 99 8z m8632 -141 c29 -29 23 -79 -13 -99 -25 -13 -31 -13 -55 0&#10;-53 30 -32 120 27 120 11 0 29 -9 41 -21z m-8531 -89 c28 -28 25 -64 -7 -89&#10;-30 -24 -58 -20 -85 11 -23 26 -23 40 3 72 25 31 61 34 89 6z m5598 -170 c-12&#10;-33 -25 -57 -29 -53 -5 7 -39 100 -39 110 0 2 20 3 45 3 l44 0 -21 -60z&#10;m-1508 -50 l0 -60 -49 0 c-65 0 -97 13 -103 42 -10 56 16 76 100 77 l52 1 0&#10;-60z m305 -200 c-41 -20 -93 -64 -118 -100 -13 -19 -15 -18 -59 24 -25 24 -68&#10;52 -94 62 l-49 19 45 6 c25 3 106 7 180 7 l135 2 -40 -20z m2330 -5 c23 -22&#10;25 -32 25 -119 0 -87 -2 -97 -26 -126 -33 -38 -74 -60 -114 -60 l-30 0 0 142&#10;c0 132 2 143 22 165 30 32 90 32 123 -2z m293 13 c8 -8 12 -57 12 -155 l0&#10;-143 -31 0 c-40 0 -94 26 -119 58 -17 21 -20 40 -20 123 0 53 3 104 6 113 5&#10;12 21 16 73 16 39 0 72 -5 79 -12z m-5050 -32 c47 -24 53 -48 50 -196 l-3&#10;-135 -35 3 c-45 5 -83 25 -109 58 -18 23 -21 40 -21 129 0 93 2 103 23 122 21&#10;19 42 30 60 32 4 1 20 -5 35 -13z m2827 -10 c84 -39 92 -66 37 -119 -50 -48&#10;-209 -87 -355 -87 l-48 0 42 -40 c40 -38 41 -41 37 -90 -15 -157 -247 -275&#10;-384 -195 -48 28 -76 63 -94 118 -18 57 7 116 73 168 61 49 96 64 166 72 48 6&#10;60 12 115 65 95 91 182 130 291 131 53 1 82 -5 120 -23z m-2561 -19 c21 -28&#10;21 -38 24 -543 l3 -514 -201 0 c-219 0 -237 4 -259 59 -14 32 -2 73 31 109 20&#10;20 30 22 138 22 l117 0 5 403 c6 408 9 439 46 480 23 26 70 18 96 -16z m4228&#10;2 c11 -14 23 -43 28 -65 5 -21 10 -211 10 -421 l0 -383 114 0 c99 0 117 -3&#10;140 -21 31 -25 46 -74 33 -112 -17 -50 -47 -57 -257 -57 l-190 0 0 519 c0 513&#10;0 519 21 545 27 35 73 33 101 -5z m-4751 -8 c28 -28 29 -33 29 -122 0 -80 -3&#10;-97 -22 -126 -24 -34 -65 -59 -117 -69 l-31 -6 0 150 0 150 31 26 c40 34 74&#10;33 110 -3z m1757 8 l72 -13 0 -41 0 -40 -133 -3 c-150 -3 -272 -17 -332 -38&#10;-89 -31 -135 -7 -135 70 0 39 3 45 30 56 16 7 53 16 82 20 74 12 328 5 416&#10;-11z m-782 0 c93 -16 90 -14 86 -58 l-4 -38 -73 -7 c-81 -7 -166 -30 -201 -53&#10;-26 -17 -86 -9 -105 14 -7 8 -13 32 -13 55 -1 37 2 42 37 61 72 37 163 46 273&#10;26z m2969 -11 c35 -13 40 -19 43 -49 5 -74 -55 -117 -122 -85 -37 17 -163 33&#10;-343 42 l-133 7 0 39 c0 22 5 41 13 43 70 27 472 29 542 3z m-1690 -5 c106&#10;-38 148 -122 83 -164 -70 -44 -236 0 -277 72 -46 83 67 136 194 92z m2250 -13&#10;c49 -24 50 -26 49 -69 -1 -30 -7 -48 -19 -58 -25 -17 -79 -17 -115 2 -38 20&#10;-159 45 -216 45 l-44 0 0 44 0 43 53 11 c28 6 95 10 147 9 79 -2 103 -6 145&#10;-27z m-1060 -129 c105 -12 207 -28 244 -40 125 -41 283 -124 390 -204 96 -73&#10;160 -107 200 -107 21 0 82 -18 100 -29 17 -11 5 -51 -15 -51 -51 0 -483 195&#10;-588 265 l-29 19 7 -48 c10 -65 -12 -101 -56 -92 -43 8 -127 59 -196 116 -66&#10;55 -68 56 -286 71 -87 6 -167 14 -179 18 -19 7 -18 10 15 42 64 64 115 69 393&#10;40z m-1404 -23 c49 -23 89 -61 89 -85 0 -4 -93 -7 -206 -5 l-207 3 -76 -50&#10;c-94 -62 -157 -90 -197 -91 -46 0 -58 20 -50 85 l6 54 -94 -45 c-102 -48 -303&#10;-117 -454 -154 -72 -19 -95 -21 -104 -12 -21 21 4 46 53 54 24 4 65 10 91 13&#10;31 4 73 22 130 57 117 71 220 121 314 152 148 49 202 55 434 52 207 -2 217 -3&#10;271 -28z m-966 -18 c8 -16 15 -33 15 -39 0 -13 -90 -63 -175 -97 -50 -20 -88&#10;-29 -133 -29 -68 0 -75 4 -92 64 -19 69 15 88 175 94 65 3 127 11 150 20 22 9&#10;41 16 42 16 1 1 9 -12 18 -29z m3175 -6 c32 -8 91 -14 140 -13 128 3 166 -26&#10;136 -106 -15 -39 -21 -43 -59 -49 -26 -4 -65 0 -101 9 -65 17 -236 101 -236&#10;117 0 5 7 23 16 39 11 22 20 29 32 24 9 -3 42 -13 72 -21z m906 -60 c58 -38&#10;72 -131 29 -183 -53 -62 -137 -62 -190 0 -33 40 -40 70 -25 113 24 74 123 111&#10;186 70z m-5027 -68 c61 -32 82 -112 46 -174 -23 -38 -52 -54 -104 -56 -49 -1&#10;-89 26 -115 78 -17 36 -18 39 -1 82 28 74 105 105 174 70z m3113 -33 c22 -20&#10;23 -41 1 -65 -20 -22 -51 -23 -75 -1 -23 21 -23 38 2 63 24 24 47 25 72 3z&#10;m-1391 -14 c26 -26 21 -59 -13 -78 -24 -14 -28 -14 -47 3 -25 23 -27 53 -4 78&#10;21 23 38 23 64 -3z m207 -31 c7 -7 12 -24 12 -38 0 -48 -45 -67 -82 -33 -22&#10;20 -23 41 -1 65 18 21 53 24 71 6z m1802 -70 c41 -67 11 -168 -50 -168 -39 0&#10;-70 47 -70 106 0 88 79 128 120 62z m-436 -9 c62 -73 2 -211 -71 -164 -57 38&#10;-65 126 -15 172 33 31 55 29 86 -8z m211 8 c50 -42 41 -147 -15 -177 -62 -33&#10;-116 81 -75 160 23 45 51 51 90 17z m-2439 -9 c10 -16 -35 -50 -137 -103 -114&#10;-59 -236 -105 -278 -105 -65 0 -93 56 -48 97 18 17 234 97 312 116 42 10 144&#10;7 151 -5z m4130 -65 c8 -42 0 -129 -14 -165 -11 -27 -14 -28 -87 -28 l-75 0 0&#10;74 c0 60 4 78 22 101 33 42 72 62 112 57 31 -4 36 -8 42 -39z m-3675 -7 c23&#10;-37 24 -87 4 -126 -43 -83 -125 -42 -125 63 0 40 5 54 29 77 35 35 65 31 92&#10;-14z m210 18 c51 -54 19 -165 -49 -172 -27 -3 -35 2 -52 30 -61 100 26 222&#10;101 142z m3093 12 c55 -23 76 -63 76 -145 l0 -71 -76 0 -75 0 -16 38 c-18 42&#10;-20 124 -4 165 12 31 41 35 95 13z m-3524 -28 c24 -39 26 -88 5 -128 -32 -62&#10;-84 -59 -111 5 -19 47 -18 84 6 123 15 25 27 32 50 32 23 0 35 -7 50 -32z&#10;m1776 -6 c23 -15 34 -50 24 -77 -14 -37 -39 -43 -62 -16 -22 28 -23 50 -2 79&#10;16 24 23 26 40 14z m784 -12 c13 -24 -2 -60 -25 -60 -20 0 -30 47 -15 65 17&#10;20 27 19 40 -5z m-4037 -8 c48 -32 56 -51 57 -134 l0 -78 -75 0 c-73 0 -76 1&#10;-86 28 -26 66 -23 157 7 187 21 20 63 19 97 -3z m363 -38 c8 -55 -1 -141 -17&#10;-160 -8 -10 -34 -14 -80 -14 l-69 0 0 76 c0 41 5 84 10 94 15 29 60 49 107 50&#10;l42 0 7 -46z m1724 -3 c16 -31 12 -66 -11 -87 -21 -19 -21 -18 -40 5 -23 29&#10;-24 59 -2 83 21 23 40 23 53 -1z m-830 -26 c15 -18 5 -65 -13 -65 -18 0 -37&#10;21 -37 40 0 16 18 40 31 40 4 0 12 -7 19 -15z m2625 -71 c44 -17 58 -108 25&#10;-161 -40 -66 -120 -27 -120 59 0 77 42 122 95 102z m-185 -36 c28 -47 26 -99&#10;-6 -137 -51 -61 -114 -22 -114 69 0 93 78 137 120 68z m-226 -9 c38 -45 37&#10;-110 -3 -150 -16 -16 -34 -29 -39 -29 -21 0 -71 52 -77 80 -13 59 29 130 76&#10;130 10 0 29 -14 43 -31z m-1562 -49 c48 -65 19 -161 -50 -168 -27 -3 -35 2&#10;-52 30 -11 18 -20 48 -20 66 0 36 22 87 42 96 27 11 62 0 80 -24z m-218 1 c35&#10;-39 33 -124 -4 -161 -49 -49 -110 -4 -110 80 0 83 68 132 114 81z m1585 -15&#10;c10 -25 -5 -72 -25 -80 -19 -7 -54 28 -54 54 0 27 35 61 56 53 8 -3 19 -15 23&#10;-27z m-1824 18 c22 -9 45 -57 45 -94 0 -66 -50 -121 -90 -100 -53 28 -64 128&#10;-19 176 23 25 36 28 64 18z m3087 -40 c69 -157 -73 -301 -432 -437 -164 -63&#10;-327 -97 -460 -97 -127 0 -263 19 -325 45 -48 21 -125 73 -125 85 0 5 26 11&#10;58 15 179 20 456 111 793 261 281 124 308 135 374 155 89 26 93 25 117 -27z&#10;m-3668 16 c61 -19 212 -83 558 -234 234 -102 490 -175 620 -176 l53 -1 -38&#10;-34 c-84 -73 -189 -104 -387 -112 -169 -7 -215 2 -465 88 -386 132 -545 284&#10;-471 452 19 44 34 46 130 17z m1216 -29 c16 -31 12 -66 -11 -87 -21 -19 -21&#10;-18 -40 5 -23 29 -24 59 -2 83 21 23 40 23 53 -1z m1186 -207 c7 -28 -16 -61&#10;-35 -50 -12 8 -15 59 -4 69 14 15 33 6 39 -19z m-1201 -55 c0 -24 -5 -35 -17&#10;-37 -22 -4 -35 42 -18 63 20 24 35 12 35 -26z m510 -61 c0 -68 -4 -91 -17&#10;-104 -15 -15 -17 -14 -34 11 -27 41 -32 140 -8 166 10 11 27 19 38 17 19 -3&#10;21 -10 21 -90z m171 80 l26 -12 -4 -111 c-4 -119 -20 -170 -52 -170 -12 0 -27&#10;15 -40 40 -29 55 -30 197 -2 238 20 30 33 33 72 15z m1790 -103 c11 -16 11&#10;-25 1 -44 -9 -18 -29 -28 -84 -42 -80 -20 -124 -40 -167 -76 -55 -46 -122 -12&#10;-93 48 21 41 74 63 167 69 75 4 85 7 88 25 9 48 62 60 88 20z m-3685 -35 c10&#10;-6 19 -21 19 -34 0 -22 4 -23 89 -29 125 -8 171 -35 171 -102 0 -17 -8 -29&#10;-25 -37 -22 -10 -32 -7 -81 27 -33 23 -88 48 -137 62 -101 29 -124 53 -97 104&#10;12 21 32 24 61 9z m1519 -5 c95 -49 -43 -205 -181 -207 -90 0 -117 59 -58 126&#10;70 80 173 115 239 81z"/>
      <path d="M9079 10183 c-28 -32 -17 -95 32 -189 63 -121 64 -126 38 -178 -12&#10;-25 -19 -51 -16 -59 6 -16 55 -28 84 -21 40 11 114 184 116 275 2 59 -27 139&#10;-50 139 -7 0 -13 4 -13 8 0 10 -98 34 -110 27 -5 -3 -11 -1 -15 5 -10 16 -51&#10;12 -66 -7z"/>
      <path d="M8941 7947 c-6 -6 -11 -32 -11 -58 0 -50 8 -63 88 -154 66 -74 78&#10;-105 63 -155 -17 -56 -2 -74 53 -67 47 7 51 13 71 99 40 176 2 322 -87 333&#10;-99 12 -166 13 -177 2z"/>
      <path d="M9157 6844 c-3 -3 -30 -7 -59 -9 -83 -4 -104 -13 -135 -58 -26 -38&#10;-28 -47 -28 -136 1 -76 6 -110 26 -166 27 -76 50 -94 103 -81 29 7 32 23 15&#10;71 -17 45 -7 72 51 144 71 88 93 136 86 180 -7 42 -40 74 -59 55z"/>
      <path d="M8952 5973 c-32 -61 -18 -102 76 -226 55 -72 64 -109 41 -161 -22&#10;-47 25 -72 80 -43 45 23 89 209 72 301 -10 53 -43 107 -76 122 -12 6 -47 10&#10;-79 9 -31 -1 -59 2 -62 6 -9 15 -43 10 -52 -8z"/>
      <path d="M9172 4701 c-7 -4 -34 -9 -60 -9 -26 -1 -59 -5 -75 -8 -39 -8 -78&#10;-78 -84 -151 -5 -65 16 -185 44 -242 16 -32 23 -36 61 -39 51 -4 61 12 42 68&#10;-16 50 -5 78 62 163 28 34 56 74 64 89 20 40 18 94 -6 118 -22 22 -29 24 -48&#10;11z"/>
      <path d="M9000 3900 c-6 -10 -10 -34 -10 -53 0 -35 10 -50 126 -196 37 -46 40&#10;-73 19 -138 -17 -53 93 -49 113 5 32 80 45 192 32 262 -11 60 -56 134 -76 126&#10;-8 -3 -16 -2 -18 3 -3 4 -43 8 -91 8 -73 1 -87 -2 -95 -17z"/>
      <path d="M8844 2571 c-64 -29 -121 -117 -163 -255 l-21 -69 21 -23 c43 -46 89&#10;-39 89 13 0 41 53 80 144 108 106 33 143 56 154 97 10 36 0 68 -21 68 -22 0&#10;-67 24 -67 36 0 11 -46 29 -62 26 -5 -1 -8 3 -8 8 0 15 -20 12 -66 -9z"/>
      <path d="M647 10983 c-3 -2 -29 -5 -58 -6 l-54 -2 -3 -52 -3 -52 97 -101 97&#10;-101 -7 -54 c-5 -48 -4 -54 14 -60 11 -4 35 -1 54 5 30 10 34 16 45 67 14 73&#10;14 195 -1 245 -6 22 -28 57 -47 78 -33 36 -41 39 -83 38 -26 0 -49 -2 -51 -5z"/>
      <path d="M850 10116 c-6 -8 -17 -13 -25 -10 -7 3 -16 1 -19 -4 -3 -6 -15 -8&#10;-26 -5 -11 3 -20 1 -20 -5 0 -6 -9 -8 -20 -5 -11 3 -20 0 -20 -6 0 -6 -6 -11&#10;-13 -11 -20 0 -47 -76 -47 -134 0 -55 22 -131 60 -206 30 -61 49 -80 77 -80&#10;57 0 81 42 48 86 -24 32 -17 71 32 167 57 110 65 175 24 208 -28 23 -35 23&#10;-51 5z"/>
      <path d="M852 7897 c-32 -34 -36 -73 -18 -184 18 -113 12 -150 -30 -178 -13&#10;-8 -24 -24 -24 -35 0 -23 36 -50 67 -50 33 0 163 132 193 195 39 80 28 195&#10;-18 195 -6 0 -13 7 -16 16 -3 9 -11 14 -18 12 -7 -3 -25 8 -40 24 -33 34 -67&#10;36 -96 5z"/>
      <path d="M857 6732 c-22 -24 -22 -84 -1 -125 9 -18 39 -60 66 -94 63 -80 73&#10;-107 54 -160 -17 -47 -8 -63 35 -63 49 0 58 10 83 89 45 144 43 229 -7 307&#10;-24 36 -43 43 -125 46 -30 1 -56 6 -58 10 -9 14 -30 9 -47 -10z"/>
      <path d="M986 5902 c-3 -5 -20 -7 -38 -6 -48 3 -128 -17 -128 -33 0 -7 -4 -13&#10;-9 -13 -5 0 -17 -20 -27 -45 -22 -58 -15 -181 15 -277 20 -63 24 -68 55 -74&#10;53 -10 79 3 72 34 -17 82 -17 91 -3 119 9 16 34 51 57 78 60 72 83 121 77 163&#10;-4 18 -11 40 -18 48 -12 15 -45 19 -53 6z"/>
      <path d="M862 4674 c-17 -11 -22 -25 -22 -56 0 -46 27 -99 95 -188 51 -66 58&#10;-90 41 -138 -17 -49 -11 -62 30 -62 46 0 69 25 92 102 40 130 37 243 -9 284&#10;-10 9 -19 23 -19 31 0 7 -1 13 -2 13 -2 0 -37 3 -78 6 -41 4 -82 10 -91 15&#10;-10 5 -24 2 -37 -7z"/>
      <path d="M853 3849 c-27 -10 -59 -52 -74 -96 -16 -48 -7 -194 16 -266 16 -50&#10;23 -58 52 -66 63 -18 90 8 62 61 -19 35 5 86 76 168 71 81 78 97 73 155 -4 45&#10;-28 66 -57 48 -10 -6 -22 -9 -26 -5 -9 9 -98 10 -122 1z"/>
      <path d="M1230 2501 c0 -5 -9 -7 -20 -4 -11 3 -20 1 -20 -5 0 -5 -16 -17 -35&#10;-26 -19 -9 -35 -21 -35 -26 0 -5 -12 -10 -27 -12 -22 -2 -29 -9 -31 -30 -8&#10;-66 40 -104 187 -148 76 -22 121 -55 121 -88 0 -10 6 -26 13 -37 18 -24 59&#10;-14 80 19 15 22 15 30 1 83 -34 133 -92 218 -178 259 -57 27 -56 27 -56 15z"/>
      <path d="M1620 2045 c-7 -8 -10 -21 -7 -29 3 -8 2 -29 -3 -48 -5 -18 -12 -52&#10;-15 -76 -7 -57 26 -101 98 -133 45 -20 69 -23 174 -24 83 0 126 4 134 12 7 7&#10;13 32 13 55 l1 43 -47 -3 c-40 -2 -51 1 -83 29 -20 18 -55 59 -77 91 -22 33&#10;-54 68 -71 79 -38 23 -100 25 -117 4z"/>
      <path d="M5085 10748 c-36 -28 -56 -77 -46 -114 8 -32 62 -74 95 -74 34 0 94&#10;-20 111 -36 20 -21 19 -40 -5 -64 -42 -42 -160 -12 -160 41 0 14 -7 19 -25 19&#10;-20 0 -25 -5 -25 -25 0 -94 127 -146 225 -94 53 29 64 46 65 97 0 59 -27 84&#10;-115 106 -113 28 -137 52 -92 94 32 30 87 29 115 -1 12 -13 22 -29 22 -35 0&#10;-7 14 -12 30 -12 33 0 37 11 20 54 -24 63 -156 90 -215 44z"/>
      <path d="M7390 10752 c-23 -12 -44 -36 -63 -73 -25 -47 -28 -62 -24 -121 5&#10;-84 29 -126 87 -156 35 -18 57 -23 101 -20 108 7 163 78 163 210 1 83 -11 110&#10;-67 152 -40 29 -149 34 -197 8z m166 -67 c36 -38 50 -88 39 -132 -21 -87 -62&#10;-120 -136 -110 -51 7 -76 29 -90 80 -21 77 10 165 65 187 48 20 87 11 122 -25z"/>
      <path d="M3610 10575 l0 -185 140 0 140 0 0 30 0 30 -115 0 -115 0 0 50 0 50&#10;105 0 105 0 0 30 0 30 -105 0 -105 0 0 50 0 50 110 0 110 0 0 25 0 25 -135 0&#10;-135 0 0 -185z"/>
      <path d="M3960 10575 l0 -185 120 0 120 0 0 30 0 30 -90 0 -90 0 0 155 0 155&#10;-30 0 -30 0 0 -185z"/>
      <path d="M4660 10580 l0 -180 140 0 140 0 0 25 0 25 -110 0 -110 0 0 55 0 55&#10;100 0 100 0 0 25 0 25 -100 0 -100 0 0 50 0 50 110 0 110 0 0 25 0 25 -140 0&#10;-140 0 0 -180z"/>
      <path d="M5420 10580 l0 -180 30 0 30 0 0 80 0 80 90 0 c89 0 90 0 90 25 0 25&#10;-1 25 -90 25 l-90 0 0 50 0 50 100 0 100 0 0 25 0 25 -130 0 -130 0 0 -180z"/>
      <path d="M5770 10632 c0 -113 3 -133 23 -172 27 -54 55 -70 125 -70 119 0 145&#10;40 150 233 l4 137 -36 0 -36 0 0 -137 c0 -76 -4 -143 -8 -149 -25 -38 -99 -45&#10;-130 -11 -20 22 -22 33 -22 160 l0 137 -35 0 -35 0 0 -128z"/>
      <path d="M6180 10580 l0 -180 135 0 135 0 0 25 0 25 -105 0 -105 0 0 55 0 55&#10;100 0 100 0 0 25 0 25 -100 0 -100 0 0 50 0 50 105 0 105 0 0 25 0 25 -135 0&#10;-135 0 0 -180z"/>
      <path d="M6560 10580 l0 -180 30 0 30 0 0 75 0 75 66 0 c95 0 104 -7 104 -85&#10;l0 -65 41 0 c35 0 40 2 34 18 -5 9 -11 43 -15 76 -4 40 -12 63 -25 72 -10 8&#10;-14 14 -7 14 16 0 42 53 42 85 0 73 -44 95 -190 95 l-110 0 0 -180z m222 113&#10;c10 -9 18 -26 18 -39 0 -37 -36 -54 -112 -54 l-68 0 0 55 0 55 72 0 c52 0 76&#10;-4 90 -17z"/>
      <path d="M6960 10735 c0 -24 1 -24 95 -27 l95 -3 -105 -130 c-61 -76 -104&#10;-139 -105 -152 0 -23 1 -23 145 -23 l145 0 0 25 c0 24 -1 24 -101 27 l-100 3&#10;100 129 c62 80 101 138 101 153 0 23 0 23 -135 23 l-135 0 0 -25z"/>
      <path d="M2420 10555 l0 -185 140 0 140 0 0 25 0 25 -110 0 -110 0 0 60 0 60&#10;100 0 100 0 0 25 0 25 -100 0 -100 0 0 45 0 45 105 0 105 0 0 30 0 30 -135 0&#10;-135 0 0 -185z"/>
      <path d="M2870 10555 l0 -185 30 0 29 0 3 130 3 130 81 -128 c78 -121 83 -127&#10;118 -130 l36 -3 0 185 0 186 -30 0 -29 0 -3 -134 -3 -135 -80 134 c-80 134&#10;-80 134 -117 135 l-38 0 0 -185z"/>
      <path d="M3273 10333 l-1163 -3 -5 -23 c-3 -12 -4 -1570 -3 -3462 3 -3203 5&#10;-3445 21 -3509 66 -268 238 -387 537 -372 118 6 1745 22 3630 35 1359 10 1319&#10;8 1459 65 215 87 290 291 262 706 -6 85 -36 1597 -66 3360 -30 1763 -55 3206&#10;-55 3208 0 2 -2425 -1 -4617 -5z m4140 -103 c-4 -4 -51 -23 -103 -43 -101 -39&#10;-360 -164 -448 -216 -43 -25 -64 -31 -110 -31 -31 0 -63 -4 -69 -8 -7 -4 -20&#10;-48 -28 -98 -27 -153 -76 -299 -100 -291 -6 3 -137 94 -291 204 -375 267 -467&#10;321 -630 368 -190 55 -374 19 -541 -106 l-53 -40 0 151 0 150 98 1 c53 1 588&#10;5 1187 8 l1090 6 3 -24 c2 -13 0 -27 -5 -31z m324 11 c27 -40 30 -108 9 -188&#10;-27 -100 -74 -168 -95 -135 -15 24 -34 218 -27 267 8 52 45 99 73 93 10 -2 28&#10;-18 40 -37z m-3602 -23 c-2 -29 -7 -84 -10 -123 -9 -134 -56 -258 -136 -361&#10;l-39 -51 0 -226 c0 -214 -1 -228 -20 -247 -24 -24 -38 -25 -66 -6 -20 14 -21&#10;27 -27 368 -6 293 -4 364 8 416 35 147 123 257 219 273 80 13 77 15 71 -43z&#10;m815 -967 l0 -1019 -52 28 c-29 16 -113 47 -187 71 l-134 42 7 315 c6 257 5&#10;316 -6 323 -28 18 -102 10 -140 -16 -20 -14 -44 -25 -53 -25 -24 0 -75 29 -75&#10;43 -13 510 -19 597 -39 623 -11 14 -25 51 -32 82 -25 116 27 349 101 459 63&#10;95 57 93 353 93 l257 0 0 -1019z m-1566 982 c-47 -193 -182 -460 -298 -590&#10;l-43 -48 -5 -388 c-5 -360 -7 -389 -24 -408 -30 -33 -99 -69 -177 -94 l-72&#10;-23 -3 -161 c-1 -101 -6 -160 -12 -156 -5 3 -64 -21 -131 -55 -272 -136 -370&#10;-227 -351 -326 12 -66 145 -159 344 -243 45 -19 46 -20 53 -73 4 -29 14 -73&#10;24 -97 l16 -45 87 0 c78 -1 89 -3 113 -26 76 -71 71 -175 -12 -226 -15 -10&#10;-29 -19 -31 -20 -2 -1 6 -19 16 -41 26 -49 77 -98 123 -117 l36 -15 38 39 c60&#10;62 111 65 138 7 13 -27 13 -43 2 -110 l-12 -77 43 -40 c37 -34 50 -40 88 -40&#10;41 0 48 4 88 51 108 126 103 122 129 116 50 -13 118 -162 105 -232 l-7 -34&#10;-717 -3 c-394 -2 -719 -2 -722 0 -3 2 -6 788 -8 1748 l-2 1744 337 3 c186 1&#10;454 3 596 5 l257 2 -6 -27z m321 -69 c-16 -209 -72 -378 -159 -481 l-36 -41 0&#10;-170 c0 -156 -1 -170 -20 -187 -17 -15 -24 -16 -45 -7 l-25 12 0 222 c0 378&#10;46 579 162 704 36 39 45 44 85 44 l45 0 -7 -96z m3715 -248 l0 -204 -67 15&#10;c-103 23 -236 69 -330 113 l-84 39 15 29 c11 22 43 42 136 86 91 43 284 117&#10;328 126 1 0 2 -92 2 -204z m-1785 81 c206 -72 457 -230 943 -592 l53 -40 -43&#10;-6 c-24 -4 -133 -10 -243 -14 l-200 -7 -89 41 c-203 94 -362 134 -536 135&#10;-131 0 -236 -26 -370 -92 -52 -26 -98 -48 -102 -50 -5 -2 -8 113 -8 256 l0&#10;260 53 40 c103 80 187 103 352 98 95 -3 135 -9 190 -29z m2189 -173 l6 -90&#10;-34 -40 c-19 -21 -38 -36 -42 -31 -10 9 -6 98 7 163 8 42 44 104 54 92 1 -2 5&#10;-44 9 -94z m-942 -3 c2 -5 123 -60 271 -122 l267 -112 0 -74 0 -73 -48 0&#10;c-119 0 -287 -74 -379 -166 -40 -40 -49 -46 -38 -24 17 33 28 24 -162 129&#10;l-112 62 29 40 c42 59 63 132 64 225 1 79 2 82 31 103 31 22 71 28 77 12z&#10;m859 -253 c17 -28 19 -44 16 -103 -6 -91 -31 -168 -66 -207 -27 -30 -29 -31&#10;-38 -12 -16 31 -36 209 -29 258 14 92 77 126 117 64z m-2068 -149 c62 -12 171&#10;-48 282 -91 l180 -71 310 11 309 11 82 -52 c80 -50 82 -53 69 -77 -7 -14 -15&#10;-37 -19 -52 l-6 -28 -920 0 -920 0 0 94 0 94 48 35 c91 66 194 111 307 132&#10;101 19 164 18 278 -6z m1667 -99 c0 -20 -40 -89 -72 -126 -40 -45 -82 -64&#10;-143 -64 -44 0 -45 1 -45 33 0 18 10 53 23 77 30 60 88 90 174 90 37 0 63 -4&#10;63 -10z m115 -1270 c21 0 35 -5 35 -12 0 -24 -58 -135 -73 -141 -52 -20 -105&#10;158 -142 477 -20 164 -39 547 -31 625 6 74 44 140 124 220 l47 46 3 -607 2&#10;-608 35 0z m363 1168 c21 -21 14 -95 -14 -151 -37 -73 -63 -107 -81 -107 -14&#10;0 -15 12 -10 89 9 136 58 216 105 169z m-1362 -257 c-29 -56 -79 -61 -315 -30&#10;-82 10 -97 10 -121 -4 -14 -9 -80 -37 -146 -62 -187 -72 -234 -113 -234 -206&#10;l0 -47 -97 -40 c-141 -58 -458 -162 -494 -162 -5 0 -9 128 -9 290 l0 290 715&#10;0 716 0 -15 -29z m667 -13 c24 -43 24 -47 30 -358 7 -332 15 -428 48 -550 28&#10;-103 50 -150 94 -199 38 -41 38 -43 23 -74 -8 -18 -90 -197 -183 -399 -160&#10;-350 -169 -367 -183 -345 -8 12 -25 33 -38 47 -34 37 -88 138 -122 226 -38&#10;101 -71 243 -122 524 -44 244 -84 411 -122 505 -21 53 -29 63 -70 83 -60 30&#10;-157 31 -248 3 -36 -12 -84 -21 -108 -21 -59 0 -79 -13 -93 -60 -12 -40 -13&#10;-40 -48 -33 -103 22 -146 1 -199 -95 -30 -54 -39 -63 -75 -73 -74 -20 -187 4&#10;-187 39 0 27 110 129 165 152 25 11 75 23 111 26 63 7 67 9 97 50 32 43 32 43&#10;95 44 52 0 65 3 69 18 7 24 103 98 156 121 24 10 69 24 100 30 30 7 58 18 60&#10;25 8 22 172 110 297 161 63 26 131 56 150 67 36 21 260 126 272 127 3 1 17&#10;-18 31 -41z m-446 -51 c12 -12 -47 -65 -96 -85 -82 -35 -100 -36 -113 -7 -9&#10;21 -8 28 8 46 40 46 76 60 136 56 32 -2 61 -6 65 -10z m1068 -21 c34 -34 41&#10;-100 21 -183 -23 -89 -62 -163 -87 -163 -18 0 -32 83 -33 196 -1 116 0 123 23&#10;148 30 32 45 33 76 2z m-3265 -171 c0 -145 -3 -185 -13 -185 -7 0 -19 16 -26&#10;36 -8 21 -22 39 -38 45 -34 13 -143 11 -183 -2 l-33 -12 6 -118 6 -119 -139 0&#10;-139 0 -3 108 -3 107 -40 20 c-55 28 -193 28 -253 1 l-42 -19 0 -104 0 -103&#10;-80 0 -80 0 0 93 c0 103 -2 107 -70 143 -56 30 -181 26 -245 -7 l-50 -25 -3&#10;-107 -3 -107 -79 0 -80 0 0 125 0 124 32 36 c35 41 99 75 239 128 52 21 110&#10;48 129 62 19 14 43 25 54 25 18 0 21 -7 22 -44 1 -27 10 -59 24 -81 21 -34 26&#10;-37 57 -32 18 3 46 14 61 25 63 45 272 102 372 102 l50 0 0 -70 0 -70 28 0&#10;c18 0 37 9 50 25 70 81 298 183 410 184 l62 1 0 -185z m1778 22 l22 -13 -27&#10;-26 c-26 -25 -170 -98 -222 -113 -23 -7 -24 -6 -18 36 4 31 14 51 34 67 67 56&#10;159 77 211 49z m-374 -37 c15 -5 31 -21 38 -35 10 -22 8 -29 -12 -50 -30 -31&#10;-77 -33 -137 -4 -42 21 -42 21 -26 46 17 26 64 52 95 53 9 0 28 -4 42 -10z&#10;m-104 -147 c67 -46 60 -58 -84 -142 -224 -130 -405 -201 -514 -201 -76 0 -94&#10;15 -90 74 l3 41 180 63 c223 77 407 151 420 169 14 18 56 16 85 -4z m2051&#10;-159 c-34 -64 -81 -72 -81 -15 0 19 14 44 42 76 l43 48 9 -33 c8 -27 5 -40&#10;-13 -76z m-1394 -28 c40 -40 88 -211 164 -584 90 -445 149 -626 254 -773 31&#10;-44 32 -49 27 -117 -4 -65 -7 -72 -26 -72 -17 1 -39 37 -123 208 -56 114 -110&#10;229 -118 257 -27 84 -45 168 -45 215 0 31 -12 68 -39 125 -52 107 -87 215&#10;-101 311 -12 86 -30 145 -83 274 -54 132 -55 141 -10 168 42 24 67 21 100 -12z&#10;m-188 -130 c67 -174 85 -276 50 -276 -33 0 -180 176 -220 263 -12 26 -10 30&#10;22 63 19 20 43 40 54 44 46 20 52 13 94 -94z m-1509 14 c28 -28 25 -51 -9 -84&#10;l-29 -28 -304 4 c-272 4 -311 7 -384 27 -80 21 -93 22 -605 19 l-524 -3 -48&#10;-24 c-67 -33 -92 -72 -92 -143 0 -48 5 -62 31 -95 17 -21 57 -51 89 -68 l59&#10;-30 389 -5 c370 -5 389 -6 403 -24 12 -17 12 -23 0 -40 -13 -21 -20 -21 -432&#10;-21 -479 0 -484 1 -574 82 -63 56 -101 128 -107 204 -10 103 53 199 154 235&#10;31 11 223 13 1001 14 949 0 962 0 982 -20z m3042 -11 c36 -20 89 -169 59 -169&#10;-15 0 -101 103 -107 127 -12 46 8 63 48 42z m-2704 -103 c119 -42 376 -82 591&#10;-92 104 -5 163 -3 251 10 l115 18 60 -64 c77 -82 158 -190 241 -322 l66 -106&#10;-7 -64 -6 -64 -49 25 c-49 25 -49 25 -87 7 -64 -32 -100 -118 -139 -341 -4&#10;-21 -10 -23 -73 -23 -38 0 -83 3 -100 6 l-31 7 0 78 c0 89 -8 99 -79 99 l-41&#10;0 -1 58 c-1 107 -30 151 -84 122 -12 -6 -33 -10 -46 -8 -19 2 -25 12 -35 58&#10;-6 30 -15 63 -19 73 -10 25 -48 21 -75 -8 -19 -20 -32 -25 -59 -23 -31 3 -37&#10;9 -68 68 -80 152 -157 176 -226 71 -29 -44 -62 -54 -72 -22 -11 35 -46 71 -69&#10;71 -23 0 -49 -24 -79 -72 -20 -32 -66 -38 -88 -11 -20 24 -89 53 -127 53 -41&#10;0 -77 -36 -94 -94 -15 -54 -32 -66 -95 -66 -67 0 -93 -22 -93 -80 l0 -41 -99&#10;3 c-86 3 -102 0 -120 -16 -26 -24 -27 -61 -1 -104 11 -18 20 -48 20 -67 0 -33&#10;-2 -35 -33 -35 -61 0 -85 -41 -65 -117 10 -40 8 -46 -17 -79 -15 -20 -41 -44&#10;-59 -55 -37 -22 -88 -26 -80 -5 8 20 -13 168 -43 304 l-27 122 -113 0 -113 0&#10;0 75 c0 63 6 92 36 168 64 168 214 421 244 412 50 -14 210 -25 372 -25 271 0&#10;481 31 573 84 47 28 87 31 143 12z m-1309 -52 c27 -34 27 -77 0 -120 l-21 -34&#10;-426 0 c-404 0 -429 1 -459 19 -53 33 -56 85 -7 134 l27 27 433 0 433 0 20&#10;-26z m3920 -40 c27 -19 60 -88 61 -124 0 -31 -32 -85 -59 -99 -11 -6 -40 -14&#10;-64 -17 -37 -5 -47 -2 -75 21 l-33 27 24 42 c13 22 34 69 47 104 20 55 26 62&#10;49 62 15 0 37 -7 50 -16z m-5260 -33 c14 -26 -8 -54 -40 -49 -16 2 -25 10 -27&#10;27 -6 40 48 58 67 22z m5291 -267 c46 -19 50 -36 21 -100 -23 -50 -77 -94&#10;-116 -94 -36 0 -115 77 -115 111 0 79 111 122 210 83z m-4474 -130 c63 -30 84&#10;-116 42 -169 -27 -35 -78 -56 -115 -49 -108 22 -128 177 -28 220 40 18 60 17&#10;101 -2z m4204 -4 c30 -30 40 -63 40 -130 l0 -60 -90 -99 c-117 -127 -197 -183&#10;-186 -128 43 209 88 317 170 405 35 38 40 38 66 12z m-2110 -77 c53 -51 57&#10;-53 87 -41 24 9 37 9 60 -1 26 -10 33 -22 47 -75 17 -61 19 -64 54 -70 20 -3&#10;49 -6 64 -6 25 0 27 -4 33 -55 7 -53 9 -56 51 -74 48 -22 47 -20 44 -104 -2&#10;-68 14 -93 66 -103 47 -9 55 -50 20 -97 -37 -48 -35 -100 3 -136 l30 -28 -50&#10;-20 c-31 -14 -53 -30 -61 -48 -12 -26 -11 -32 16 -97 6 -12 0 -18 -26 -23 -46&#10;-10 -68 -32 -68 -70 0 -28 -4 -33 -40 -44 -21 -6 -54 -24 -71 -39 -18 -15 -56&#10;-38 -83 -52 -39 -20 -58 -38 -81 -77 -30 -51 -30 -51 -93 -58 -34 -4 -96 -4&#10;-136 0 -99 10 -131 1 -188 -53 -38 -35 -48 -41 -48 -26 0 33 -20 93 -37 110&#10;-22 21 -66 12 -121 -26 -49 -34 -55 -36 -72 -15 -19 22 -77 19 -92 -5 -25 -39&#10;-109 -20 -197 45 -51 38 -61 50 -61 75 0 74 -51 130 -117 130 -36 0 -73 25&#10;-73 49 0 10 14 37 30 59 17 23 30 45 30 48 0 4 -13 22 -30 41 -39 44 -39 82&#10;-1 126 44 50 48 80 17 118 -34 40 -33 55 9 92 33 29 35 35 35 92 0 60 1 62 50&#10;110 47 46 50 52 50 101 0 45 3 52 25 62 47 21 91 15 130 -19 27 -24 41 -30 60&#10;-25 32 8 48 41 41 84 -4 29 4 62 21 81 2 3 18 -9 36 -26 31 -31 33 -31 85 -21&#10;58 12 60 17 36 77 -15 38 -15 41 7 70 l23 31 37 -36 38 -37 82 7 c87 8 191 36&#10;224 60 23 17 26 15 105 -61z m2489 21 c20 -25 21 -39 21 -230 0 -136 -4 -204&#10;-10 -204 -43 0 -180 208 -180 272 0 35 56 144 87 168 35 27 57 25 82 -6z&#10;m-4234 -206 c64 -50 65 -131 4 -183 -72 -60 -189 -4 -189 90 0 91 114 149 185&#10;93z m4017 -42 c49 -56 140 -290 173 -443 l7 -33 -337 0 -337 0 7 33 c21 94 63&#10;177 90 177 7 0 49 42 93 93 145 168 223 228 266 205 11 -6 28 -20 38 -32z&#10;m-1046 -31 c18 -19 42 -61 54 -92 25 -67 66 -235 75 -311 l7 -53 -58 3 -58 3&#10;-12 56 c-7 31 -31 101 -54 155 -22 54 -46 129 -53 167 -11 67 -11 70 12 88 33&#10;27 49 24 87 -16z m-202 -96 c50 -40 91 -151 111 -306 l7 -53 -111 0 c-104 0&#10;-111 1 -123 23 -19 33 -15 220 6 277 30 81 61 97 110 59z m-2293 -316 c5 -14&#10;7 -52 3 -84 -6 -50 -3 -65 20 -110 34 -69 33 -104 -7 -181 -19 -35 -37 -78&#10;-40 -97 -7 -31 -6 -33 16 -26 12 4 42 9 67 12 54 5 105 -22 121 -64 19 -50 2&#10;-62 -114 -83 -67 -12 -69 -12 -95 13 l-27 26 -17 -57 c-31 -106 -102 -192&#10;-147 -177 -10 3 -26 24 -35 46 -14 34 -15 56 -6 162 23 264 99 506 191 612 37&#10;42 56 44 70 8z m3779 -149 c0 -3 -66 -109 -147 -235 l-148 -229 -41 0 c-110 0&#10;-258 -44 -338 -100 -52 -36 -59 -39 -106 -33 -34 4 -54 12 -60 23 -15 29 -118&#10;91 -191 117 -76 26 -236 53 -319 53 l-56 0 -12 83 c-7 46 -27 139 -45 205&#10;l-34 122 749 0 c411 0 748 -3 748 -6z m-4097 -136 c-118 -388 -118 -685 -1&#10;-911 75 -143 214 -268 381 -341 l72 -31 330 -5 c318 -5 332 -6 372 -27 23 -13&#10;54 -39 70 -60 l28 -36 6 -536 c4 -295 7 -759 8 -1032 l1 -496 -702 -7 c-385&#10;-3 -703 -4 -705 -2 -2 2 10 29 27 60 18 31 42 85 54 120 12 35 38 83 58 107&#10;51 63 67 100 75 170 4 44 3 63 -7 69 -16 10 1 68 38 125 27 43 150 175 163&#10;175 4 0 47 -51 95 -112 96 -122 234 -270 356 -379 l76 -70 49 12 c157 39 240&#10;139 264 320 16 116 6 348 -21 483 -38 194 -133 474 -223 656 -33 68 -54 80&#10;-111 66 -20 -5 -21 -10 -18 -108 l4 -104 -39 4 c-36 3 -43 9 -72 59 -92 153&#10;-361 443 -586 632 l-100 84 -23 126 c-13 69 -25 127 -26 129 -2 2 -27 -5 -56&#10;-14 -48 -16 -54 -16 -86 0 -25 12 -41 30 -56 63 -40 90 -15 315 74 658 17 69&#10;29 127 26 130 -11 11 -117 -19 -193 -56 -44 -21 -113 -63 -153 -93 -40 -31&#10;-77 -56 -82 -56 -5 0 -21 22 -37 50 -15 27 -35 50 -43 50 -24 0 -119 -48 -169&#10;-84 -25 -19 -84 -80 -131 -135 -47 -56 -88 -101 -93 -101 -11 0 -81 99 -177&#10;248 l-85 133 -39 -6 c-21 -3 -51 -15 -67 -25 l-27 -20 -21 29 c-17 24 -21 44&#10;-21 109 0 80 0 81 28 85 15 2 369 5 788 6 l761 1 -34 -112z m4131 -793 l7&#10;-640 -149 -127 c-180 -154 -314 -287 -395 -391 l-60 -78 -21 33 c-46 73 -20&#10;196 59 282 29 32 35 46 35 82 0 42 -1 44 -29 44 -35 0 -54 -17 -83 -74 -42&#10;-84 -55 -96 -104 -96 -24 0 -44 -3 -44 -6 0 -3 9 -40 19 -82 30 -120 44 -227&#10;45 -357 1 -115 0 -123 -31 -193 -46 -104 -115 -206 -197 -290 -180 -187 -322&#10;-262 -652 -347 -163 -42 -319 -68 -358 -59 -68 15 -73 26 -60 151 l7 60 61 35&#10;c86 50 206 138 313 229 51 44 95 79 98 79 3 0 5 -6 5 -14 0 -19 38 -46 64 -46&#10;25 0 56 28 56 52 0 14 8 18 38 18 30 0 44 -7 71 -35 41 -44 87 -49 97 -10 3&#10;14 3 36 0 51 -8 32 23 77 45 63 19 -12 90 -11 109 1 13 9 13 11 0 20 -8 5 -20&#10;10 -26 10 -20 0 -111 88 -128 124 -23 49 -20 74 13 107 l29 29 45 -20 c25 -11&#10;66 -23 91 -26 37 -6 47 -4 52 10 9 23 -11 41 -71 63 l-50 19 1 46 c0 32 11 69&#10;37 121 l37 76 -25 37 c-65 96 -6 217 108 217 31 0 42 6 63 32 33 44 31 82 -6&#10;120 l-31 32 448 711 448 711 6 -67 c4 -37 10 -355 13 -707z m-4532 513 c-19&#10;-71 -26 -128 -29 -243 -6 -177 9 -284 63 -445 34 -101 127 -310 138 -310 3 0&#10;17 23 31 50 18 35 31 50 45 50 25 0 332 -260 454 -384 48 -49 113 -124 144&#10;-166 66 -88 144 -236 167 -314 l16 -56 50 0 49 0 36 72 36 72 37 -39 c98 -105&#10;173 -404 163 -653 l-4 -83 -56 32 c-106 59 -452 310 -452 327 0 3 14 27 30 53&#10;37 57 69 145 77 208 l5 46 -114 140 c-230 284 -276 318 -469 337 -85 8 -118&#10;15 -129 28 -22 26 -55 40 -91 40 -26 0 -42 11 -86 58 -149 160 -351 438 -468&#10;644 -56 100 -61 106 -96 111 -51 7 -111 50 -153 109 l-35 51 31 59 c34 64 88&#10;118 118 118 29 0 44 -37 45 -110 0 -65 0 -65 30 -68 27 -2 33 3 60 50 64 111&#10;207 227 381 308 0 0 -11 -42 -24 -92z m2844 41 c30 -28 78 -122 98 -188 67&#10;-229 -90 -507 -343 -606 l-69 -28 -259 121 c-422 197 -471 222 -493 249 -23&#10;30 -26 66 -6 82 33 27 80 31 200 16 65 -9 131 -13 146 -10 62 14 103 96 99&#10;199 -4 95 53 152 183 182 48 10 107 13 243 9 163 -5 181 -7 201 -26z m-3825&#10;-279 l70 -153 -22 -126 c-31 -174 -31 -445 -1 -612 23 -127 67 -274 112 -374&#10;l29 -65 -75 0 c-69 0 -75 -2 -68 -17 4 -10 27 -76 51 -147 52 -151 87 -314&#10;104 -481 14 -138 6 -452 -15 -584 l-13 -84 -107 -105 -106 -105 -26 34 c-38&#10;50 -62 101 -80 166 -14 51 -15 213 -14 1408 1 1185 3 1353 16 1373 17 26 55&#10;44 67 32 5 -4 40 -76 78 -160z m4249 139 c104 -23 297 -116 308 -147 5 -15&#10;-109 -97 -154 -112 -47 -16 -86 0 -110 46 -10 19 -25 34 -32 34 -7 0 -31 -18&#10;-53 -40 -22 -22 -49 -40 -59 -40 -19 0 -20 8 -20 135 l0 135 38 0 c20 0 57 -5&#10;82 -11z m825 -99 c3 -5 -17 -45 -45 -88 -50 -79 -50 -79 -107 -91 -71 -14&#10;-106 -14 -137 0 -64 29 -27 97 82 153 59 30 194 47 207 26z m-2624 -134 c318&#10;-131 587 -275 774 -416 l99 -75 -44 -8 c-25 -5 -107 -6 -182 -4 -76 3 -140 2&#10;-143 -3 -2 -4 -26 -10 -52 -14 -62 -8 -143 -55 -188 -109 l-36 -43 -38 36&#10;c-21 20 -60 47 -87 61 -55 27 -56 27 -449 18 -196 -4 -215 -2 -280 18 -49 16&#10;-80 33 -104 57 l-34 35 21 33 c43 69 152 159 517 426 39 28 70 51 71 51 0 1&#10;70 -28 155 -63z m-417 5 c65 -16 35 -45 -139 -139 -165 -88 -258 -142 -281&#10;-163 -21 -19 -21 -19 -67 21 -90 79 -114 188 -57 254 17 19 41 36 53 38 41 6&#10;462 -3 491 -11z m2606 -93 l45 -50 -40 -34 c-61 -52 -151 -94 -201 -94 -43 0&#10;-74 19 -74 44 0 25 58 93 106 123 56 35 107 62 114 62 3 -1 25 -24 50 -51z&#10;m-4321 33 c37 -24 -28 -131 -79 -131 -24 0 -42 32 -33 57 22 63 74 98 112 74z&#10;m3961 -159 c6 -20 14 -78 17 -128 6 -102 -8 -182 -37 -209 -17 -15 -20 -14&#10;-53 20 -52 54 -68 145 -51 292 6 43 10 52 30 57 13 4 29 16 35 28 l12 22 18&#10;-23 c10 -12 23 -39 29 -59z m-3802 52 c48 -33 17 -131 -57 -181 -40 -27 -68&#10;-29 -93 -6 -43 39 0 145 74 182 51 25 48 25 76 5z m4319 -55 c24 -11 43 -24&#10;43 -27 -1 -4 -24 -41 -53 -82 l-52 -75 -71 -6 c-67 -6 -144 -35 -160 -60 -11&#10;-18 -96 -69 -116 -69 -27 0 -40 36 -33 89 6 46 7 47 63 69 62 25 226 116 282&#10;156 43 31 44 31 97 5z m-4478 -202 c40 -37 83 -72 96 -77 88 -34 507 -727 532&#10;-882 8 -44 7 -58 -3 -62 -21 -8 -52 -77 -64 -145 -11 -60 -6 -136 8 -145 4 -2&#10;6 -43 4 -90 -2 -48 -7 -84 -12 -81 -5 3 -11 -4 -15 -14 -8 -27 -57 -66 -119&#10;-98 -32 -16 -112 -84 -218 -185 -95 -90 -168 -153 -168 -144 0 9 -25 212 -55&#10;452 -31 240 -54 439 -51 442 3 2 35 -12 71 -32 53 -29 65 -33 61 -19 -2 10&#10;-12 67 -21 128 -14 89 -25 125 -60 195 -111 221 -144 343 -152 555 -4 117 -2&#10;170 12 240 9 49 19 93 22 97 2 5 17 -8 32 -29 15 -21 60 -69 100 -106z m3745&#10;96 c21 -129 -26 -216 -140 -257 -91 -32 -385 -226 -523 -346 l-84 -73 -60 6&#10;c-151 14 -156 119 -13 260 101 99 187 138 389 177 129 25 309 149 346 238 11&#10;27 19 32 46 32 30 0 33 -3 39 -37z m-875 -340 c-33 -57 -116 -138 -168 -166&#10;-101 -55 -172 -56 -201 -3 -15 30 -6 60 33 111 59 75 68 79 202 85 66 3 128 7&#10;138 8 17 2 17 -1 -4 -35z m1273 -20 c12 -11 18 -30 18 -59 0 -34 -5 -47 -26&#10;-63 -15 -12 -41 -21 -60 -21 -30 0 -34 3 -40 35 -16 89 52 159 108 108z m-358&#10;-33 c36 -43 56 -120 56 -216 0 -80 -1 -83 -31 -108 -41 -35 -83 -34 -120 3&#10;-28 28 -29 33 -29 121 0 108 14 170 46 205 30 33 47 32 78 -5z m-174 1 c15&#10;-29 12 -49 -10 -71 -18 -18 -20 -33 -20 -145 l0 -124 -47 -21 c-125 -55 -253&#10;-82 -317 -66 -38 9 -66 45 -66 83 0 94 125 220 311 313 111 55 133 60 149 31z&#10;m-1057 -242 c313 -63 567 -194 613 -314 16 -42 16 -48 0 -89 -16 -43 -98 -131&#10;-115 -124 -4 2 -148 91 -319 198 l-312 195 0 77 c0 91 -10 87 133 57z m-1740&#10;-23 c39 -16 97 -79 97 -105 0 -14 -10 -20 -45 -23 -58 -7 -118 -47 -135 -90&#10;-7 -18 -15 -35 -16 -37 -8 -10 -76 44 -95 75 -37 61 -13 127 66 175 35 22 83&#10;24 128 5z m4182 -293 c-92 -154 -243 -452 -276 -545 -13 -38 -26 -68 -29 -68&#10;-3 0 -35 23 -72 50 -77 57 -76 50 -31 190 60 185 155 303 438 543 l30 26 8&#10;-35 c8 -31 3 -44 -68 -161z m-3869 112 c15 -22 15 -37 4 -141 -6 -64 -9 -118&#10;-7 -121 12 -11 46 10 49 30 2 14 11 23 27 25 29 5 41 -12 41 -60 0 -33 3 -38&#10;23 -38 12 0 28 9 35 21 11 16 16 18 28 9 10 -9 14 -34 14 -87 0 -60 4 -80 20&#10;-100 79 -100 -85 -386 -343 -600 -49 -40 -93 -73 -97 -73 -5 0 -37 26 -70 57&#10;-66 61 -120 134 -165 223 l-27 54 5 166 c6 180 31 309 58 301 29 -8 129 -13&#10;153 -7 21 5 29 21 56 103 42 126 72 190 109 231 36 38 65 41 87 7z m2503 1&#10;c18 -19 24 -40 28 -99 l6 -75 -40 -26 c-22 -14 -77 -42 -123 -61 -140 -58&#10;-179 -94 -236 -218 -26 -57 -26 -58 -46 -40 -37 33 -39 48 -17 118 72 235 152&#10;345 288 402 73 30 111 29 140 -1z m-2315 -46 c72 -27 234 -263 239 -348 2 -35&#10;0 -37 -30 -40 -32 -3 -33 -2 -33 36 0 52 -55 136 -145 222 -55 52 -68 71 -73&#10;102 -5 41 0 44 42 28z m3862 -38 c30 -20 34 -58 39 -394 3 -189 11 -403 17&#10;-476 6 -73 8 -135 5 -139 -14 -14 -160 72 -304 179 -177 131 -167 100 -92 286&#10;163 406 274 585 335 544z m-2591 -41 c65 -30 221 -133 376 -248 95 -71 96 -73&#10;103 -121 11 -83 68 -132 152 -132 36 0 37 0 31 -35 -14 -84 -87 -134 -194&#10;-135 l-61 0 -65 78 c-99 119 -311 317 -480 448 -25 20 -27 27 -27 93 0 65 2&#10;73 23 81 30 12 70 4 142 -29z m1281 -48 c24 -56 42 -439 23 -479 -8 -16 -22&#10;-30 -32 -32 -77 -15 -102 54 -94 258 5 133 22 219 53 268 20 31 33 28 50 -15z&#10;m168 -16 c14 -22 -3 -51 -33 -55 -17 -3 -21 2 -21 25 0 49 31 66 54 30z m-379&#10;-111 c9 -13 21 -65 27 -114 17 -133 11 -147 -124 -278 -157 -151 -299 -256&#10;-431 -317 l-38 -17 -10 28 c-22 58 -22 80 -1 87 35 11 165 100 206 141 21 21&#10;47 58 58 82 12 24 35 54 53 67 32 25 48 56 106 200 51 125 117 177 154 121z&#10;m-1083 -214 c327 -262 421 -412 463 -732 8 -62 36 -105 87 -132 35 -18 63 -23&#10;156 -26 l113 -4 35 -52 c37 -54 74 -159 74 -207 l0 -29 -283 0 -282 0 -30 86&#10;c-81 239 -241 505 -412 685 l-73 76 0 228 c0 180 3 225 13 218 6 -5 69 -55&#10;139 -111z m-668 -443 l166 -123 0 -46 c0 -85 -67 -161 -166 -190 l-42 -12 -89&#10;75 c-94 79 -201 200 -270 302 -56 84 -103 169 -103 187 0 8 13 34 30 56 l30&#10;42 139 -84 c76 -46 214 -139 305 -207z m3094 -129 c50 -33 52 -37 46 -70 -5&#10;-32 -19 -59 -79 -154 -25 -39 -26 -144 -1 -231 13 -45 15 -67 7 -87 -21 -55&#10;-58 -64 -257 -60 l-101 2 -247 254 -246 254 121 119 c116 113 208 233 238 309&#10;l13 32 227 -167 c125 -91 251 -182 279 -201z m-4327 96 c55 -84 122 -151 244&#10;-244 80 -60 90 -72 93 -103 2 -24 -4 -44 -18 -61 l-20 -26 -61 14 c-194 45&#10;-350 204 -382 387 -10 62 -9 69 9 94 25 34 65 46 79 25 6 -8 31 -47 56 -86z&#10;m-262 -58 c21 -70 88 -191 145 -259 62 -76 178 -166 258 -202 66 -29 66 -30&#10;12 -112 -66 -101 -19 -93 -514 -97 -434 -3 -435 -3 -502 20 -37 13 -70 28 -73&#10;32 -5 9 642 660 656 660 3 0 11 -19 18 -42z m2140 -94 c96 -105 180 -278 241&#10;-496 l19 -68 -195 0 -194 0 0 331 0 330 41 -23 c23 -13 63 -46 88 -74z m2676&#10;-199 c-9 -44 -29 -108 -46 -142 l-30 -63 -29 15 c-53 27 -72 63 -68 126 5 67&#10;42 135 127 230 l56 63 3 -74 c2 -41 -4 -110 -13 -155z m-985 -127 l201 -223&#10;-377 -3 c-348 -2 -379 -1 -397 15 -37 34 -70 120 -91 240 -5 30 -2 34 54 71&#10;98 66 260 119 367 121 l42 1 201 -222z"/>
      <path d="M4945 7363 c-3 -27 -8 -58 -11 -70 -3 -18 0 -23 16 -23 11 0 20 5 20&#10;10 0 14 33 13 48 -2 16 -16 15 -60 -2 -83 -12 -16 -16 -17 -30 -6 -9 7 -16 20&#10;-16 27 0 8 -10 14 -21 14 -19 0 -21 -4 -15 -32 8 -39 20 -48 68 -48 31 0 40 5&#10;53 30 35 68 2 156 -56 148 -25 -4 -29 -1 -29 19 0 21 5 23 45 23 38 0 45 3 45&#10;20 0 18 -7 20 -54 20 l-55 0 -6 -47z"/>
      <path d="M5261 7001 c-38 -38 -36 -200 2 -238 8 -8 31 -15 52 -16 29 -1 43 5&#10;61 27 21 24 24 37 24 110 0 69 -4 88 -21 110 -26 33 -88 37 -118 7z m88 -40&#10;c35 -64 15 -171 -32 -171 -30 0 -47 35 -47 98 0 75 52 124 79 73z"/>
      <path d="M4600 6880 c0 -123 1 -130 20 -130 18 0 20 7 21 93 l1 92 21 -92 c19&#10;-82 24 -93 43 -93 19 0 25 12 45 93 l24 92 3 -92 c2 -74 6 -93 17 -93 12 0 15&#10;23 15 130 l0 130 -28 0 c-27 0 -29 -3 -46 -77 -10 -43 -22 -84 -26 -92 -4 -8&#10;-16 23 -30 78 -22 88 -23 91 -51 91 l-29 0 0 -130z"/>
      <path d="M4915 6998 c-14 -42 -65 -228 -65 -237 0 -6 9 -11 20 -11 14 0 21 9&#10;26 35 6 33 9 35 45 35 35 0 39 -3 47 -32 6 -24 15 -34 31 -36 17 -3 22 0 19&#10;10 -3 7 -20 66 -38 131 -30 108 -34 117 -56 117 -14 0 -27 -6 -29 -12z m55&#10;-140 c0 -5 -11 -8 -25 -8 -29 0 -29 3 -13 66 l13 46 12 -49 c7 -26 13 -51 13&#10;-55z"/>
      <path d="M5030 7000 c0 -6 16 -42 35 -80 26 -52 35 -82 35 -120 0 -43 3 -50&#10;20 -50 17 0 20 7 20 50 0 38 9 68 35 120 40 80 42 90 17 90 -12 0 -26 -17 -42&#10;-50 -13 -27 -26 -50 -30 -50 -4 0 -17 23 -30 50 -16 33 -30 50 -42 50 -10 0&#10;-18 -5 -18 -10z"/>
      <path d="M4740 6590 c-6 -11 -20 -20 -30 -20 -11 0 -20 -7 -20 -15 0 -9 9 -15&#10;25 -15 25 0 25 0 25 -95 0 -88 1 -95 20 -95 19 0 20 7 20 130 0 108 -3 130&#10;-15 130 -8 0 -19 -9 -25 -20z"/>
      <path d="M4891 6591 c-23 -23 -27 -52 -11 -81 7 -13 5 -29 -5 -54 -35 -82 54&#10;-155 113 -93 24 25 31 94 12 113 -7 7 -7 20 1 42 17 48 -5 86 -53 90 -27 2&#10;-43 -3 -57 -17z m67 -49 c3 -26 0 -32 -17 -32 -24 0 -37 35 -20 56 18 22 34&#10;12 37 -24z m10 -114 c2 -28 -1 -39 -16 -47 -15 -8 -22 -7 -29 2 -31 39 -19 91&#10;20 85 17 -2 23 -11 25 -40z"/>
      <path d="M5073 6584 c-19 -29 -29 -116 -19 -167 13 -69 81 -101 121 -57 26 28&#10;32 103 10 136 -14 22 -23 25 -56 22 -35 -3 -38 -2 -33 17 3 11 13 27 21 35 13&#10;13 17 12 30 -7 20 -30 43 -29 43 0 0 33 -18 47 -62 47 -29 0 -41 -6 -55 -26z&#10;m87 -149 c0 -18 -8 -41 -17 -50 -16 -16 -18 -16 -30 1 -24 33 -27 63 -8 84 26&#10;28 55 10 55 -35z"/>
      <path d="M5273 6602 c-12 -7 -33 -54 -33 -73 0 -22 36 -7 47 20 8 23 15 29 32&#10;24 36 -9 27 -55 -18 -100 -38 -37 -61 -78 -61 -109 0 -11 16 -14 70 -14 56 0&#10;70 3 70 15 0 11 -12 15 -50 15 -27 0 -50 4 -50 8 0 4 23 30 50 57 44 44 50 54&#10;50 91 0 25 -6 49 -16 58 -16 17 -70 21 -91 8z"/>
      <path d="M3670 4335 c-12 -15 -6 -35 12 -35 20 0 133 -62 176 -97 35 -29 46&#10;-33 53 -22 14 22 12 24 -41 72 -77 70 -176 110 -200 82z"/>
      <path d="M1748 10091 c-26 -4 -60 -16 -75 -27 -25 -19 -28 -28 -31 -90 -3 -63&#10;0 -72 22 -93 31 -29 81 -40 181 -41 107 0 151 13 176 53 28 45 22 129 -12 162&#10;-38 39 -140 53 -261 36z m210 -97 c49 -32 15 -60 -87 -69 -133 -12 -194 13&#10;-161 65 19 30 201 34 248 4z"/>
      <path d="M1676 9678 c-26 -22 -29 -31 -34 -116 l-5 -92 197 0 196 0 0 40 0 40&#10;-79 0 -79 0 -4 56 c-6 73 -22 87 -101 92 -56 4 -67 1 -91 -20z m118 -74 c9 -8&#10;16 -26 16 -40 0 -22 -4 -24 -50 -24 -49 0 -50 1 -50 30 0 45 52 67 84 34z"/>
      <path d="M1640 9241 c0 -67 -14 -58 125 -82 39 -6 76 -15 83 -19 8 -3 -36 -17&#10;-97 -30 l-111 -23 0 -54 0 -53 195 0 195 0 0 35 0 35 -132 1 -133 1 105 22&#10;c167 35 160 33 160 65 0 28 0 28 -122 54 l-123 25 123 1 122 1 0 40 0 40 -195&#10;0 -195 0 0 -59z m127 -17 c-3 -3 -12 -4 -19 -1 -8 3 -5 6 6 6 11 1 17 -2 13&#10;-5z"/>
      <path d="M1640 8710 l0 -100 195 0 195 0 0 100 0 100 -35 0 -35 0 0 -60 0 -60&#10;-50 0 -50 0 0 60 0 60 -35 0 -35 0 0 -60 0 -60 -35 0 -35 0 0 60 0 60 -40 0&#10;-40 0 0 -100z"/>
      <path d="M7990 8475 l0 -115 30 0 30 0 0 85 0 85 155 0 155 0 0 30 0 30 -185&#10;0 -185 0 0 -115z"/>
      <path d="M1640 8400 l0 -40 195 0 195 0 0 40 0 40 -195 0 -195 0 0 -40z"/>
      <path d="M1640 8105 l0 -125 40 0 40 0 0 45 0 45 155 0 155 0 0 40 0 40 -155&#10;0 -155 0 0 40 0 40 -40 0 -40 0 0 -125z"/>
      <path d="M7992 8163 c3 -34 6 -37 53 -53 l50 -17 3 -66 3 -66 -56 -17 c-50&#10;-16 -55 -20 -55 -46 0 -16 5 -28 13 -27 6 0 89 26 182 57 l170 57 3 37 3 36&#10;-104 41 c-57 22 -140 54 -186 71 l-82 30 3 -37z m278 -132 c0 -4 -27 -15 -60&#10;-27 l-60 -21 0 48 0 48 60 -21 c33 -12 60 -24 60 -27z"/>
      <path d="M1960 7425 l0 -65 -155 0 -155 0 0 -40 0 -40 190 0 190 0 0 105 0&#10;105 -35 0 -35 0 0 -65z"/>
      <path d="M1960 6955 l0 -65 -45 0 -45 0 0 55 0 55 -35 0 -35 0 0 -55 0 -55&#10;-40 0 -40 0 0 60 0 60 -35 0 -35 0 0 -100 0 -100 190 0 190 0 0 105 0 105 -35&#10;0 -35 0 0 -65z"/>
      <path d="M1680 6339 l0 -41 118 6 117 6 -45 -18 c-25 -11 -78 -31 -117 -46&#10;l-73 -28 0 -39 0 -39 195 0 195 0 0 35 0 34 -112 3 -113 3 113 43 112 43 0 40&#10;0 39 -195 0 -195 0 0 -41z"/>
      <path d="M1680 5830 l0 -100 195 0 195 0 0 100 0 100 -40 0 -40 0 0 -60 0 -60&#10;-45 0 -45 0 0 55 0 55 -35 0 -35 0 0 -55 0 -55 -35 0 -35 0 0 60 0 60 -40 0&#10;-40 0 0 -100z"/>
      <path d="M1750 5249 c-53 -21 -70 -48 -70 -110 0 -52 3 -60 31 -83 63 -53 142&#10;-24 205 75 13 21 33 40 44 44 27 8 52 -12 48 -39 -2 -16 -11 -22 -40 -24 -37&#10;-3 -38 -4 -38 -43 0 -47 15 -57 69 -40 51 15 72 41 79 97 7 66 -18 111 -71&#10;125 -78 21 -104 7 -190 -105 -30 -38 -48 -44 -66 -22 -17 20 -3 44 30 51 28 6&#10;30 10 27 43 -3 40 -17 47 -58 31z"/>
      <path d="M1765 4849 c-67 -17 -85 -42 -85 -119 0 -56 4 -70 23 -88 60 -56 287&#10;-56 344 1 52 51 35 175 -26 199 -37 14 -209 19 -256 7z m229 -95 c20 -19 20&#10;-29 1 -48 -29 -29 -186 -32 -237 -5 -21 11 -23 40 -6 57 19 19 222 16 242 -4z"/>
      <path d="M1734 4416 c-40 -18 -54 -57 -54 -152 l0 -74 195 0 195 0 0 79 c0&#10;145 -20 161 -192 161 -72 -1 -124 -6 -144 -14z m247 -76 c12 -7 19 -21 19 -40&#10;l0 -30 -125 0 -125 0 0 26 c0 15 8 33 18 40 21 16 184 19 213 4z"/>
      <path d="M1680 3970 l0 -40 195 0 195 0 0 40 0 40 -195 0 -195 0 0 -40z"/>
      <path d="M1680 3705 l0 -35 118 -1 117 0 -115 -43 -115 -44 -3 -41 -3 -41 195&#10;0 196 0 0 42 0 41 -117 -6 c-73 -4 -112 -3 -103 3 8 5 61 25 117 46 l103 36 0&#10;39 0 39 -195 0 -195 0 0 -35z"/>
      <path d="M1680 3280 l0 -40 148 0 c162 0 187 -7 180 -50 -4 -33 -28 -38 -190&#10;-39 l-138 -1 0 -40 0 -40 148 0 c179 0 214 8 236 54 31 66 11 161 -39 184 -17&#10;8 -83 12 -185 12 l-160 0 0 -40z"/>
      <path d="M2130 2908 c0 -7 29 -89 64 -183 l64 -170 32 0 33 0 63 170 c35 94&#10;63 176 63 183 1 9 -9 12 -26 10 -24 -3 -31 -11 -47 -56 l-19 -53 -65 3 -65 3&#10;-17 50 c-15 45 -20 50 -48 53 -21 2 -32 -1 -32 -10z m188 -210 l-22 -63 -17&#10;40 c-36 84 -36 85 15 85 l45 0 -21 -62z"/>
      <path d="M2540 2895 l0 -25 110 0 110 0 -110 -136 c-73 -89 -110 -144 -110&#10;-160 l0 -24 145 0 145 0 0 25 0 25 -100 0 c-55 0 -100 2 -100 5 0 3 47 64 105&#10;135 73 89 105 136 105 154 l0 26 -150 0 -150 0 0 -25z"/>
      <path d="M2960 2735 l0 -185 30 0 30 0 0 137 0 137 86 -137 c83 -133 86 -137&#10;120 -137 l34 0 0 185 0 185 -30 0 -30 0 0 -132 0 -132 -86 132 c-82 127 -87&#10;132 -120 132 l-34 0 0 -185z"/>
      <path d="M3391 2868 c11 -29 41 -111 68 -183 48 -130 48 -130 80 -130 l32 0&#10;64 163 c87 221 83 202 43 202 -33 0 -35 -3 -52 -55 l-17 -56 -66 3 -65 3 -20&#10;53 c-18 49 -22 52 -53 52 l-34 0 20 -52z m175 -168 c-11 -32 -24 -56 -27 -52&#10;-5 6 -39 100 -39 109 0 2 20 3 44 3 l43 0 -21 -60z"/>
      <path d="M3818 2863 c2 -32 12 -75 22 -95 9 -21 14 -38 10 -38 -19 0 -31 -68&#10;-20 -110 15 -57 49 -70 180 -70 l100 0 0 185 0 185 -25 0 c-24 0 -25 -2 -25&#10;-75 l0 -75 -74 0 c-47 0 -77 5 -84 13 -6 7 -14 40 -18 75 -7 62 -7 62 -39 62&#10;l-32 0 5 -57z m242 -203 l0 -60 -70 0 c-57 0 -74 4 -90 20 -23 23 -26 49 -7&#10;72 17 22 33 26 105 27 l62 1 0 -60z"/>
      <path d="M4260 2895 l0 -25 110 0 110 0 0 -55 0 -55 -100 0 -100 0 0 -30 0&#10;-30 100 0 100 0 0 -50 0 -50 -110 0 -110 0 0 -25 0 -25 135 0 135 0 0 185 0&#10;185 -135 0 -135 0 0 -25z"/>
      <path d="M745 2158 c-73 -42 -638 -454 -669 -488 -57 -64 -76 -112 -76 -202 0&#10;-105 26 -173 93 -242 109 -111 247 -114 359 -6 l48 47 108 -136 c253 -321 489&#10;-576 682 -735 185 -154 454 -312 626 -370 l80 -26 3094 2 3095 3 90 28 c118&#10;36 325 138 450 222 127 85 304 227 430 347 75 71 545 586 576 630 3 4 38 -9&#10;78 -29 66 -34 83 -38 160 -41 80 -3 89 -1 138 27 96 57 148 163 148 306 0 140&#10;-10 154 -232 337 -348 287 -421 333 -532 333 -131 0 -202 -62 -519 -455 -277&#10;-343 -338 -414 -488 -561 -140 -136 -234 -211 -364 -289 l-83 -50 -2921 0&#10;-2921 1 -160 143 c-221 197 -506 482 -868 868 -334 354 -357 373 -422 336z&#10;m80 -140 c15 -6 113 -118 219 -247 432 -528 709 -810 1008 -1024 l80 -57 2983&#10;2 2982 3 76 39 c215 109 568 466 1028 1041 182 229 214 255 302 255 54 0 64&#10;-6 387 -240 l269 -195 1 -50 c0 -61 -24 -167 -47 -206 -24 -40 -90 -71 -134&#10;-63 -49 8 -149 45 -149 55 0 4 37 47 83 95 l83 88 -4 -38 c-4 -36 -4 -37 24&#10;-30 83 19 116 66 95 136 -20 64 -92 95 -155 67 -14 -7 -54 -46 -89 -88 -35&#10;-42 -142 -161 -237 -266 -716 -788 -1080 -1089 -1419 -1176 -74 -19 -144 -19&#10;-3088 -19 l-3013 0 -107 36 c-136 45 -309 127 -416 197 -236 155 -848 789&#10;-1188 1232 -52 68 -76 83 -134 87 l-40 3 250 181 c138 100 257 184 265 187 25&#10;9 58 8 85 -5z m-605 -558 c27 0 30 3 30 30 0 26 4 30 28 30 23 0 39 -15 95&#10;-87 65 -83 66 -87 49 -106 -9 -11 -39 -32 -67 -48 -117 -68 -219 -11 -232 129&#10;-7 72 12 162 40 199 l22 28 3 -88 3 -87 29 0z"/>
      <path d="M810 1897 c-8 -8 -87 -56 -175 -107 -88 -51 -161 -94 -163 -95 -2 -2&#10;98 -163 114 -184 6 -7 64 21 64 32 0 5 -14 32 -31 60 l-31 50 24 19 c54 43 56&#10;43 90 -12 17 -27 35 -50 40 -50 14 0 58 31 58 41 0 5 -14 28 -31 51 -28 40&#10;-29 43 -12 56 46 35 50 34 83 -18 18 -28 35 -50 40 -50 23 0 71 24 67 34 -5&#10;13 -117 186 -120 186 -2 0 -9 -6 -17 -13z"/>
      <path d="M9276 1777 c-15 -19 -26 -38 -26 -43 0 -13 283 -294 296 -294 6 0 18&#10;17 28 37 l17 37 -37 31 -37 31 18 28 c13 20 24 26 39 23 85 -20 80 -20 104 13&#10;13 17 21 34 19 37 -7 6 -375 133 -387 133 -5 0 -20 -15 -34 -33z m167 -95 c41&#10;-16 45 -20 35 -34 -12 -15 -17 -13 -53 17 -46 40 -46 41 18 17z"/>
      <path d="M945 1616 c-63 -19 -85 -60 -85 -161 0 -68 -3 -85 -19 -99 -22 -20&#10;-56 -14 -65 11 -4 10 4 27 23 47 l30 31 -20 33 c-12 17 -27 32 -34 32 -7 0&#10;-29 -19 -50 -41 -33 -37 -37 -46 -32 -81 7 -49 29 -83 70 -108 55 -34 114 -22&#10;167 35 23 24 25 33 23 115 -2 77 0 90 18 106 20 18 21 18 40 -5 l20 -25 -25&#10;-24 -24 -25 21 -28 c26 -36 36 -36 70 -1 50 53 31 140 -41 182 -38 23 -34 22&#10;-87 6z"/>
      <path d="M9065 1480 c-28 -30 -29 -31 -10 -45 220 -161 310 -225 314 -225 5 1&#10;122 155 129 169 1 4 -12 15 -30 25 l-31 19 -21 -25 c-12 -14 -30 -37 -41 -51&#10;l-20 -27 -125 95 c-69 52 -128 95 -131 95 -3 0 -18 -14 -34 -30z"/>
      <path d="M1142 1398 l-22 -22 32 -33 c17 -18 30 -34 27 -36 -40 -29 -175 -146&#10;-207 -180 l-43 -44 25 -29 c29 -34 18 -40 156 81 56 50 108 94 117 99 10 5 23&#10;0 43 -19 23 -22 32 -25 46 -16 51 28 52 25 -40 125 -48 53 -93 96 -100 96 -6&#10;0 -22 -10 -34 -22z"/>
      <path d="M8897 1288 l-59 -62 128 -122 c70 -68 139 -129 152 -136 23 -12 27&#10;-10 69 37 56 63 76 106 64 138 -15 39 -82 97 -113 97 -21 0 -29 7 -38 35 -14&#10;41 -63 75 -111 75 -28 0 -43 -10 -92 -62z m122 -41 c21 -23 21 -25 4 -46 l-18&#10;-22 -28 29 c-18 18 -25 35 -21 45 9 24 37 21 63 -6z m128 -109 c27 -25 28 -36&#10;8 -62 -15 -19 -16 -19 -55 19 -30 30 -37 42 -29 52 17 20 50 16 76 -9z"/>
      <path d="M1388 1137 c-117 -71 -318 -203 -318 -209 0 -4 16 -19 35 -34 l35&#10;-26 34 26 c42 32 53 32 82 5 l23 -22 -29 -42 -29 -42 33 -32 33 -32 112 177&#10;111 178 -37 38 c-20 21 -40 38 -43 38 -3 0 -22 -10 -42 -23z m-17 -114 c-5&#10;-10 -20 -32 -34 -50 -22 -30 -25 -31 -40 -16 -15 15 -13 19 31 49 56 39 55 39&#10;43 17z"/>
      <path d="M8702 1091 l-73 -68 131 -147 c91 -101 136 -144 145 -139 29 17 144&#10;119 144 129 1 6 -10 21 -23 33 l-25 23 -48 -41 -48 -41 -27 32 -28 32 42 43&#10;42 43 -27 27 -27 27 -41 -39 -40 -40 -25 30 -24 30 47 42 48 41 -24 26 c-14&#10;14 -29 26 -35 26 -6 -1 -44 -32 -84 -69z"/>
      <path d="M1557 900 c-32 -38 -89 -104 -128 -146 -38 -42 -69 -82 -69 -88 0 -7&#10;30 -36 66 -66 78 -62 129 -74 179 -42 40 25 136 135 164 187 37 70 29 89 -78&#10;179 -30 25 -60 46 -65 46 -6 0 -37 -32 -69 -70z m121 -63 c20 -21 20 -24 4&#10;-56 -9 -19 -40 -61 -70 -93 -40 -43 -61 -58 -81 -58 -34 1 -66 24 -55 42 13&#10;22 166 188 174 188 3 0 16 -10 28 -23z"/>
      <path d="M8526 941 l-28 -29 95 -127 c53 -69 94 -132 91 -138 -7 -18 -41 -37&#10;-56 -31 -7 2 -57 61 -110 130 l-97 125 -31 -28 -31 -28 95 -127 c102 -135 126&#10;-158 166 -158 38 1 104 34 128 65 32 41 30 102 -5 142 -16 18 -62 77 -103 132&#10;-41 55 -78 100 -81 101 -3 0 -18 -13 -33 -29z"/>
      <path d="M8229 731 c-26 -8 -139 -80 -139 -89 0 -7 141 -234 177 -284 19 -27&#10;38 -48 41 -48 4 0 20 11 37 24 l29 23 -43 67 c-24 37 -42 68 -40 69 2 2 23 15&#10;45 29 25 16 44 37 48 53 10 38 -11 94 -47 133 -32 33 -56 38 -108 23z m61&#10;-103 c16 -30 9 -52 -23 -72 -17 -11 -31 1 -59 53 -11 20 -10 25 7 37 28 21 57&#10;13 75 -18z"/>
      <path d="M1857 673 c-86 -72 -157 -182 -157 -243 0 -37 6 -48 39 -80 46 -44&#10;78 -54 129 -41 74 20 212 195 212 269 0 41 -37 95 -80 117 -50 26 -93 19 -143&#10;-22z m126 -61 c15 -17 15 -21 -3 -58 -31 -61 -127 -174 -150 -174 -24 0 -51&#10;37 -43 59 10 27 65 103 106 149 43 46 65 52 90 24z"/>
      <path d="M4424 600 c-54 -21 -79 -96 -53 -154 7 -14 45 -46 85 -72 78 -50 90&#10;-65 74 -94 -13 -24 -37 -32 -61 -20 -14 8 -19 21 -19 50 l0 40 -50 0 c-48 0&#10;-50 -1 -50 -29 0 -85 52 -131 148 -131 54 0 66 4 93 28 28 25 32 35 33 85 0&#10;49 -3 60 -29 88 -17 17 -51 41 -76 54 -58 30 -76 51 -62 73 23 37 73 20 73&#10;-24 0 -22 4 -24 45 -24 42 0 45 2 45 28 0 42 -22 75 -60 94 -37 19 -101 23&#10;-136 8z"/>
      <path d="M4738 594 c-41 -22 -51 -49 -56 -155 -6 -132 3 -185 38 -221 27 -26&#10;34 -28 109 -28 l81 0 30 42 c29 40 30 43 30 162 0 133 -14 179 -61 203 -33 17&#10;-138 16 -171 -3z m127 -84 c19 -36 20 -184 2 -219 -21 -42 -43 -49 -69 -23&#10;-21 21 -23 32 -23 131 0 117 9 141 51 141 16 0 28 -10 39 -30z"/>
      <path d="M6708 594 c-48 -25 -58 -60 -58 -194 0 -178 22 -210 145 -210 65 0&#10;74 3 97 27 39 41 48 74 48 176 0 114 -12 158 -51 191 -26 22 -40 26 -92 26&#10;-35 -1 -74 -7 -89 -16z m122 -75 c18 -32 24 -158 11 -206 -20 -73 -81 -80 -97&#10;-11 -13 58 -7 187 10 214 21 30 61 32 76 3z"/>
      <path d="M2350 395 l0 -205 120 0 120 0 0 45 0 45 -70 0 -70 0 0 160 0 160&#10;-50 0 -50 0 0 -205z"/>
      <path d="M2640 395 l0 -205 45 0 45 0 0 205 0 205 -45 0 -45 0 0 -205z"/>
      <path d="M2790 395 l0 -205 73 0 c149 1 188 24 195 119 4 53 2 62 -20 83 -22&#10;23 -23 25 -6 43 12 12 18 34 18 66 0 40 -4 51 -31 73 -28 24 -38 26 -130 26&#10;l-99 0 0 -205z m154 129 c31 -30 9 -84 -35 -84 -16 0 -19 7 -19 50 0 43 3 50&#10;19 50 11 0 27 -7 35 -16z m20 -170 c18 -46 -8 -94 -51 -94 -21 0 -23 4 -23 55&#10;l0 55 34 0 c22 0 36 -6 40 -16z"/>
      <path d="M3120 396 l0 -206 45 0 45 0 0 90 c0 98 4 103 63 81 22 -9 25 -17 31&#10;-90 l7 -81 56 0 c49 0 54 2 47 18 -4 9 -10 49 -13 88 -4 46 -12 79 -23 90 -15&#10;18 -15 20 3 43 28 34 26 102 -5 138 -24 27 -27 28 -140 31 l-116 4 0 -206z&#10;m161 134 c13 -7 19 -21 19 -45 0 -38 -20 -55 -64 -55 -25 0 -26 3 -26 55 0 52&#10;1 55 26 55 14 0 34 -5 45 -10z"/>
      <path d="M3450 395 l0 -205 120 0 120 0 0 45 0 45 -70 0 -70 0 0 45 0 45 65 0&#10;65 0 0 40 0 40 -65 0 -65 0 0 35 0 35 70 0 70 0 0 40 0 40 -120 0 -120 0 0&#10;-205z"/>
      <path d="M3919 483 l61 -117 0 -88 0 -88 45 0 45 0 0 90 c0 89 1 91 55 200 30&#10;60 55 112 55 115 0 3 -20 5 -45 5 l-45 0 -33 -66 -34 -67 -28 67 -28 66 -54 0&#10;-54 0 60 -117z"/>
      <path d="M5030 395 l0 -208 93 5 c50 3 104 11 119 18 32 15 58 65 58 110 0 32&#10;-27 90 -43 90 -4 0 -1 10 7 22 10 13 16 43 16 74 0 77 -17 88 -146 92 l-104 4&#10;0 -207z m141 135 c22 -12 26 -59 7 -78 -7 -7 -22 -12 -35 -12 -21 0 -23 4 -23&#10;50 0 53 10 61 51 40z m23 -176 c10 -26 7 -69 -6 -82 -7 -7 -25 -12 -40 -12&#10;-27 0 -28 1 -28 55 l0 55 34 0 c22 0 36 -6 40 -16z"/>
      <path d="M5350 395 l0 -205 120 0 120 0 0 45 0 45 -75 0 -75 0 0 45 0 45 70 0&#10;70 0 0 40 0 40 -70 0 -70 0 0 35 0 35 75 0 75 0 0 40 0 40 -120 0 -120 0 0&#10;-205z"/>
      <path d="M5640 395 l0 -205 45 0 45 0 0 90 c0 89 0 90 24 90 14 0 36 -4 50&#10;-10 24 -9 26 -15 26 -67 0 -106 -2 -103 111 -103 71 0 101 4 104 13 2 6 9 31&#10;15 55 10 40 12 42 50 42 37 0 40 -2 49 -37 6 -21 11 -46 11 -55 0 -15 9 -18&#10;50 -18 28 0 50 2 50 5 0 6 -69 286 -91 368 l-10 38 -61 -3 -62 -3 -41 -165&#10;c-23 -91 -45 -178 -49 -194 -10 -42 -23 -17 -32 61 -4 38 -14 73 -25 87 -18&#10;23 -18 24 1 37 26 18 36 79 20 119 -20 48 -54 60 -175 60 l-105 0 0 -205z&#10;m168 129 c45 -31 15 -94 -45 -94 l-33 0 0 55 c0 53 1 55 28 55 15 0 38 -7 50&#10;-16z m317 -116 c7 -47 7 -48 -20 -48 -23 0 -26 3 -22 23 3 12 9 39 13 61 8 46&#10;19 33 29 -36z"/>
      <path d="M6310 395 l0 -205 40 0 40 0 0 123 1 122 51 -123 51 -122 48 0 49 0&#10;0 205 0 205 -45 0 -44 0 -3 -122 -3 -123 -49 123 -50 122 -43 0 -43 0 0 -205z"/>
      <path d="M7140 394 l0 -207 113 6 c111 6 112 6 139 38 33 39 41 86 36 213 -3&#10;89 -5 98 -31 123 -26 27 -32 28 -142 31 l-115 4 0 -208z m184 114 c12 -16 16&#10;-47 16 -109 0 -99 -13 -125 -67 -135 l-33 -6 0 136 0 136 34 0 c25 0 39 -7 50&#10;-22z"/>
      <path d="M7490 395 l0 -205 120 0 120 0 0 45 0 45 -75 0 -75 0 0 45 0 45 70 0&#10;70 0 0 40 0 40 -70 0 -70 0 0 35 0 35 75 0 75 0 0 40 0 40 -120 0 -120 0 0&#10;-205z"/>
    </g>
  </g>
</svg>