<?xml version="1.0" encoding="utf-8"?>
<svg viewBox="0 0 460 100" style="enable-background:new 0 0 460 100;" xmlns="http://www.w3.org/2000/svg">
  <defs>
    <style type="text/css">

	.st0{fill:#FFFFFF;}

</style>
  </defs>
  <g>
    <path class="st0" d="M8.2,31.2L19,30.5c0.2,1.7,0.7,3.1,1.4,4c1.2,1.5,2.8,2.2,5,2.2c1.6,0,2.9-0.4,3.7-1.1&#10;&#10;&#9;&#9;c0.9-0.8,1.3-1.6,1.3-2.6c0-0.9-0.4-1.8-1.2-2.5c-0.8-0.7-2.8-1.5-5.8-2.1c-4.9-1.1-8.5-2.6-10.6-4.4c-2.1-1.8-3.2-4.2-3.2-7&#10;&#10;&#9;&#9;c0-1.9,0.5-3.6,1.6-5.3c1.1-1.7,2.7-3,4.9-3.9c2.2-1,5.2-1.4,9-1.4c4.7,0,8.2,0.9,10.7,2.6c2.4,1.7,3.9,4.5,4.4,8.3l-10.6,0.6&#10;&#10;&#9;&#9;c-0.3-1.6-0.9-2.8-1.8-3.6c-0.9-0.7-2.2-1.1-3.7-1.1c-1.3,0-2.3,0.3-3,0.8c-0.7,0.6-1,1.2-1,2c0,0.6,0.3,1.1,0.8,1.6&#10;&#10;&#9;&#9;c0.5,0.5,1.8,0.9,3.8,1.3c4.9,1.1,8.5,2.1,10.6,3.2c2.1,1.1,3.7,2.4,4.7,4c1,1.6,1.5,3.4,1.5,5.4c0,2.3-0.6,4.5-1.9,6.5&#10;&#10;&#9;&#9;c-1.3,2-3.1,3.5-5.4,4.5c-2.3,1-5.3,1.5-8.8,1.5c-6.2,0-10.5-1.2-12.9-3.6S8.6,34.8,8.2,31.2z" style="fill: rgb(0, 0, 0);"/>
    <path class="st0" d="M45.6,25c0-6,1.7-10.6,5-13.9c3.3-3.3,7.9-5,13.9-5c6.1,0,10.8,1.6,14,4.9c3.3,3.3,4.9,7.8,4.9,13.7&#10;&#10;&#9;&#9;c0,4.3-0.7,7.8-2.2,10.5c-1.4,2.7-3.5,4.9-6.2,6.4c-2.7,1.5-6.1,2.3-10.1,2.3c-4.1,0-7.5-0.7-10.2-2c-2.7-1.3-4.9-3.4-6.6-6.2&#10;&#10;&#9;&#9;C46.5,32.8,45.6,29.3,45.6,25z M56.9,25.1c0,3.7,0.7,6.3,2.1,7.9c1.4,1.6,3.2,2.4,5.6,2.4c2.4,0,4.3-0.8,5.6-2.4&#10;&#10;&#9;&#9;c1.3-1.6,2-4.4,2-8.5c0-3.4-0.7-5.9-2.1-7.5c-1.4-1.6-3.3-2.4-5.6-2.4c-2.3,0-4.1,0.8-5.5,2.4C57.6,18.7,56.9,21.3,56.9,25.1z" style="fill: rgb(0, 0, 0);"/>
    <path class="st0" d="M110.2,37.2H97.4l-1.8,6H84.1L97.8,6.7h12.3l13.7,36.5h-11.8L110.2,37.2z M107.9,29.3l-4-13.1l-4,13.1H107.9z" style="fill: rgb(0, 0, 0);"/>
    <path class="st0" d="M127.4,6.7h18.8c4.1,0,7.1,1,9.2,2.9s3.1,4.7,3.1,8.3c0,3.7-1.1,6.6-3.3,8.6c-2.2,2.1-5.6,3.1-10.1,3.1h-6.2&#10;&#10;&#9;&#9;v13.5h-11.3V6.7z M138.7,22.3h2.8c2.2,0,3.7-0.4,4.6-1.1c0.9-0.8,1.3-1.7,1.3-2.9c0-1.1-0.4-2.1-1.1-2.9c-0.8-0.8-2.2-1.2-4.3-1.2&#10;&#10;&#9;&#9;h-3.2V22.3z" style="fill: rgb(0, 0, 0);"/>
    <path class="st0" d="M182.4,37.2h-12.8l-1.8,6h-11.5L170,6.7h12.3L196,43.2h-11.8L182.4,37.2z M180.1,29.3l-4-13.1l-4,13.1H180.1z" style="fill: rgb(0, 0, 0);"/>
    <path class="st0" d="M199.6,6.7h18.8c4.1,0,7.1,1,9.2,2.9s3.1,4.7,3.1,8.3c0,3.7-1.1,6.6-3.3,8.6c-2.2,2.1-5.6,3.1-10.1,3.1h-6.2&#10;&#10;&#9;&#9;v13.5h-11.3V6.7z M210.9,22.3h2.8c2.2,0,3.7-0.4,4.6-1.1c0.9-0.8,1.3-1.7,1.3-2.9c0-1.1-0.4-2.1-1.1-2.9s-2.2-1.2-4.3-1.2h-3.2&#10;&#10;&#9;&#9;V22.3z" style="fill: rgb(0, 0, 0);"/>
    <path class="st0" d="M7.1,63.5l2.4-0.3c0.3,1.9,1.2,2.9,2.7,2.9c0.8,0,1.3-0.2,1.8-0.6c0.4-0.4,0.6-0.9,0.6-1.5&#10;&#10;&#9;&#9;c0-0.3-0.1-0.6-0.2-0.9s-0.4-0.4-0.7-0.6s-1.1-0.4-2.2-0.8c-1.1-0.3-1.8-0.7-2.3-1c-0.5-0.4-0.9-0.9-1.2-1.5&#10;&#10;&#9;&#9;c-0.3-0.6-0.4-1.3-0.4-2c0-0.8,0.2-1.6,0.6-2.2C8.5,54.5,9,54,9.7,53.7c0.7-0.3,1.5-0.5,2.4-0.5c1.4,0,2.6,0.4,3.4,1.2&#10;&#10;&#9;&#9;s1.2,1.9,1.3,3.4l-2.5,0.1c-0.1-0.8-0.3-1.4-0.7-1.7s-0.9-0.5-1.5-0.5s-1.2,0.1-1.5,0.4c-0.4,0.3-0.5,0.6-0.5,1&#10;&#10;&#9;&#9;c0,0.4,0.2,0.8,0.5,1c0.3,0.3,1.1,0.6,2.3,0.9c1.3,0.4,2.2,0.7,2.7,1.1c0.6,0.4,1,0.9,1.3,1.5c0.3,0.6,0.4,1.4,0.4,2.3&#10;&#10;&#9;&#9;c0,1.3-0.4,2.4-1.2,3.3c-0.8,0.9-2.1,1.3-3.8,1.3C9.1,68.7,7.4,67,7.1,63.5z" style="fill: rgb(0, 0, 0);"/>
    <path class="st0" d="M19.1,68.4v-15h2.5v15H19.1z" style="fill: rgb(0, 0, 0);"/>
    <path class="st0" d="M23.4,63.5l2.4-0.3c0.3,1.9,1.2,2.9,2.7,2.9c0.8,0,1.3-0.2,1.8-0.6c0.4-0.4,0.6-0.9,0.6-1.5&#10;&#10;&#9;&#9;c0-0.3-0.1-0.6-0.2-0.9s-0.4-0.4-0.7-0.6s-1.1-0.4-2.2-0.8c-1.1-0.3-1.8-0.7-2.3-1c-0.5-0.4-0.9-0.9-1.2-1.5&#10;&#10;&#9;&#9;c-0.3-0.6-0.4-1.3-0.4-2c0-0.8,0.2-1.6,0.6-2.2c0.4-0.7,0.9-1.2,1.5-1.5c0.7-0.3,1.5-0.5,2.4-0.5c1.4,0,2.6,0.4,3.4,1.2&#10;&#10;&#9;&#9;s1.2,1.9,1.3,3.4l-2.5,0.1c-0.1-0.8-0.3-1.4-0.7-1.7s-0.9-0.5-1.5-0.5s-1.2,0.1-1.5,0.4c-0.4,0.3-0.5,0.6-0.5,1&#10;&#10;&#9;&#9;c0,0.4,0.2,0.8,0.5,1c0.3,0.3,1.1,0.6,2.3,0.9c1.3,0.4,2.2,0.7,2.7,1.1c0.6,0.4,1,0.9,1.3,1.5c0.3,0.6,0.4,1.4,0.4,2.3&#10;&#10;&#9;&#9;c0,1.3-0.4,2.4-1.2,3.3c-0.8,0.9-2.1,1.3-3.8,1.3C25.4,68.7,23.7,67,23.4,63.5z" style="fill: rgb(0, 0, 0);"/>
    <path class="st0" d="M38.3,68.4V55.9h-3.7v-2.5h9.8v2.5h-3.7v12.5H38.3z" style="fill: rgb(0, 0, 0);"/>
    <path class="st0" d="M46,68.4v-15h9.1v2.5h-6.7v3.3h6.2v2.5h-6.2v4.1h6.9v2.5H46z" style="fill: rgb(0, 0, 0);"/>
    <path class="st0" d="M57.5,68.4v-15h3.7l2.2,10.3l2.2-10.3h3.7v15h-2.3V56.6l-2.5,11.8h-2.4l-2.4-11.8v11.8H57.5z" style="fill: rgb(0, 0, 0);"/>
    <path class="st0" d="M83,68.4h-2.7L79.2,65h-4.9l-1,3.4h-2.6l4.8-15H78L83,68.4z M78.4,62.5l-1.7-5.6L75,62.5H78.4z" style="fill: rgb(0, 0, 0);"/>
    <path class="st0" d="M87.9,61c0-1.8,0.3-3.3,0.8-4.4c0.5-1.2,1.2-2,2.1-2.6s1.9-0.9,3.1-0.9c1.8,0,3.2,0.7,4.3,2s1.7,3.3,1.7,5.8&#10;&#10;&#9;&#9;c0,2.5-0.6,4.5-1.8,5.9c-1,1.3-2.4,1.9-4.2,1.9c-1.8,0-3.2-0.6-4.2-1.9C88.5,65.4,87.9,63.5,87.9,61z M90.5,60.9c0,1.7,0.3,3,1,3.9&#10;&#10;&#9;&#9;s1.5,1.3,2.4,1.3c1,0,1.8-0.4,2.4-1.3c0.6-0.9,1-2.2,1-4c0-1.7-0.3-3-0.9-3.9s-1.4-1.3-2.5-1.3c-1,0-1.8,0.4-2.5,1.3&#10;&#10;&#9;&#9;S90.5,59.1,90.5,60.9z" style="fill: rgb(0, 0, 0);"/>
    <path class="st0" d="M101.8,68.4v-15h4c1.5,0,2.5,0.1,2.9,0.2c0.7,0.2,1.3,0.7,1.8,1.5c0.5,0.8,0.7,1.7,0.7,2.9&#10;&#10;&#9;&#9;c0,1.1-0.2,2-0.6,2.7c-0.4,0.7-0.9,1.3-1.5,1.5c-0.6,0.3-1.7,0.4-3.2,0.4h-1.6v5.7H101.8z M104.3,55.9v4.3h1.4&#10;&#10;&#9;&#9;c0.9,0,1.6-0.1,1.9-0.2c0.3-0.1,0.6-0.4,0.8-0.7c0.2-0.3,0.3-0.8,0.3-1.2c0-0.5-0.1-0.9-0.3-1.3c-0.2-0.3-0.5-0.6-0.8-0.7&#10;&#10;&#9;&#9;c-0.3-0.1-1-0.2-2-0.2H104.3z" style="fill: rgb(0, 0, 0);"/>
    <path class="st0" d="M113.3,68.4v-15h9.1v2.5h-6.7v3.3h6.2v2.5h-6.2v4.1h6.9v2.5H113.3z" style="fill: rgb(0, 0, 0);"/>
    <path class="st0" d="M124.8,68.4v-15h5.2c1.3,0,2.3,0.1,2.9,0.4s1,0.7,1.4,1.4c0.4,0.7,0.6,1.5,0.6,2.4c0,1.2-0.3,2.1-0.8,2.8&#10;&#10;&#9;&#9;c-0.6,0.7-1.4,1.2-2.4,1.4c0.5,0.4,1,0.8,1.3,1.3s0.8,1.3,1.4,2.4l1.5,2.9h-3l-1.8-3.3c-0.6-1.2-1.1-1.9-1.3-2.2&#10;&#10;&#9;&#9;c-0.2-0.3-0.5-0.5-0.7-0.6c-0.3-0.1-0.7-0.2-1.3-0.2h-0.5v6.3H124.8z M127.3,59.8h1.8c1.1,0,1.8,0,2.2-0.1s0.6-0.3,0.7-0.6&#10;&#10;&#9;&#9;s0.3-0.7,0.3-1.2c0-0.5-0.1-0.9-0.3-1.2s-0.5-0.5-0.8-0.6c-0.2-0.1-0.9-0.1-2-0.1h-1.9V59.8z" style="fill: rgb(0, 0, 0);"/>
    <path class="st0" d="M148.4,68.4h-2.7l-1.1-3.4h-4.9l-1,3.4H136l4.8-15h2.6L148.4,68.4z M143.8,62.5l-1.7-5.6l-1.7,5.6H143.8z" style="fill: rgb(0, 0, 0);"/>
    <path class="st0" d="M149.6,53.4h4.5c1.1,0,2,0.1,2.6,0.4c0.6,0.3,1.1,0.7,1.6,1.3s0.9,1.4,1.2,2.4c0.3,1,0.4,2.2,0.4,3.6&#10;&#10;&#9;&#9;c0,1.3-0.1,2.4-0.4,3.4c-0.3,1-0.7,1.7-1.1,2.3s-1,1-1.6,1.3c-0.6,0.3-1.5,0.4-2.5,0.4h-4.7V53.4z M152.1,55.9v9.9h1.9&#10;&#10;&#9;&#9;c0.8,0,1.4-0.1,1.7-0.2c0.4-0.2,0.7-0.4,0.9-0.7c0.2-0.3,0.4-0.8,0.6-1.4s0.2-1.5,0.2-2.6c0-1.1-0.1-2-0.2-2.6&#10;&#10;&#9;&#9;c-0.2-0.6-0.4-1.1-0.7-1.5c-0.3-0.4-0.7-0.6-1.2-0.7c-0.3-0.1-1-0.1-2-0.1H152.1z" style="fill: rgb(0, 0, 0);"/>
    <path class="st0" d="M161.6,61c0-1.8,0.3-3.3,0.8-4.4c0.5-1.2,1.2-2,2.1-2.6s1.9-0.9,3.1-0.9c1.8,0,3.2,0.7,4.3,2s1.7,3.3,1.7,5.8&#10;&#10;&#9;&#9;c0,2.5-0.6,4.5-1.8,5.9c-1,1.3-2.4,1.9-4.2,1.9c-1.8,0-3.2-0.6-4.2-1.9C162.2,65.4,161.6,63.5,161.6,61z M164.1,60.9&#10;&#10;&#9;&#9;c0,1.7,0.3,3,1,3.9s1.5,1.3,2.4,1.3c1,0,1.8-0.4,2.4-1.3c0.6-0.9,1-2.2,1-4c0-1.7-0.3-3-0.9-3.9s-1.4-1.3-2.5-1.3&#10;&#10;&#9;&#9;c-1,0-1.8,0.4-2.5,1.3S164.1,59.1,164.1,60.9z" style="fill: rgb(0, 0, 0);"/>
    <path class="st0" d="M175.5,68.4v-15h5.2c1.3,0,2.3,0.1,2.9,0.4s1,0.7,1.4,1.4c0.4,0.7,0.6,1.5,0.6,2.4c0,1.2-0.3,2.1-0.8,2.8&#10;&#10;&#9;&#9;c-0.6,0.7-1.4,1.2-2.4,1.4c0.5,0.4,1,0.8,1.3,1.3s0.8,1.3,1.4,2.4l1.5,2.9h-3l-1.8-3.3c-0.6-1.2-1.1-1.9-1.3-2.2&#10;&#10;&#9;&#9;c-0.2-0.3-0.5-0.5-0.7-0.6c-0.3-0.1-0.7-0.2-1.3-0.2H178v6.3H175.5z M178,59.8h1.8c1.1,0,1.8,0,2.2-0.1s0.6-0.3,0.7-0.6&#10;&#10;&#9;&#9;s0.3-0.7,0.3-1.2c0-0.5-0.1-0.9-0.3-1.2s-0.5-0.5-0.8-0.6c-0.2-0.1-0.9-0.1-2-0.1H178V59.8z" style="fill: rgb(0, 0, 0);"/>
    <path class="st0" d="M192.7,53.4h4.5c1.1,0,2,0.1,2.6,0.4c0.6,0.3,1.1,0.7,1.6,1.3s0.9,1.4,1.2,2.4c0.3,1,0.4,2.2,0.4,3.6&#10;&#10;&#9;&#9;c0,1.3-0.1,2.4-0.4,3.4c-0.3,1-0.7,1.7-1.1,2.3s-1,1-1.6,1.3c-0.6,0.3-1.5,0.4-2.5,0.4h-4.7V53.4z M195.2,55.9v9.9h1.9&#10;&#10;&#9;&#9;c0.8,0,1.4-0.1,1.7-0.2c0.4-0.2,0.7-0.4,0.9-0.7c0.2-0.3,0.4-0.8,0.6-1.4s0.2-1.5,0.2-2.6c0-1.1-0.1-2-0.2-2.6&#10;&#10;&#9;&#9;c-0.2-0.6-0.4-1.1-0.7-1.5c-0.3-0.4-0.7-0.6-1.2-0.7c-0.3-0.1-1-0.1-2-0.1H195.2z" style="fill: rgb(0, 0, 0);"/>
    <path class="st0" d="M205.1,68.4v-15h9.1v2.5h-6.7v3.3h6.2v2.5h-6.2v4.1h6.9v2.5H205.1z" style="fill: rgb(0, 0, 0);"/>
    <path class="st0" d="M221.5,68.4V53.5h2.5v12.4h6.2v2.5H221.5z" style="fill: rgb(0, 0, 0);"/>
    <path class="st0" d="M231.4,61c0-1.8,0.3-3.3,0.8-4.4c0.5-1.2,1.2-2,2.1-2.6s1.9-0.9,3.1-0.9c1.8,0,3.2,0.7,4.3,2&#10;&#10;&#9;&#9;c1.1,1.3,1.7,3.3,1.7,5.8c0,2.5-0.6,4.5-1.8,5.9c-1,1.3-2.4,1.9-4.2,1.9c-1.8,0-3.2-0.6-4.2-1.9C232,65.4,231.4,63.5,231.4,61z&#10;&#10;&#9;&#9; M234,60.9c0,1.7,0.3,3,1,3.9s1.5,1.3,2.4,1.3c1,0,1.8-0.4,2.4-1.3c0.6-0.9,1-2.2,1-4c0-1.7-0.3-3-0.9-3.9&#10;&#10;&#9;&#9;c-0.6-0.8-1.4-1.3-2.5-1.3c-1,0-1.8,0.4-2.5,1.3S234,59.1,234,60.9z" style="fill: rgb(0, 0, 0);"/>
    <path class="st0" d="M244.7,63.5l2.4-0.3c0.3,1.9,1.2,2.9,2.7,2.9c0.8,0,1.3-0.2,1.8-0.6c0.4-0.4,0.6-0.9,0.6-1.5&#10;&#10;&#9;&#9;c0-0.3-0.1-0.6-0.2-0.9s-0.4-0.4-0.7-0.6c-0.3-0.2-1.1-0.4-2.2-0.8c-1.1-0.3-1.8-0.7-2.3-1c-0.5-0.4-0.9-0.9-1.2-1.5&#10;&#10;&#9;&#9;c-0.3-0.6-0.4-1.3-0.4-2c0-0.8,0.2-1.6,0.6-2.2c0.4-0.7,0.9-1.2,1.5-1.5c0.7-0.3,1.5-0.5,2.4-0.5c1.4,0,2.6,0.4,3.4,1.2&#10;&#10;&#9;&#9;s1.2,1.9,1.3,3.4l-2.5,0.1c-0.1-0.8-0.3-1.4-0.7-1.7s-0.9-0.5-1.5-0.5s-1.2,0.1-1.5,0.4c-0.4,0.3-0.5,0.6-0.5,1&#10;&#10;&#9;&#9;c0,0.4,0.2,0.8,0.5,1c0.3,0.3,1.1,0.6,2.3,0.9c1.3,0.4,2.2,0.7,2.7,1.1s1,0.9,1.3,1.5c0.3,0.6,0.4,1.4,0.4,2.3&#10;&#10;&#9;&#9;c0,1.3-0.4,2.4-1.2,3.3c-0.8,0.9-2.1,1.3-3.8,1.3C246.7,68.7,245,67,244.7,63.5z" style="fill: rgb(0, 0, 0);"/>
    <path class="st0" d="M261,63.5l2.4-0.3c0.3,1.9,1.2,2.9,2.7,2.9c0.8,0,1.3-0.2,1.8-0.6c0.4-0.4,0.6-0.9,0.6-1.5&#10;&#10;&#9;&#9;c0-0.3-0.1-0.6-0.2-0.9s-0.4-0.4-0.7-0.6c-0.3-0.2-1.1-0.4-2.2-0.8c-1.1-0.3-1.8-0.7-2.3-1c-0.5-0.4-0.9-0.9-1.2-1.5&#10;&#10;&#9;&#9;c-0.3-0.6-0.4-1.3-0.4-2c0-0.8,0.2-1.6,0.6-2.2c0.4-0.7,0.9-1.2,1.5-1.5c0.7-0.3,1.5-0.5,2.4-0.5c1.4,0,2.6,0.4,3.4,1.2&#10;&#10;&#9;&#9;s1.2,1.9,1.3,3.4l-2.5,0.1c-0.1-0.8-0.3-1.4-0.7-1.7s-0.9-0.5-1.5-0.5s-1.2,0.1-1.5,0.4c-0.4,0.3-0.5,0.6-0.5,1&#10;&#10;&#9;&#9;c0,0.4,0.2,0.8,0.5,1c0.3,0.3,1.1,0.6,2.3,0.9c1.3,0.4,2.2,0.7,2.7,1.1s1,0.9,1.3,1.5c0.3,0.6,0.4,1.4,0.4,2.3&#10;&#10;&#9;&#9;c0,1.3-0.4,2.4-1.2,3.3c-0.8,0.9-2.1,1.3-3.8,1.3C263,68.7,261.3,67,261,63.5z" style="fill: rgb(0, 0, 0);"/>
    <path class="st0" d="M273.1,68.4v-15h9.1v2.5h-6.7v3.3h6.2v2.5h-6.2v4.1h6.9v2.5H273.1z" style="fill: rgb(0, 0, 0);"/>
    <path class="st0" d="M284.6,68.4v-15h5.2c1.3,0,2.3,0.1,2.9,0.4s1,0.7,1.4,1.4c0.4,0.7,0.6,1.5,0.6,2.4c0,1.2-0.3,2.1-0.8,2.8&#10;&#10;&#9;&#9;c-0.6,0.7-1.4,1.2-2.4,1.4c0.5,0.4,1,0.8,1.3,1.3s0.8,1.3,1.4,2.4l1.5,2.9h-3l-1.8-3.3c-0.6-1.2-1.1-1.9-1.3-2.2&#10;&#10;&#9;&#9;c-0.2-0.3-0.5-0.5-0.7-0.6c-0.3-0.1-0.7-0.2-1.2-0.2h-0.5v6.3H284.6z M287.1,59.8h1.8c1.1,0,1.8,0,2.2-0.1c0.3-0.1,0.6-0.3,0.7-0.6&#10;&#10;&#9;&#9;s0.3-0.7,0.3-1.2c0-0.5-0.1-0.9-0.3-1.2s-0.5-0.5-0.8-0.6c-0.2-0.1-0.9-0.1-2-0.1h-1.9V59.8z" style="fill: rgb(0, 0, 0);"/>
    <path class="st0" d="M299.9,68.4l-4.4-15h2.7l3.1,11.1l3-11.1h2.6l-4.4,15H299.9z" style="fill: rgb(0, 0, 0);"/>
    <path class="st0" d="M308.1,68.4v-15h2.5v15H308.1z" style="fill: rgb(0, 0, 0);"/>
    <path class="st0" d="M320.9,62.9l2.4,0.9c-0.4,1.7-1,2.9-1.9,3.7s-2,1.2-3.2,1.2c-1.6,0-2.9-0.6-3.9-1.9c-1.1-1.4-1.7-3.4-1.7-5.8&#10;&#10;&#9;&#9;c0-2.6,0.6-4.6,1.7-6c1-1.3,2.4-1.9,4.1-1.9c1.4,0,2.5,0.5,3.5,1.4c0.7,0.7,1.1,1.7,1.5,3l-2.5,0.7c-0.2-0.8-0.5-1.4-0.9-1.9&#10;&#10;&#9;&#9;s-1-0.7-1.7-0.7c-0.9,0-1.7,0.4-2.2,1.2s-0.9,2.1-0.9,3.9c0,1.9,0.3,3.2,0.8,4s1.3,1.2,2.2,1.2c0.7,0,1.2-0.3,1.7-0.8&#10;&#10;&#9;&#9;C320.3,64.8,320.7,64,320.9,62.9z" style="fill: rgb(0, 0, 0);"/>
    <path class="st0" d="M325.3,68.4v-15h2.5v15H325.3z" style="fill: rgb(0, 0, 0);"/>
    <path class="st0" d="M329.7,61c0-1.8,0.3-3.3,0.8-4.4c0.5-1.2,1.2-2,2.1-2.6s1.9-0.9,3.1-0.9c1.8,0,3.2,0.7,4.3,2&#10;&#10;&#9;&#9;c1.1,1.3,1.7,3.3,1.7,5.8c0,2.5-0.6,4.5-1.8,5.9c-1,1.3-2.4,1.9-4.2,1.9c-1.8,0-3.2-0.6-4.2-1.9C330.3,65.4,329.7,63.5,329.7,61z&#10;&#10;&#9;&#9; M332.2,60.9c0,1.7,0.3,3,1,3.9s1.5,1.3,2.4,1.3c1,0,1.8-0.4,2.4-1.3c0.6-0.9,1-2.2,1-4c0-1.7-0.3-3-0.9-3.9&#10;&#10;&#9;&#9;c-0.6-0.8-1.4-1.3-2.5-1.3c-1,0-1.8,0.4-2.5,1.3S332.2,59.1,332.2,60.9z" style="fill: rgb(0, 0, 0);"/>
    <path class="st0" d="M343,63.5l2.4-0.3c0.3,1.9,1.2,2.9,2.7,2.9c0.8,0,1.3-0.2,1.8-0.6c0.4-0.4,0.6-0.9,0.6-1.5&#10;&#10;&#9;&#9;c0-0.3-0.1-0.6-0.2-0.9s-0.4-0.4-0.7-0.6c-0.3-0.2-1.1-0.4-2.2-0.8c-1.1-0.3-1.8-0.7-2.3-1c-0.5-0.4-0.9-0.9-1.2-1.5&#10;&#10;&#9;&#9;c-0.3-0.6-0.4-1.3-0.4-2c0-0.8,0.2-1.6,0.6-2.2c0.4-0.7,0.9-1.2,1.5-1.5c0.7-0.3,1.5-0.5,2.4-0.5c1.4,0,2.6,0.4,3.4,1.2&#10;&#10;&#9;&#9;s1.2,1.9,1.3,3.4l-2.5,0.1c-0.1-0.8-0.3-1.4-0.7-1.7s-0.9-0.5-1.5-0.5s-1.2,0.1-1.5,0.4c-0.4,0.3-0.5,0.6-0.5,1&#10;&#10;&#9;&#9;c0,0.4,0.2,0.8,0.5,1c0.3,0.3,1.1,0.6,2.3,0.9c1.3,0.4,2.2,0.7,2.7,1.1s1,0.9,1.3,1.5c0.3,0.6,0.4,1.4,0.4,2.3&#10;&#10;&#9;&#9;c0,1.3-0.4,2.4-1.2,3.3c-0.8,0.9-2.1,1.3-3.8,1.3C345,68.7,343.3,67,343,63.5z" style="fill: rgb(0, 0, 0);"/>
    <path class="st0" d="M7.7,78.6h4.5c1.1,0,2,0.1,2.6,0.4c0.6,0.3,1.1,0.7,1.6,1.3s0.9,1.4,1.2,2.4c0.3,1,0.4,2.2,0.4,3.6&#10;&#10;&#9;&#9;c0,1.3-0.1,2.4-0.4,3.4c-0.3,1-0.7,1.7-1.1,2.3s-1,1-1.6,1.3c-0.6,0.3-1.5,0.4-2.5,0.4H7.7V78.6z M10.2,81.1v9.9h1.9&#10;&#10;&#9;&#9;c0.8,0,1.4-0.1,1.7-0.2c0.4-0.2,0.7-0.4,0.9-0.7c0.2-0.3,0.4-0.8,0.6-1.4s0.2-1.5,0.2-2.6c0-1.1-0.1-2-0.2-2.6&#10;&#10;&#9;&#9;c-0.2-0.6-0.4-1.1-0.7-1.5c-0.3-0.4-0.7-0.6-1.2-0.7c-0.3-0.1-1-0.1-2-0.1H10.2z" style="fill: rgb(0, 0, 0);"/>
    <path class="st0" d="M20.2,93.6v-15h9.1v2.5h-6.7v3.3h6.2V87h-6.2v4.1h6.9v2.5H20.2z" style="fill: rgb(0, 0, 0);"/>
    <path class="st0" d="M46.9,93.6h-2.7l-1.1-3.4h-4.9l-1,3.4h-2.6l4.8-15H42L46.9,93.6z M42.4,87.7l-1.7-5.6L39,87.7H42.4z" style="fill: rgb(0, 0, 0);"/>
    <path class="st0" d="M54,88.1v-2.5h5.4v6c-0.5,0.6-1.3,1.2-2.3,1.6s-2,0.7-3,0.7c-1.2,0-2.3-0.3-3.2-0.9s-1.7-1.5-2.2-2.7&#10;&#10;&#9;&#9;c-0.5-1.2-0.8-2.6-0.8-4.2c0-1.7,0.3-3.1,0.8-4.2c0.5-1.2,1.3-2.1,2.1-2.6s1.9-0.9,3.2-0.9c1.5,0,2.6,0.4,3.5,1.1&#10;&#10;&#9;&#9;c0.9,0.7,1.5,1.8,1.7,3.3l-2.5,0.6c-0.2-0.8-0.5-1.4-1-1.8s-1.1-0.6-1.8-0.6c-1.1,0-1.9,0.4-2.6,1.2c-0.7,0.8-1,2.1-1,3.8&#10;&#10;&#9;&#9;c0,1.8,0.4,3.2,1.1,4.1c0.6,0.8,1.4,1.2,2.5,1.2c0.5,0,1-0.1,1.5-0.3c0.5-0.2,1-0.5,1.4-0.9v-1.9H54z" style="fill: rgb(0, 0, 0);"/>
    <path class="st0" d="M61.6,78.6h2.5v8.1c0,1.3,0,2.1,0.1,2.5c0.1,0.7,0.4,1.2,0.8,1.5s1,0.5,1.6,0.5c0.6,0,1-0.1,1.4-0.4&#10;&#10;&#9;&#9;c0.4-0.3,0.6-0.6,0.7-1.1c0.1-0.5,0.2-1.4,0.2-2.9v-8.3h2.5v7.9c0,2-0.1,3.5-0.3,4.4c-0.2,0.9-0.7,1.6-1.5,2.2&#10;&#10;&#9;&#9;c-0.8,0.6-1.8,0.8-3,0.8c-1.3,0-2.3-0.2-3-0.7c-0.7-0.5-1.2-1.1-1.6-1.9c-0.3-0.8-0.5-2.4-0.5-4.6V78.6z" style="fill: rgb(0, 0, 0);"/>
    <path class="st0" d="M85.2,93.6h-2.7l-1.1-3.4h-4.9l-1,3.4h-2.6l4.8-15h2.6L85.2,93.6z M80.6,87.7l-1.7-5.6l-1.7,5.6H80.6z" style="fill: rgb(0, 0, 0);"/>
    <path class="st0" d="M90.7,93.6v-15h4c1.5,0,2.5,0.1,2.9,0.2c0.7,0.2,1.3,0.7,1.8,1.5c0.5,0.8,0.7,1.7,0.7,2.9c0,1.1-0.2,2-0.6,2.7&#10;&#10;&#9;&#9;c-0.4,0.7-0.9,1.3-1.5,1.5c-0.6,0.3-1.7,0.4-3.2,0.4h-1.6v5.7H90.7z M93.1,81.1v4.3h1.4c0.9,0,1.6-0.1,1.9-0.2&#10;&#10;&#9;&#9;c0.3-0.1,0.6-0.4,0.8-0.7c0.2-0.3,0.3-0.8,0.3-1.2c0-0.5-0.1-0.9-0.3-1.3c-0.2-0.3-0.5-0.6-0.8-0.7c-0.3-0.1-1-0.2-2-0.2H93.1z" style="fill: rgb(0, 0, 0);"/>
    <path class="st0" d="M101.6,86.2c0-1.8,0.3-3.3,0.8-4.4c0.5-1.2,1.2-2,2.1-2.6s1.9-0.9,3.1-0.9c1.8,0,3.2,0.7,4.3,2&#10;&#10;&#9;&#9;s1.7,3.3,1.7,5.8c0,2.5-0.6,4.5-1.8,5.9c-1,1.3-2.4,1.9-4.2,1.9c-1.8,0-3.2-0.6-4.2-1.9C102.2,90.6,101.6,88.7,101.6,86.2z&#10;&#10;&#9;&#9; M104.2,86.1c0,1.7,0.3,3,1,3.9s1.5,1.3,2.4,1.3c1,0,1.8-0.4,2.4-1.3c0.6-0.9,1-2.2,1-4c0-1.7-0.3-3-0.9-3.9s-1.4-1.3-2.5-1.3&#10;&#10;&#9;&#9;c-1,0-1.8,0.4-2.5,1.3S104.2,84.3,104.2,86.1z" style="fill: rgb(0, 0, 0);"/>
    <path class="st0" d="M118.3,93.6V81.1h-3.7v-2.5h9.8v2.5h-3.7v12.5H118.3z" style="fill: rgb(0, 0, 0);"/>
    <path class="st0" d="M135.9,93.6h-2.7l-1.1-3.4h-4.9l-1,3.4h-2.6l4.8-15h2.6L135.9,93.6z M131.3,87.7l-1.7-5.6l-1.7,5.6H131.3z" style="fill: rgb(0, 0, 0);"/>
    <path class="st0" d="M137.2,78.6h4.9c1.3,0,2.3,0.1,2.8,0.4s1,0.7,1.4,1.3c0.4,0.6,0.6,1.3,0.6,2.1c0,0.7-0.2,1.4-0.5,2&#10;&#10;&#9;&#9;c-0.3,0.6-0.7,1-1.3,1.3c0.7,0.3,1.3,0.7,1.7,1.3s0.6,1.4,0.6,2.3c0,1.1-0.3,2-0.8,2.8s-1.1,1.2-1.9,1.4c-0.5,0.1-1.7,0.2-3.5,0.2&#10;&#10;&#9;&#9;h-4.2V78.6z M139.7,81.1v3.5h1.6c1,0,1.6,0,1.8-0.1c0.4-0.1,0.8-0.2,1-0.5s0.4-0.7,0.4-1.2c0-0.4-0.1-0.8-0.3-1.1&#10;&#10;&#9;&#9;c-0.2-0.3-0.4-0.4-0.7-0.5c-0.3-0.1-1.1-0.1-2.4-0.1H139.7z M139.7,87.1v4h2.3c1,0,1.7-0.1,2-0.2c0.3-0.1,0.5-0.3,0.7-0.6&#10;&#10;&#9;&#9;c0.2-0.3,0.3-0.7,0.3-1.2c0-0.5-0.1-0.9-0.3-1.2c-0.2-0.3-0.5-0.5-0.8-0.7c-0.3-0.1-1.1-0.2-2.1-0.2H139.7z" style="fill: rgb(0, 0, 0);"/>
    <path class="st0" d="M149.7,93.6V78.7h2.5v12.4h6.2v2.5H149.7z" style="fill: rgb(0, 0, 0);"/>
    <path class="st0" d="M160.2,93.6v-15h9.1v2.5h-6.7v3.3h6.2V87h-6.2v4.1h6.9v2.5H160.2z" style="fill: rgb(0, 0, 0);"/>
    <path class="st0" d="M179.4,93.6v-6.3l-4.5-8.7h2.9l2.9,5.9l2.9-5.9h2.9l-4.5,8.7v6.3H179.4z" style="fill: rgb(0, 0, 0);"/>
    <path class="st0" d="M202.6,93.6h-2.7l-1.1-3.4h-4.9l-1,3.4h-2.6l4.8-15h2.6L202.6,93.6z M198,87.7l-1.7-5.6l-1.7,5.6H198z" style="fill: rgb(0, 0, 0);"/>
    <path class="st0" d="M204,93.6V78.7h2.5v12.4h6.2v2.5H204z" style="fill: rgb(0, 0, 0);"/>
    <path class="st0" d="M222.3,88.1l2.4,0.9c-0.4,1.7-1,2.9-1.9,3.7s-2,1.2-3.2,1.2c-1.6,0-2.9-0.6-3.9-1.9c-1.1-1.4-1.7-3.4-1.7-5.8&#10;&#10;&#9;&#9;c0-2.6,0.6-4.6,1.7-6c1-1.3,2.4-1.9,4.1-1.9c1.4,0,2.5,0.5,3.5,1.4c0.7,0.7,1.1,1.7,1.5,3l-2.5,0.7c-0.2-0.8-0.5-1.4-0.9-1.9&#10;&#10;&#9;&#9;s-1-0.7-1.7-0.7c-0.9,0-1.7,0.4-2.2,1.2s-0.9,2.1-0.9,3.9c0,1.9,0.3,3.2,0.8,4s1.3,1.2,2.2,1.2c0.7,0,1.2-0.3,1.7-0.8&#10;&#10;&#9;&#9;C221.8,90,222.1,89.2,222.3,88.1z" style="fill: rgb(0, 0, 0);"/>
    <path class="st0" d="M238,93.6h-2.7l-1.1-3.4h-4.9l-1,3.4h-2.6l4.8-15h2.6L238,93.6z M233.4,87.7l-1.7-5.6l-1.7,5.6H233.4z" style="fill: rgb(0, 0, 0);"/>
    <path class="st0" d="M239.3,93.6v-15h2.4l5,10v-10h2.3v15h-2.5l-5-9.8v9.8H239.3z" style="fill: rgb(0, 0, 0);"/>
    <path class="st0" d="M254.5,93.6V81.1h-3.7v-2.5h9.8v2.5H257v12.5H254.5z" style="fill: rgb(0, 0, 0);"/>
    <path class="st0" d="M272.1,93.6h-2.7l-1.1-3.4h-4.9l-1,3.4h-2.6l4.8-15h2.6L272.1,93.6z M267.5,87.7l-1.7-5.6l-1.7,5.6H267.5z" style="fill: rgb(0, 0, 0);"/>
    <path class="st0" d="M273.4,93.6v-15h5.2c1.3,0,2.3,0.1,2.9,0.4s1,0.7,1.4,1.4c0.4,0.7,0.6,1.5,0.6,2.4c0,1.2-0.3,2.1-0.8,2.8&#10;&#10;&#9;&#9;c-0.6,0.7-1.4,1.2-2.4,1.4c0.5,0.4,1,0.8,1.3,1.3s0.8,1.3,1.4,2.4l1.5,2.9h-3l-1.8-3.3c-0.6-1.2-1.1-1.9-1.3-2.2&#10;&#10;&#9;&#9;c-0.2-0.3-0.5-0.5-0.7-0.6c-0.3-0.1-0.7-0.2-1.2-0.2h-0.5v6.3H273.4z M275.9,85h1.8c1.1,0,1.8,0,2.2-0.1c0.3-0.1,0.6-0.3,0.7-0.6&#10;&#10;&#9;&#9;s0.3-0.7,0.3-1.2c0-0.5-0.1-0.9-0.3-1.2s-0.5-0.5-0.8-0.6c-0.2-0.1-0.9-0.1-2-0.1h-1.9V85z" style="fill: rgb(0, 0, 0);"/>
    <path class="st0" d="M285.8,93.6v-15h2.5v15H285.8z" style="fill: rgb(0, 0, 0);"/>
    <path class="st0" d="M290.7,93.6V78.7h2.5v12.4h6.2v2.5H290.7z" style="fill: rgb(0, 0, 0);"/>
    <path class="st0" d="M301.2,93.6V78.7h2.5v12.4h6.2v2.5H301.2z" style="fill: rgb(0, 0, 0);"/>
    <path class="st0" d="M322.8,93.6h-2.7l-1.1-3.4h-4.9l-1,3.4h-2.6l4.8-15h2.6L322.8,93.6z M318.2,87.7l-1.7-5.6l-1.7,5.6H318.2z" style="fill: rgb(0, 0, 0);"/>
    <path class="st0" d="M324.1,78.6h4.5c1.1,0,2,0.1,2.6,0.4c0.6,0.3,1.1,0.7,1.6,1.3c0.5,0.6,0.9,1.4,1.2,2.4s0.4,2.2,0.4,3.6&#10;&#10;&#9;&#9;c0,1.3-0.1,2.4-0.4,3.4c-0.3,1-0.7,1.7-1.1,2.3c-0.5,0.6-1,1-1.6,1.3c-0.6,0.3-1.5,0.4-2.5,0.4h-4.7V78.6z M326.6,81.1v9.9h1.9&#10;&#10;&#9;&#9;c0.8,0,1.4-0.1,1.7-0.2c0.4-0.2,0.7-0.4,0.9-0.7c0.2-0.3,0.4-0.8,0.6-1.4s0.2-1.5,0.2-2.6c0-1.1-0.1-2-0.2-2.6&#10;&#10;&#9;&#9;c-0.2-0.6-0.4-1.1-0.7-1.5c-0.3-0.4-0.7-0.6-1.2-0.7c-0.3-0.1-1-0.1-2-0.1H326.6z" style="fill: rgb(0, 0, 0);"/>
    <path class="st0" d="M336,86.2c0-1.8,0.3-3.3,0.8-4.4c0.5-1.2,1.2-2,2.1-2.6s1.9-0.9,3.1-0.9c1.8,0,3.2,0.7,4.3,2&#10;&#10;&#9;&#9;c1.1,1.3,1.7,3.3,1.7,5.8c0,2.5-0.6,4.5-1.8,5.9c-1,1.3-2.4,1.9-4.2,1.9c-1.8,0-3.2-0.6-4.2-1.9C336.6,90.6,336,88.7,336,86.2z&#10;&#10;&#9;&#9; M338.6,86.1c0,1.7,0.3,3,1,3.9s1.5,1.3,2.4,1.3c1,0,1.8-0.4,2.4-1.3c0.6-0.9,1-2.2,1-4c0-1.7-0.3-3-0.9-3.9&#10;&#10;&#9;&#9;c-0.6-0.8-1.4-1.3-2.5-1.3c-1,0-1.8,0.4-2.5,1.3S338.6,84.3,338.6,86.1z" style="fill: rgb(0, 0, 0);"/>
    <path class="st0" d="M354.7,78.6h4.5c1.1,0,2,0.1,2.6,0.4c0.6,0.3,1.1,0.7,1.6,1.3c0.5,0.6,0.9,1.4,1.2,2.4s0.4,2.2,0.4,3.6&#10;&#10;&#9;&#9;c0,1.3-0.1,2.4-0.4,3.4c-0.3,1-0.7,1.7-1.1,2.3c-0.5,0.6-1,1-1.6,1.3c-0.6,0.3-1.5,0.4-2.5,0.4h-4.7V78.6z M357.2,81.1v9.9h1.9&#10;&#10;&#9;&#9;c0.8,0,1.4-0.1,1.7-0.2c0.4-0.2,0.7-0.4,0.9-0.7c0.2-0.3,0.4-0.8,0.6-1.4s0.2-1.5,0.2-2.6c0-1.1-0.1-2-0.2-2.6&#10;&#10;&#9;&#9;c-0.2-0.6-0.4-1.1-0.7-1.5c-0.3-0.4-0.7-0.6-1.2-0.7c-0.3-0.1-1-0.1-2-0.1H357.2z" style="fill: rgb(0, 0, 0);"/>
    <path class="st0" d="M367.2,93.6v-15h9.1v2.5h-6.7v3.3h6.2V87h-6.2v4.1h6.9v2.5H367.2z" style="fill: rgb(0, 0, 0);"/>
    <path class="st0" d="M383.4,93.6v-15h4c1.5,0,2.5,0.1,2.9,0.2c0.7,0.2,1.3,0.7,1.8,1.5c0.5,0.8,0.7,1.7,0.7,2.9&#10;&#10;&#9;&#9;c0,1.1-0.2,2-0.6,2.7c-0.4,0.7-0.9,1.3-1.5,1.5c-0.6,0.3-1.7,0.4-3.2,0.4h-1.6v5.7H383.4z M385.9,81.1v4.3h1.4&#10;&#10;&#9;&#9;c0.9,0,1.6-0.1,1.9-0.2c0.3-0.1,0.6-0.4,0.8-0.7c0.2-0.3,0.3-0.8,0.3-1.2c0-0.5-0.1-0.9-0.3-1.3c-0.2-0.3-0.5-0.6-0.8-0.7&#10;&#10;&#9;&#9;s-1-0.2-2-0.2H385.9z" style="fill: rgb(0, 0, 0);"/>
    <path class="st0" d="M394.9,78.6h2.5v8.1c0,1.3,0,2.1,0.1,2.5c0.1,0.7,0.4,1.2,0.8,1.5c0.4,0.4,1,0.5,1.6,0.5c0.6,0,1-0.1,1.4-0.4&#10;&#10;&#9;&#9;c0.4-0.3,0.6-0.6,0.7-1.1c0.1-0.5,0.2-1.4,0.2-2.9v-8.3h2.5v7.9c0,2-0.1,3.5-0.3,4.4c-0.2,0.9-0.7,1.6-1.5,2.2&#10;&#10;&#9;&#9;c-0.8,0.6-1.8,0.8-3,0.8c-1.3,0-2.3-0.2-3-0.7c-0.7-0.5-1.2-1.1-1.6-1.9c-0.3-0.8-0.5-2.4-0.5-4.6V78.6z" style="fill: rgb(0, 0, 0);"/>
    <path class="st0" d="M407.3,93.6v-15h9.1v2.5h-6.7v3.3h6.2V87h-6.2v4.1h6.9v2.5H407.3z" style="fill: rgb(0, 0, 0);"/>
    <path class="st0" d="M418.8,78.6h4.9c1.3,0,2.3,0.1,2.8,0.4c0.5,0.2,1,0.7,1.4,1.3c0.4,0.6,0.6,1.3,0.6,2.1c0,0.7-0.2,1.4-0.5,2&#10;&#10;&#9;&#9;c-0.3,0.6-0.7,1-1.3,1.3c0.7,0.3,1.3,0.7,1.7,1.3s0.6,1.4,0.6,2.3c0,1.1-0.3,2-0.8,2.8s-1.1,1.2-1.9,1.4c-0.5,0.1-1.7,0.2-3.5,0.2&#10;&#10;&#9;&#9;h-4.2V78.6z M421.3,81.1v3.5h1.6c1,0,1.6,0,1.8-0.1c0.4-0.1,0.8-0.2,1-0.5c0.2-0.3,0.4-0.7,0.4-1.2c0-0.4-0.1-0.8-0.3-1.1&#10;&#10;&#9;&#9;c-0.2-0.3-0.4-0.4-0.7-0.5c-0.3-0.1-1.1-0.1-2.4-0.1H421.3z M421.3,87.1v4h2.3c1,0,1.7-0.1,2-0.2c0.3-0.1,0.5-0.3,0.7-0.6&#10;&#10;&#9;&#9;c0.2-0.3,0.3-0.7,0.3-1.2c0-0.5-0.1-0.9-0.3-1.2c-0.2-0.3-0.5-0.5-0.8-0.7c-0.3-0.1-1.1-0.2-2.1-0.2H421.3z" style="fill: rgb(0, 0, 0);"/>
    <path class="st0" d="M431.3,93.6V78.7h2.5v12.4h6.2v2.5H431.3z" style="fill: rgb(0, 0, 0);"/>
    <path class="st0" d="M452.9,93.6h-2.7l-1.1-3.4h-4.9l-1,3.4h-2.6l4.8-15h2.6L452.9,93.6z M448.3,87.7l-1.7-5.6l-1.7,5.6H448.3z" style="fill: rgb(0, 0, 0);"/>
  </g>
</svg>