<?xml version="1.0" encoding="utf-8"?>
<svg viewBox="0 0 460 100" style="enable-background:new 0 0 460 100;" xmlns="http://www.w3.org/2000/svg">
  <defs>
    <style type="text/css">

	.st0{fill:#FFFFFF;}

</style>
  </defs>
  <g>
    <path class="st0" d="M 111.734 33.346 L 122.534 32.646 C 122.734 34.346 123.234 35.746 123.934 36.646 C 125.134 38.146 126.734 38.846 128.934 38.846 C 130.534 38.846 131.834 38.446 132.634 37.746 C 133.534 36.946 133.934 36.146 133.934 35.146 C 133.934 34.246 133.534 33.346 132.734 32.646 C 131.934 31.946 129.934 31.146 126.934 30.546 C 122.034 29.446 118.434 27.946 116.334 26.146 C 114.234 24.346 113.134 21.946 113.134 19.146 C 113.134 17.246 113.634 15.546 114.734 13.846 C 115.834 12.146 117.434 10.846 119.634 9.946 C 121.834 8.946 124.834 8.546 128.634 8.546 C 133.334 8.546 136.834 9.446 139.334 11.146 C 141.734 12.846 143.234 15.646 143.734 19.446 L 133.134 20.046 C 132.834 18.446 132.234 17.246 131.334 16.446 C 130.434 15.746 129.134 15.346 127.634 15.346 C 126.334 15.346 125.334 15.646 124.634 16.146 C 123.934 16.746 123.634 17.346 123.634 18.146 C 123.634 18.746 123.934 19.246 124.434 19.746 C 124.934 20.246 126.234 20.646 128.234 21.046 C 133.134 22.146 136.734 23.146 138.834 24.246 C 140.934 25.346 142.534 26.646 143.534 28.246 C 144.534 29.846 145.034 31.646 145.034 33.646 C 145.034 35.946 144.434 38.146 143.134 40.146 C 141.834 42.146 140.034 43.646 137.734 44.646 C 135.434 45.646 132.434 46.146 128.934 46.146 C 122.734 46.146 118.434 44.946 116.034 42.546 C 113.634 40.146 112.134 36.946 111.734 33.346 Z" style="fill: rgb(0, 0, 0);"/>
    <path class="st0" d="M 149.134 27.146 C 149.134 21.146 150.834 16.546 154.134 13.246 C 157.434 9.946 162.034 8.246 168.034 8.246 C 174.134 8.246 178.834 9.846 182.034 13.146 C 185.334 16.446 186.934 20.946 186.934 26.846 C 186.934 31.146 186.234 34.646 184.734 37.346 C 183.334 40.046 181.234 42.246 178.534 43.746 C 175.834 45.246 172.434 46.046 168.434 46.046 C 164.334 46.046 160.934 45.346 158.234 44.046 C 155.534 42.746 153.334 40.646 151.634 37.846 C 150.034 34.946 149.134 31.446 149.134 27.146 Z M 160.434 27.246 C 160.434 30.946 161.134 33.546 162.534 35.146 C 163.934 36.746 165.734 37.546 168.134 37.546 C 170.534 37.546 172.434 36.746 173.734 35.146 C 175.034 33.546 175.734 30.746 175.734 26.646 C 175.734 23.246 175.034 20.746 173.634 19.146 C 172.234 17.546 170.334 16.746 168.034 16.746 C 165.734 16.746 163.934 17.546 162.534 19.146 C 161.134 20.846 160.434 23.446 160.434 27.246 Z" style="fill: rgb(0, 0, 0);"/>
    <path class="st0" d="M 213.734 39.346 L 200.934 39.346 L 199.134 45.346 L 187.634 45.346 L 201.334 8.846 L 213.634 8.846 L 227.334 45.346 L 215.534 45.346 L 213.734 39.346 Z M 211.434 31.446 L 207.434 18.346 L 203.434 31.446 L 211.434 31.446 L 211.434 31.446 Z" style="fill: rgb(0, 0, 0);"/>
    <path class="st0" d="M 230.934 8.846 L 249.734 8.846 C 253.834 8.846 256.834 9.846 258.934 11.746 C 261.034 13.646 262.034 16.446 262.034 20.046 C 262.034 23.746 260.934 26.646 258.734 28.646 C 256.534 30.746 253.134 31.746 248.634 31.746 L 242.434 31.746 L 242.434 45.246 L 231.134 45.246 L 231.134 8.846 L 230.934 8.846 Z M 242.234 24.446 L 245.034 24.446 C 247.234 24.446 248.734 24.046 249.634 23.346 C 250.534 22.546 250.934 21.646 250.934 20.446 C 250.934 19.346 250.534 18.346 249.834 17.546 C 249.034 16.746 247.634 16.346 245.534 16.346 L 242.334 16.346 L 242.334 24.446 L 242.234 24.446 Z" style="fill: rgb(0, 0, 0);"/>
    <path class="st0" d="M 285.934 39.346 L 273.134 39.346 L 271.334 45.346 L 259.834 45.346 L 273.534 8.846 L 285.834 8.846 L 299.534 45.346 L 287.734 45.346 L 285.934 39.346 Z M 283.634 31.446 L 279.634 18.346 L 275.634 31.446 L 283.634 31.446 L 283.634 31.446 Z" style="fill: rgb(0, 0, 0);"/>
    <path class="st0" d="M 303.134 8.846 L 321.934 8.846 C 326.034 8.846 329.034 9.846 331.134 11.746 C 333.234 13.646 334.234 16.446 334.234 20.046 C 334.234 23.746 333.134 26.646 330.934 28.646 C 328.734 30.746 325.334 31.746 320.834 31.746 L 314.634 31.746 L 314.634 45.246 L 303.334 45.246 L 303.334 8.846 L 303.134 8.846 Z M 314.434 24.446 L 317.234 24.446 C 319.434 24.446 320.934 24.046 321.834 23.346 C 322.734 22.546 323.134 21.646 323.134 20.446 C 323.134 19.346 322.734 18.346 322.034 17.546 C 321.334 16.746 319.834 16.346 317.734 16.346 L 314.534 16.346 L 314.534 24.446 L 314.434 24.446 Z" style="fill: rgb(0, 0, 0);"/>
    <path class="st0" d="M7.1,63.5l2.4-0.3c0.3,1.9,1.2,2.9,2.7,2.9c0.8,0,1.3-0.2,1.8-0.6c0.4-0.4,0.6-0.9,0.6-1.5&#10;&#10;&#9;&#9;c0-0.3-0.1-0.6-0.2-0.9s-0.4-0.4-0.7-0.6s-1.1-0.4-2.2-0.8c-1.1-0.3-1.8-0.7-2.3-1c-0.5-0.4-0.9-0.9-1.2-1.5&#10;&#10;&#9;&#9;c-0.3-0.6-0.4-1.3-0.4-2c0-0.8,0.2-1.6,0.6-2.2C8.5,54.5,9,54,9.7,53.7c0.7-0.3,1.5-0.5,2.4-0.5c1.4,0,2.6,0.4,3.4,1.2&#10;&#10;&#9;&#9;s1.2,1.9,1.3,3.4l-2.5,0.1c-0.1-0.8-0.3-1.4-0.7-1.7s-0.9-0.5-1.5-0.5s-1.2,0.1-1.5,0.4c-0.4,0.3-0.5,0.6-0.5,1&#10;&#10;&#9;&#9;c0,0.4,0.2,0.8,0.5,1c0.3,0.3,1.1,0.6,2.3,0.9c1.3,0.4,2.2,0.7,2.7,1.1c0.6,0.4,1,0.9,1.3,1.5c0.3,0.6,0.4,1.4,0.4,2.3&#10;&#10;&#9;&#9;c0,1.3-0.4,2.4-1.2,3.3c-0.8,0.9-2.1,1.3-3.8,1.3C9.1,68.7,7.4,67,7.1,63.5z" style="fill: rgb(0, 0, 0);"/>
    <path class="st0" d="M19.1,68.4v-15h2.5v15H19.1z" style="fill: rgb(0, 0, 0);"/>
    <path class="st0" d="M23.4,63.5l2.4-0.3c0.3,1.9,1.2,2.9,2.7,2.9c0.8,0,1.3-0.2,1.8-0.6c0.4-0.4,0.6-0.9,0.6-1.5&#10;&#10;&#9;&#9;c0-0.3-0.1-0.6-0.2-0.9s-0.4-0.4-0.7-0.6s-1.1-0.4-2.2-0.8c-1.1-0.3-1.8-0.7-2.3-1c-0.5-0.4-0.9-0.9-1.2-1.5&#10;&#10;&#9;&#9;c-0.3-0.6-0.4-1.3-0.4-2c0-0.8,0.2-1.6,0.6-2.2c0.4-0.7,0.9-1.2,1.5-1.5c0.7-0.3,1.5-0.5,2.4-0.5c1.4,0,2.6,0.4,3.4,1.2&#10;&#10;&#9;&#9;s1.2,1.9,1.3,3.4l-2.5,0.1c-0.1-0.8-0.3-1.4-0.7-1.7s-0.9-0.5-1.5-0.5s-1.2,0.1-1.5,0.4c-0.4,0.3-0.5,0.6-0.5,1&#10;&#10;&#9;&#9;c0,0.4,0.2,0.8,0.5,1c0.3,0.3,1.1,0.6,2.3,0.9c1.3,0.4,2.2,0.7,2.7,1.1c0.6,0.4,1,0.9,1.3,1.5c0.3,0.6,0.4,1.4,0.4,2.3&#10;&#10;&#9;&#9;c0,1.3-0.4,2.4-1.2,3.3c-0.8,0.9-2.1,1.3-3.8,1.3C25.4,68.7,23.7,67,23.4,63.5z" style="fill: rgb(0, 0, 0);"/>
    <path class="st0" d="M38.3,68.4V55.9h-3.7v-2.5h9.8v2.5h-3.7v12.5H38.3z" style="fill: rgb(0, 0, 0);"/>
    <path class="st0" d="M46,68.4v-15h9.1v2.5h-6.7v3.3h6.2v2.5h-6.2v4.1h6.9v2.5H46z" style="fill: rgb(0, 0, 0);"/>
    <path class="st0" d="M57.5,68.4v-15h3.7l2.2,10.3l2.2-10.3h3.7v15h-2.3V56.6l-2.5,11.8h-2.4l-2.4-11.8v11.8H57.5z" style="fill: rgb(0, 0, 0);"/>
    <path class="st0" d="M83,68.4h-2.7L79.2,65h-4.9l-1,3.4h-2.6l4.8-15H78L83,68.4z M78.4,62.5l-1.7-5.6L75,62.5H78.4z" style="fill: rgb(0, 0, 0);"/>
    <path class="st0" d="M87.9,61c0-1.8,0.3-3.3,0.8-4.4c0.5-1.2,1.2-2,2.1-2.6s1.9-0.9,3.1-0.9c1.8,0,3.2,0.7,4.3,2s1.7,3.3,1.7,5.8&#10;&#10;&#9;&#9;c0,2.5-0.6,4.5-1.8,5.9c-1,1.3-2.4,1.9-4.2,1.9c-1.8,0-3.2-0.6-4.2-1.9C88.5,65.4,87.9,63.5,87.9,61z M90.5,60.9c0,1.7,0.3,3,1,3.9&#10;&#10;&#9;&#9;s1.5,1.3,2.4,1.3c1,0,1.8-0.4,2.4-1.3c0.6-0.9,1-2.2,1-4c0-1.7-0.3-3-0.9-3.9s-1.4-1.3-2.5-1.3c-1,0-1.8,0.4-2.5,1.3&#10;&#10;&#9;&#9;S90.5,59.1,90.5,60.9z" style="fill: rgb(0, 0, 0);"/>
    <path class="st0" d="M101.8,68.4v-15h4c1.5,0,2.5,0.1,2.9,0.2c0.7,0.2,1.3,0.7,1.8,1.5c0.5,0.8,0.7,1.7,0.7,2.9&#10;&#10;&#9;&#9;c0,1.1-0.2,2-0.6,2.7c-0.4,0.7-0.9,1.3-1.5,1.5c-0.6,0.3-1.7,0.4-3.2,0.4h-1.6v5.7H101.8z M104.3,55.9v4.3h1.4&#10;&#10;&#9;&#9;c0.9,0,1.6-0.1,1.9-0.2c0.3-0.1,0.6-0.4,0.8-0.7c0.2-0.3,0.3-0.8,0.3-1.2c0-0.5-0.1-0.9-0.3-1.3c-0.2-0.3-0.5-0.6-0.8-0.7&#10;&#10;&#9;&#9;c-0.3-0.1-1-0.2-2-0.2H104.3z" style="fill: rgb(0, 0, 0);"/>
    <path class="st0" d="M113.3,68.4v-15h9.1v2.5h-6.7v3.3h6.2v2.5h-6.2v4.1h6.9v2.5H113.3z" style="fill: rgb(0, 0, 0);"/>
    <path class="st0" d="M124.8,68.4v-15h5.2c1.3,0,2.3,0.1,2.9,0.4s1,0.7,1.4,1.4c0.4,0.7,0.6,1.5,0.6,2.4c0,1.2-0.3,2.1-0.8,2.8&#10;&#10;&#9;&#9;c-0.6,0.7-1.4,1.2-2.4,1.4c0.5,0.4,1,0.8,1.3,1.3s0.8,1.3,1.4,2.4l1.5,2.9h-3l-1.8-3.3c-0.6-1.2-1.1-1.9-1.3-2.2&#10;&#10;&#9;&#9;c-0.2-0.3-0.5-0.5-0.7-0.6c-0.3-0.1-0.7-0.2-1.3-0.2h-0.5v6.3H124.8z M127.3,59.8h1.8c1.1,0,1.8,0,2.2-0.1s0.6-0.3,0.7-0.6&#10;&#10;&#9;&#9;s0.3-0.7,0.3-1.2c0-0.5-0.1-0.9-0.3-1.2s-0.5-0.5-0.8-0.6c-0.2-0.1-0.9-0.1-2-0.1h-1.9V59.8z" style="fill: rgb(0, 0, 0);"/>
    <path class="st0" d="M148.4,68.4h-2.7l-1.1-3.4h-4.9l-1,3.4H136l4.8-15h2.6L148.4,68.4z M143.8,62.5l-1.7-5.6l-1.7,5.6H143.8z" style="fill: rgb(0, 0, 0);"/>
    <path class="st0" d="M149.6,53.4h4.5c1.1,0,2,0.1,2.6,0.4c0.6,0.3,1.1,0.7,1.6,1.3s0.9,1.4,1.2,2.4c0.3,1,0.4,2.2,0.4,3.6&#10;&#10;&#9;&#9;c0,1.3-0.1,2.4-0.4,3.4c-0.3,1-0.7,1.7-1.1,2.3s-1,1-1.6,1.3c-0.6,0.3-1.5,0.4-2.5,0.4h-4.7V53.4z M152.1,55.9v9.9h1.9&#10;&#10;&#9;&#9;c0.8,0,1.4-0.1,1.7-0.2c0.4-0.2,0.7-0.4,0.9-0.7c0.2-0.3,0.4-0.8,0.6-1.4s0.2-1.5,0.2-2.6c0-1.1-0.1-2-0.2-2.6&#10;&#10;&#9;&#9;c-0.2-0.6-0.4-1.1-0.7-1.5c-0.3-0.4-0.7-0.6-1.2-0.7c-0.3-0.1-1-0.1-2-0.1H152.1z" style="fill: rgb(0, 0, 0);"/>
    <path class="st0" d="M161.6,61c0-1.8,0.3-3.3,0.8-4.4c0.5-1.2,1.2-2,2.1-2.6s1.9-0.9,3.1-0.9c1.8,0,3.2,0.7,4.3,2s1.7,3.3,1.7,5.8&#10;&#10;&#9;&#9;c0,2.5-0.6,4.5-1.8,5.9c-1,1.3-2.4,1.9-4.2,1.9c-1.8,0-3.2-0.6-4.2-1.9C162.2,65.4,161.6,63.5,161.6,61z M164.1,60.9&#10;&#10;&#9;&#9;c0,1.7,0.3,3,1,3.9s1.5,1.3,2.4,1.3c1,0,1.8-0.4,2.4-1.3c0.6-0.9,1-2.2,1-4c0-1.7-0.3-3-0.9-3.9s-1.4-1.3-2.5-1.3&#10;&#10;&#9;&#9;c-1,0-1.8,0.4-2.5,1.3S164.1,59.1,164.1,60.9z" style="fill: rgb(0, 0, 0);"/>
    <path class="st0" d="M175.5,68.4v-15h5.2c1.3,0,2.3,0.1,2.9,0.4s1,0.7,1.4,1.4c0.4,0.7,0.6,1.5,0.6,2.4c0,1.2-0.3,2.1-0.8,2.8&#10;&#10;&#9;&#9;c-0.6,0.7-1.4,1.2-2.4,1.4c0.5,0.4,1,0.8,1.3,1.3s0.8,1.3,1.4,2.4l1.5,2.9h-3l-1.8-3.3c-0.6-1.2-1.1-1.9-1.3-2.2&#10;&#10;&#9;&#9;c-0.2-0.3-0.5-0.5-0.7-0.6c-0.3-0.1-0.7-0.2-1.3-0.2H178v6.3H175.5z M178,59.8h1.8c1.1,0,1.8,0,2.2-0.1s0.6-0.3,0.7-0.6&#10;&#10;&#9;&#9;s0.3-0.7,0.3-1.2c0-0.5-0.1-0.9-0.3-1.2s-0.5-0.5-0.8-0.6c-0.2-0.1-0.9-0.1-2-0.1H178V59.8z" style="fill: rgb(0, 0, 0);"/>
    <path class="st0" d="M192.7,53.4h4.5c1.1,0,2,0.1,2.6,0.4c0.6,0.3,1.1,0.7,1.6,1.3s0.9,1.4,1.2,2.4c0.3,1,0.4,2.2,0.4,3.6&#10;&#10;&#9;&#9;c0,1.3-0.1,2.4-0.4,3.4c-0.3,1-0.7,1.7-1.1,2.3s-1,1-1.6,1.3c-0.6,0.3-1.5,0.4-2.5,0.4h-4.7V53.4z M195.2,55.9v9.9h1.9&#10;&#10;&#9;&#9;c0.8,0,1.4-0.1,1.7-0.2c0.4-0.2,0.7-0.4,0.9-0.7c0.2-0.3,0.4-0.8,0.6-1.4s0.2-1.5,0.2-2.6c0-1.1-0.1-2-0.2-2.6&#10;&#10;&#9;&#9;c-0.2-0.6-0.4-1.1-0.7-1.5c-0.3-0.4-0.7-0.6-1.2-0.7c-0.3-0.1-1-0.1-2-0.1H195.2z" style="fill: rgb(0, 0, 0);"/>
    <path class="st0" d="M205.1,68.4v-15h9.1v2.5h-6.7v3.3h6.2v2.5h-6.2v4.1h6.9v2.5H205.1z" style="fill: rgb(0, 0, 0);"/>
    <path class="st0" d="M221.5,68.4V53.5h2.5v12.4h6.2v2.5H221.5z" style="fill: rgb(0, 0, 0);"/>
    <path class="st0" d="M231.4,61c0-1.8,0.3-3.3,0.8-4.4c0.5-1.2,1.2-2,2.1-2.6s1.9-0.9,3.1-0.9c1.8,0,3.2,0.7,4.3,2&#10;&#10;&#9;&#9;c1.1,1.3,1.7,3.3,1.7,5.8c0,2.5-0.6,4.5-1.8,5.9c-1,1.3-2.4,1.9-4.2,1.9c-1.8,0-3.2-0.6-4.2-1.9C232,65.4,231.4,63.5,231.4,61z&#10;&#10;&#9;&#9; M234,60.9c0,1.7,0.3,3,1,3.9s1.5,1.3,2.4,1.3c1,0,1.8-0.4,2.4-1.3c0.6-0.9,1-2.2,1-4c0-1.7-0.3-3-0.9-3.9&#10;&#10;&#9;&#9;c-0.6-0.8-1.4-1.3-2.5-1.3c-1,0-1.8,0.4-2.5,1.3S234,59.1,234,60.9z" style="fill: rgb(0, 0, 0);"/>
    <path class="st0" d="M244.7,63.5l2.4-0.3c0.3,1.9,1.2,2.9,2.7,2.9c0.8,0,1.3-0.2,1.8-0.6c0.4-0.4,0.6-0.9,0.6-1.5&#10;&#10;&#9;&#9;c0-0.3-0.1-0.6-0.2-0.9s-0.4-0.4-0.7-0.6c-0.3-0.2-1.1-0.4-2.2-0.8c-1.1-0.3-1.8-0.7-2.3-1c-0.5-0.4-0.9-0.9-1.2-1.5&#10;&#10;&#9;&#9;c-0.3-0.6-0.4-1.3-0.4-2c0-0.8,0.2-1.6,0.6-2.2c0.4-0.7,0.9-1.2,1.5-1.5c0.7-0.3,1.5-0.5,2.4-0.5c1.4,0,2.6,0.4,3.4,1.2&#10;&#10;&#9;&#9;s1.2,1.9,1.3,3.4l-2.5,0.1c-0.1-0.8-0.3-1.4-0.7-1.7s-0.9-0.5-1.5-0.5s-1.2,0.1-1.5,0.4c-0.4,0.3-0.5,0.6-0.5,1&#10;&#10;&#9;&#9;c0,0.4,0.2,0.8,0.5,1c0.3,0.3,1.1,0.6,2.3,0.9c1.3,0.4,2.2,0.7,2.7,1.1s1,0.9,1.3,1.5c0.3,0.6,0.4,1.4,0.4,2.3&#10;&#10;&#9;&#9;c0,1.3-0.4,2.4-1.2,3.3c-0.8,0.9-2.1,1.3-3.8,1.3C246.7,68.7,245,67,244.7,63.5z" style="fill: rgb(0, 0, 0);"/>
    <path class="st0" d="M261,63.5l2.4-0.3c0.3,1.9,1.2,2.9,2.7,2.9c0.8,0,1.3-0.2,1.8-0.6c0.4-0.4,0.6-0.9,0.6-1.5&#10;&#10;&#9;&#9;c0-0.3-0.1-0.6-0.2-0.9s-0.4-0.4-0.7-0.6c-0.3-0.2-1.1-0.4-2.2-0.8c-1.1-0.3-1.8-0.7-2.3-1c-0.5-0.4-0.9-0.9-1.2-1.5&#10;&#10;&#9;&#9;c-0.3-0.6-0.4-1.3-0.4-2c0-0.8,0.2-1.6,0.6-2.2c0.4-0.7,0.9-1.2,1.5-1.5c0.7-0.3,1.5-0.5,2.4-0.5c1.4,0,2.6,0.4,3.4,1.2&#10;&#10;&#9;&#9;s1.2,1.9,1.3,3.4l-2.5,0.1c-0.1-0.8-0.3-1.4-0.7-1.7s-0.9-0.5-1.5-0.5s-1.2,0.1-1.5,0.4c-0.4,0.3-0.5,0.6-0.5,1&#10;&#10;&#9;&#9;c0,0.4,0.2,0.8,0.5,1c0.3,0.3,1.1,0.6,2.3,0.9c1.3,0.4,2.2,0.7,2.7,1.1s1,0.9,1.3,1.5c0.3,0.6,0.4,1.4,0.4,2.3&#10;&#10;&#9;&#9;c0,1.3-0.4,2.4-1.2,3.3c-0.8,0.9-2.1,1.3-3.8,1.3C263,68.7,261.3,67,261,63.5z" style="fill: rgb(0, 0, 0);"/>
    <path class="st0" d="M273.1,68.4v-15h9.1v2.5h-6.7v3.3h6.2v2.5h-6.2v4.1h6.9v2.5H273.1z" style="fill: rgb(0, 0, 0);"/>
    <path class="st0" d="M284.6,68.4v-15h5.2c1.3,0,2.3,0.1,2.9,0.4s1,0.7,1.4,1.4c0.4,0.7,0.6,1.5,0.6,2.4c0,1.2-0.3,2.1-0.8,2.8&#10;&#10;&#9;&#9;c-0.6,0.7-1.4,1.2-2.4,1.4c0.5,0.4,1,0.8,1.3,1.3s0.8,1.3,1.4,2.4l1.5,2.9h-3l-1.8-3.3c-0.6-1.2-1.1-1.9-1.3-2.2&#10;&#10;&#9;&#9;c-0.2-0.3-0.5-0.5-0.7-0.6c-0.3-0.1-0.7-0.2-1.2-0.2h-0.5v6.3H284.6z M287.1,59.8h1.8c1.1,0,1.8,0,2.2-0.1c0.3-0.1,0.6-0.3,0.7-0.6&#10;&#10;&#9;&#9;s0.3-0.7,0.3-1.2c0-0.5-0.1-0.9-0.3-1.2s-0.5-0.5-0.8-0.6c-0.2-0.1-0.9-0.1-2-0.1h-1.9V59.8z" style="fill: rgb(0, 0, 0);"/>
    <path class="st0" d="M299.9,68.4l-4.4-15h2.7l3.1,11.1l3-11.1h2.6l-4.4,15H299.9z" style="fill: rgb(0, 0, 0);"/>
    <path class="st0" d="M308.1,68.4v-15h2.5v15H308.1z" style="fill: rgb(0, 0, 0);"/>
    <path class="st0" d="M320.9,62.9l2.4,0.9c-0.4,1.7-1,2.9-1.9,3.7s-2,1.2-3.2,1.2c-1.6,0-2.9-0.6-3.9-1.9c-1.1-1.4-1.7-3.4-1.7-5.8&#10;&#10;&#9;&#9;c0-2.6,0.6-4.6,1.7-6c1-1.3,2.4-1.9,4.1-1.9c1.4,0,2.5,0.5,3.5,1.4c0.7,0.7,1.1,1.7,1.5,3l-2.5,0.7c-0.2-0.8-0.5-1.4-0.9-1.9&#10;&#10;&#9;&#9;s-1-0.7-1.7-0.7c-0.9,0-1.7,0.4-2.2,1.2s-0.9,2.1-0.9,3.9c0,1.9,0.3,3.2,0.8,4s1.3,1.2,2.2,1.2c0.7,0,1.2-0.3,1.7-0.8&#10;&#10;&#9;&#9;C320.3,64.8,320.7,64,320.9,62.9z" style="fill: rgb(0, 0, 0);"/>
    <path class="st0" d="M325.3,68.4v-15h2.5v15H325.3z" style="fill: rgb(0, 0, 0);"/>
    <path class="st0" d="M329.7,61c0-1.8,0.3-3.3,0.8-4.4c0.5-1.2,1.2-2,2.1-2.6s1.9-0.9,3.1-0.9c1.8,0,3.2,0.7,4.3,2&#10;&#10;&#9;&#9;c1.1,1.3,1.7,3.3,1.7,5.8c0,2.5-0.6,4.5-1.8,5.9c-1,1.3-2.4,1.9-4.2,1.9c-1.8,0-3.2-0.6-4.2-1.9C330.3,65.4,329.7,63.5,329.7,61z&#10;&#10;&#9;&#9; M332.2,60.9c0,1.7,0.3,3,1,3.9s1.5,1.3,2.4,1.3c1,0,1.8-0.4,2.4-1.3c0.6-0.9,1-2.2,1-4c0-1.7-0.3-3-0.9-3.9&#10;&#10;&#9;&#9;c-0.6-0.8-1.4-1.3-2.5-1.3c-1,0-1.8,0.4-2.5,1.3S332.2,59.1,332.2,60.9z" style="fill: rgb(0, 0, 0);"/>
    <path class="st0" d="M343,63.5l2.4-0.3c0.3,1.9,1.2,2.9,2.7,2.9c0.8,0,1.3-0.2,1.8-0.6c0.4-0.4,0.6-0.9,0.6-1.5&#10;&#10;&#9;&#9;c0-0.3-0.1-0.6-0.2-0.9s-0.4-0.4-0.7-0.6c-0.3-0.2-1.1-0.4-2.2-0.8c-1.1-0.3-1.8-0.7-2.3-1c-0.5-0.4-0.9-0.9-1.2-1.5&#10;&#10;&#9;&#9;c-0.3-0.6-0.4-1.3-0.4-2c0-0.8,0.2-1.6,0.6-2.2c0.4-0.7,0.9-1.2,1.5-1.5c0.7-0.3,1.5-0.5,2.4-0.5c1.4,0,2.6,0.4,3.4,1.2&#10;&#10;&#9;&#9;s1.2,1.9,1.3,3.4l-2.5,0.1c-0.1-0.8-0.3-1.4-0.7-1.7s-0.9-0.5-1.5-0.5s-1.2,0.1-1.5,0.4c-0.4,0.3-0.5,0.6-0.5,1&#10;&#10;&#9;&#9;c0,0.4,0.2,0.8,0.5,1c0.3,0.3,1.1,0.6,2.3,0.9c1.3,0.4,2.2,0.7,2.7,1.1s1,0.9,1.3,1.5c0.3,0.6,0.4,1.4,0.4,2.3&#10;&#10;&#9;&#9;c0,1.3-0.4,2.4-1.2,3.3c-0.8,0.9-2.1,1.3-3.8,1.3C345,68.7,343.3,67,343,63.5z" style="fill: rgb(0, 0, 0);"/>
    <path class="st0" d="M 359.339 53.119 L 363.839 53.119 C 364.939 53.119 365.839 53.219 366.439 53.519 C 367.039 53.819 367.539 54.219 368.039 54.819 C 368.539 55.419 368.939 56.219 369.239 57.219 C 369.539 58.219 369.639 59.419 369.639 60.819 C 369.639 62.119 369.539 63.219 369.239 64.219 C 368.939 65.219 368.539 65.919 368.139 66.519 C 367.739 67.119 367.139 67.519 366.539 67.819 C 365.939 68.119 365.039 68.219 364.039 68.219 L 359.339 68.219 L 359.339 53.119 Z M 361.839 55.619 L 361.839 65.519 L 363.739 65.519 C 364.539 65.519 365.139 65.419 365.439 65.319 C 365.839 65.119 366.139 64.919 366.339 64.619 C 366.539 64.319 366.739 63.819 366.939 63.219 C 367.139 62.619 367.139 61.719 367.139 60.619 C 367.139 59.519 367.039 58.619 366.939 58.019 C 366.739 57.419 366.539 56.919 366.239 56.519 C 365.939 56.119 365.539 55.919 365.039 55.819 C 364.739 55.719 364.039 55.719 363.039 55.719 L 361.839 55.719 L 361.839 55.619 Z" style="fill: rgb(0, 0, 0);"/>
    <path class="st0" d="M 371.839 68.119 L 371.839 53.119 L 380.939 53.119 L 380.939 55.619 L 374.239 55.619 L 374.239 58.919 L 380.439 58.919 L 380.439 61.519 L 374.239 61.519 L 374.239 65.619 L 381.139 65.619 L 381.139 68.119 L 371.839 68.119 Z" style="fill: rgb(0, 0, 0);"/>
    <path class="st0" d="M 400.952 67.582 L 398.252 67.582 L 397.152 64.182 L 392.252 64.182 L 391.252 67.582 L 388.652 67.582 L 393.452 52.582 L 396.052 52.582 L 400.952 67.582 Z M 396.452 61.682 L 394.752 56.082 L 393.052 61.682 L 396.452 61.682 Z" style="fill: rgb(0, 0, 0);"/>
    <path class="st0" d="M 408.052 62.082 L 408.052 59.582 L 413.452 59.582 L 413.452 65.582 C 412.952 66.182 412.152 66.782 411.152 67.182 C 410.152 67.582 409.152 67.882 408.152 67.882 C 406.952 67.882 405.852 67.582 404.952 66.982 C 404.052 66.382 403.252 65.482 402.752 64.282 C 402.252 63.082 401.952 61.682 401.952 60.082 C 401.952 58.382 402.252 56.982 402.752 55.882 C 403.252 54.682 404.052 53.782 404.852 53.282 C 405.652 52.782 406.752 52.382 408.052 52.382 C 409.552 52.382 410.652 52.782 411.552 53.482 C 412.452 54.182 413.052 55.282 413.252 56.782 L 410.752 57.382 C 410.552 56.582 410.252 55.982 409.752 55.582 C 409.252 55.182 408.652 54.982 407.952 54.982 C 406.852 54.982 406.052 55.382 405.352 56.182 C 404.652 56.982 404.352 58.282 404.352 59.982 C 404.352 61.782 404.752 63.182 405.452 64.082 C 406.052 64.882 406.852 65.282 407.952 65.282 C 408.452 65.282 408.952 65.182 409.452 64.982 C 409.952 64.782 410.452 64.482 410.852 64.082 L 410.852 62.182 L 408.052 62.182 L 408.052 62.082 Z" style="fill: rgb(0, 0, 0);"/>
    <path class="st0" d="M 415.652 52.582 L 418.152 52.582 L 418.152 60.682 C 418.152 61.982 418.152 62.782 418.252 63.182 C 418.352 63.882 418.652 64.382 419.052 64.682 C 419.452 64.982 420.052 65.182 420.652 65.182 C 421.252 65.182 421.652 65.082 422.052 64.782 C 422.452 64.482 422.652 64.182 422.752 63.682 C 422.852 63.182 422.952 62.282 422.952 60.782 L 422.952 52.482 L 425.452 52.482 L 425.452 60.382 C 425.452 62.382 425.352 63.882 425.152 64.782 C 424.952 65.682 424.452 66.382 423.652 66.982 C 422.852 67.582 421.852 67.782 420.652 67.782 C 419.352 67.782 418.352 67.582 417.652 67.082 C 416.952 66.582 416.452 65.982 416.052 65.182 C 415.752 64.382 415.552 62.782 415.552 60.582 L 415.552 52.582 L 415.652 52.582 Z" style="fill: rgb(0, 0, 0);"/>
    <path class="st0" d="M 439.252 67.582 L 436.552 67.582 L 435.452 64.182 L 430.552 64.182 L 429.552 67.582 L 426.952 67.582 L 431.752 52.582 L 434.352 52.582 L 439.252 67.582 Z M 434.652 61.682 L 432.952 56.082 L 431.252 61.682 L 434.652 61.682 Z" style="fill: rgb(0, 0, 0);"/>
    <path class="st0" d="M 41.348 93.331 L 41.348 78.331 L 45.348 78.331 C 46.848 78.331 47.848 78.431 48.248 78.531 C 48.948 78.731 49.548 79.231 50.048 80.031 C 50.548 80.831 50.748 81.731 50.748 82.931 C 50.748 84.031 50.548 84.931 50.148 85.631 C 49.748 86.331 49.248 86.931 48.648 87.131 C 48.048 87.431 46.948 87.531 45.448 87.531 L 43.848 87.531 L 43.848 93.231 L 41.348 93.231 L 41.348 93.331 Z M 43.748 80.831 L 43.748 85.131 L 45.148 85.131 C 46.048 85.131 46.748 85.031 47.048 84.931 C 47.348 84.831 47.648 84.531 47.848 84.231 C 48.048 83.931 48.148 83.431 48.148 83.031 C 48.148 82.531 48.048 82.131 47.848 81.731 C 47.648 81.431 47.348 81.131 47.048 81.031 C 46.748 80.931 46.048 80.831 45.048 80.831 L 43.748 80.831 Z" style="fill: rgb(0, 0, 0);"/>
    <path class="st0" d="M 52.248 85.931 C 52.248 84.131 52.548 82.631 53.048 81.531 C 53.548 80.331 54.248 79.531 55.148 78.931 C 56.048 78.331 57.048 78.031 58.248 78.031 C 60.048 78.031 61.448 78.731 62.548 80.031 C 63.648 81.331 64.248 83.331 64.248 85.831 C 64.248 88.331 63.648 90.331 62.448 91.731 C 61.448 93.031 60.048 93.631 58.248 93.631 C 56.448 93.631 55.048 93.031 54.048 91.731 C 52.848 90.331 52.248 88.431 52.248 85.931 Z M 54.848 85.831 C 54.848 87.531 55.148 88.831 55.848 89.731 C 56.548 90.631 57.348 91.031 58.248 91.031 C 59.248 91.031 60.048 90.631 60.648 89.731 C 61.248 88.831 61.648 87.531 61.648 85.731 C 61.648 84.031 61.348 82.731 60.748 81.831 C 60.148 80.931 59.348 80.531 58.248 80.531 C 57.248 80.531 56.448 80.931 55.748 81.831 C 55.048 82.731 54.848 84.031 54.848 85.831 Z" style="fill: rgb(0, 0, 0);"/>
    <path class="st0" d="M 68.948 93.331 L 68.948 80.831 L 65.248 80.831 L 65.248 78.331 L 75.048 78.331 L 75.048 80.831 L 71.348 80.831 L 71.348 93.331 L 68.948 93.331 Z" style="fill: rgb(0, 0, 0);"/>
    <path class="st0" d="M 86.548 93.331 L 83.848 93.331 L 82.748 89.931 L 77.848 89.931 L 76.848 93.331 L 74.248 93.331 L 79.048 78.331 L 81.648 78.331 L 86.548 93.331 Z M 81.948 87.431 L 80.248 81.831 L 78.548 87.431 L 81.948 87.431 Z" style="fill: rgb(0, 0, 0);"/>
    <path class="st0" d="M 87.848 78.331 L 92.748 78.331 C 94.048 78.331 95.048 78.431 95.548 78.731 C 96.048 79.031 96.548 79.431 96.948 80.031 C 97.348 80.631 97.548 81.331 97.548 82.131 C 97.548 82.831 97.348 83.531 97.048 84.131 C 96.748 84.731 96.348 85.131 95.748 85.431 C 96.448 85.731 97.048 86.131 97.448 86.731 C 97.848 87.331 98.048 88.131 98.048 89.031 C 98.048 90.131 97.748 91.031 97.248 91.831 C 96.748 92.631 96.148 93.031 95.348 93.231 C 94.848 93.331 93.648 93.431 91.848 93.431 L 87.648 93.431 L 87.648 78.331 L 87.848 78.331 Z M 90.348 80.831 L 90.348 84.331 L 91.948 84.331 C 92.948 84.331 93.548 84.331 93.748 84.231 C 94.148 84.131 94.548 84.031 94.748 83.731 C 94.948 83.431 95.148 83.031 95.148 82.531 C 95.148 82.131 95.048 81.731 94.848 81.431 C 94.648 81.131 94.448 81.031 94.148 80.931 C 93.848 80.831 93.048 80.831 91.748 80.831 L 90.348 80.831 Z M 90.348 86.831 L 90.348 90.831 L 92.648 90.831 C 93.648 90.831 94.348 90.731 94.648 90.631 C 94.948 90.531 95.148 90.331 95.348 90.031 C 95.548 89.731 95.648 89.331 95.648 88.831 C 95.648 88.331 95.548 87.931 95.348 87.631 C 95.148 87.331 94.848 87.131 94.548 86.931 C 94.248 86.831 93.448 86.731 92.448 86.731 L 90.348 86.731 L 90.348 86.831 Z" style="fill: rgb(0, 0, 0);"/>
    <path class="st0" d="M 100.348 93.331 L 100.348 78.431 L 102.848 78.431 L 102.848 90.831 L 109.048 90.831 L 109.048 93.331 L 100.348 93.331 Z" style="fill: rgb(0, 0, 0);"/>
    <path class="st0" d="M 110.848 93.331 L 110.848 78.331 L 119.948 78.331 L 119.948 80.831 L 113.248 80.831 L 113.248 84.131 L 119.448 84.131 L 119.448 86.731 L 113.248 86.731 L 113.248 90.831 L 120.148 90.831 L 120.148 93.331 L 110.848 93.331 Z" style="fill: rgb(0, 0, 0);"/>
    <path class="st0" d="M 130.048 93.331 L 130.048 87.031 L 125.548 78.331 L 128.448 78.331 L 131.348 84.231 L 134.248 78.331 L 137.148 78.331 L 132.648 87.031 L 132.648 93.331 L 130.048 93.331 Z" style="fill: rgb(0, 0, 0);"/>
    <path class="st0" d="M 153.248 93.331 L 150.548 93.331 L 149.448 89.931 L 144.548 89.931 L 143.548 93.331 L 140.948 93.331 L 145.748 78.331 L 148.348 78.331 L 153.248 93.331 Z M 148.648 87.431 L 146.948 81.831 L 145.248 87.431 L 148.648 87.431 Z" style="fill: rgb(0, 0, 0);"/>
    <path class="st0" d="M 154.648 93.331 L 154.648 78.431 L 157.148 78.431 L 157.148 90.831 L 163.348 90.831 L 163.348 93.331 L 154.648 93.331 Z" style="fill: rgb(0, 0, 0);"/>
    <path class="st0" d="M 172.948 87.831 L 175.348 88.731 C 174.948 90.431 174.348 91.631 173.448 92.431 C 172.548 93.231 171.448 93.631 170.248 93.631 C 168.648 93.631 167.348 93.031 166.348 91.731 C 165.248 90.331 164.648 88.331 164.648 85.931 C 164.648 83.331 165.248 81.331 166.348 79.931 C 167.348 78.631 168.748 78.031 170.448 78.031 C 171.848 78.031 172.948 78.531 173.948 79.431 C 174.648 80.131 175.048 81.131 175.448 82.431 L 172.948 83.131 C 172.748 82.331 172.448 81.731 172.048 81.231 C 171.648 80.731 171.048 80.531 170.348 80.531 C 169.448 80.531 168.648 80.931 168.148 81.731 C 167.648 82.531 167.248 83.831 167.248 85.631 C 167.248 87.531 167.548 88.831 168.048 89.631 C 168.548 90.431 169.348 90.831 170.248 90.831 C 170.948 90.831 171.448 90.531 171.948 90.031 C 172.448 89.731 172.748 88.931 172.948 87.831 Z" style="fill: rgb(0, 0, 0);"/>
    <path class="st0" d="M 188.648 93.331 L 185.948 93.331 L 184.848 89.931 L 179.948 89.931 L 178.948 93.331 L 176.348 93.331 L 181.148 78.331 L 183.748 78.331 L 188.648 93.331 Z M 184.048 87.431 L 182.348 81.831 L 180.648 87.431 L 184.048 87.431 Z" style="fill: rgb(0, 0, 0);"/>
    <path class="st0" d="M 189.948 93.331 L 189.948 78.331 L 192.348 78.331 L 197.348 88.331 L 197.348 78.331 L 199.648 78.331 L 199.648 93.331 L 197.148 93.331 L 192.148 83.531 L 192.148 93.331 L 189.948 93.331 Z" style="fill: rgb(0, 0, 0);"/>
    <path class="st0" d="M 205.148 93.331 L 205.148 80.831 L 201.448 80.831 L 201.448 78.331 L 211.248 78.331 L 211.248 80.831 L 207.648 80.831 L 207.648 93.331 L 205.148 93.331 Z" style="fill: rgb(0, 0, 0);"/>
    <path class="st0" d="M 222.748 93.331 L 220.048 93.331 L 218.948 89.931 L 214.048 89.931 L 213.048 93.331 L 210.448 93.331 L 215.248 78.331 L 217.848 78.331 L 222.748 93.331 Z M 218.148 87.431 L 216.448 81.831 L 214.748 87.431 L 218.148 87.431 Z" style="fill: rgb(0, 0, 0);"/>
    <path class="st0" d="M 224.048 93.331 L 224.048 78.331 L 229.248 78.331 C 230.548 78.331 231.548 78.431 232.148 78.731 C 232.748 79.031 233.148 79.431 233.548 80.131 C 233.948 80.831 234.148 81.631 234.148 82.531 C 234.148 83.731 233.848 84.631 233.348 85.331 C 232.748 86.031 231.948 86.531 230.948 86.731 C 231.448 87.131 231.948 87.531 232.248 88.031 C 232.548 88.531 233.048 89.331 233.648 90.431 L 235.148 93.331 L 232.148 93.331 L 230.348 90.031 C 229.748 88.831 229.248 88.131 229.048 87.831 C 228.848 87.531 228.548 87.331 228.348 87.231 C 228.048 87.131 227.648 87.031 227.148 87.031 L 226.648 87.031 L 226.648 93.331 L 224.048 93.331 Z M 226.548 84.731 L 228.348 84.731 C 229.448 84.731 230.148 84.731 230.548 84.631 C 230.848 84.531 231.148 84.331 231.248 84.031 C 231.348 83.731 231.548 83.331 231.548 82.831 C 231.548 82.331 231.448 81.931 231.248 81.631 C 231.048 81.331 230.748 81.131 230.448 81.031 C 230.248 80.931 229.548 80.931 228.448 80.931 L 226.548 80.931 L 226.548 84.731 Z" style="fill: rgb(0, 0, 0);"/>
    <path class="st0" d="M 236.448 93.331 L 236.448 78.331 L 238.948 78.331 L 238.948 93.331 L 236.448 93.331 Z" style="fill: rgb(0, 0, 0);"/>
    <path class="st0" d="M 241.348 93.331 L 241.348 78.431 L 243.848 78.431 L 243.848 90.831 L 250.048 90.831 L 250.048 93.331 L 241.348 93.331 Z" style="fill: rgb(0, 0, 0);"/>
    <path class="st0" d="M 251.848 93.331 L 251.848 78.431 L 254.348 78.431 L 254.348 90.831 L 260.548 90.831 L 260.548 93.331 L 251.848 93.331 Z" style="fill: rgb(0, 0, 0);"/>
    <path class="st0" d="M 273.448 93.331 L 270.748 93.331 L 269.648 89.931 L 264.748 89.931 L 263.748 93.331 L 261.148 93.331 L 265.948 78.331 L 268.548 78.331 L 273.448 93.331 Z M 268.848 87.431 L 267.148 81.831 L 265.448 87.431 L 268.848 87.431 Z" style="fill: rgb(0, 0, 0);"/>
    <path class="st0" d="M 274.748 78.331 L 279.248 78.331 C 280.348 78.331 281.248 78.431 281.848 78.731 C 282.448 79.031 282.948 79.431 283.448 80.031 C 283.948 80.631 284.348 81.431 284.648 82.431 C 284.948 83.431 285.048 84.631 285.048 86.031 C 285.048 87.331 284.948 88.431 284.648 89.431 C 284.348 90.431 283.948 91.131 283.548 91.731 C 283.048 92.331 282.548 92.731 281.948 93.031 C 281.348 93.331 280.448 93.431 279.448 93.431 L 274.748 93.431 L 274.748 78.331 Z M 277.248 80.831 L 277.248 90.731 L 279.148 90.731 C 279.948 90.731 280.548 90.631 280.848 90.531 C 281.248 90.331 281.548 90.131 281.748 89.831 C 281.948 89.531 282.148 89.031 282.348 88.431 C 282.548 87.831 282.548 86.931 282.548 85.831 C 282.548 84.731 282.448 83.831 282.348 83.231 C 282.148 82.631 281.948 82.131 281.648 81.731 C 281.348 81.331 280.948 81.131 280.448 81.031 C 280.148 80.931 279.448 80.931 278.448 80.931 L 277.248 80.931 L 277.248 80.831 Z" style="fill: rgb(0, 0, 0);"/>
    <path class="st0" d="M 286.648 85.931 C 286.648 84.131 286.948 82.631 287.448 81.531 C 287.948 80.331 288.648 79.531 289.548 78.931 C 290.448 78.331 291.448 78.031 292.648 78.031 C 294.448 78.031 295.848 78.731 296.948 80.031 C 298.048 81.331 298.648 83.331 298.648 85.831 C 298.648 88.331 298.048 90.331 296.848 91.731 C 295.848 93.031 294.448 93.631 292.648 93.631 C 290.848 93.631 289.448 93.031 288.448 91.731 C 287.248 90.331 286.648 88.431 286.648 85.931 Z M 289.248 85.831 C 289.248 87.531 289.548 88.831 290.248 89.731 C 290.948 90.631 291.748 91.031 292.648 91.031 C 293.648 91.031 294.448 90.631 295.048 89.731 C 295.648 88.831 296.048 87.531 296.048 85.731 C 296.048 84.031 295.748 82.731 295.148 81.831 C 294.548 81.031 293.748 80.531 292.648 80.531 C 291.648 80.531 290.848 80.931 290.148 81.831 C 289.448 82.731 289.248 84.031 289.248 85.831 Z" style="fill: rgb(0, 0, 0);"/>
    <path class="st0" d="M 305.348 78.331 L 309.848 78.331 C 310.948 78.331 311.848 78.431 312.448 78.731 C 313.048 79.031 313.548 79.431 314.048 80.031 C 314.548 80.631 314.948 81.431 315.248 82.431 C 315.548 83.431 315.648 84.631 315.648 86.031 C 315.648 87.331 315.548 88.431 315.248 89.431 C 314.948 90.431 314.548 91.131 314.148 91.731 C 313.648 92.331 313.148 92.731 312.548 93.031 C 311.948 93.331 311.048 93.431 310.048 93.431 L 305.348 93.431 L 305.348 78.331 Z M 307.848 80.831 L 307.848 90.731 L 309.748 90.731 C 310.548 90.731 311.148 90.631 311.448 90.531 C 311.848 90.331 312.148 90.131 312.348 89.831 C 312.548 89.531 312.748 89.031 312.948 88.431 C 313.148 87.831 313.148 86.931 313.148 85.831 C 313.148 84.731 313.048 83.831 312.948 83.231 C 312.748 82.631 312.548 82.131 312.248 81.731 C 311.948 81.331 311.548 81.131 311.048 81.031 C 310.748 80.931 310.048 80.931 309.048 80.931 L 307.848 80.931 L 307.848 80.831 Z" style="fill: rgb(0, 0, 0);"/>
    <path class="st0" d="M 317.848 93.331 L 317.848 78.331 L 326.948 78.331 L 326.948 80.831 L 320.248 80.831 L 320.248 84.131 L 326.448 84.131 L 326.448 86.731 L 320.248 86.731 L 320.248 90.831 L 327.148 90.831 L 327.148 93.331 L 317.848 93.331 Z" style="fill: rgb(0, 0, 0);"/>
    <path class="st0" d="M 334.048 93.331 L 334.048 78.331 L 338.048 78.331 C 339.548 78.331 340.548 78.431 340.948 78.531 C 341.648 78.731 342.248 79.231 342.748 80.031 C 343.248 80.831 343.448 81.731 343.448 82.931 C 343.448 84.031 343.248 84.931 342.848 85.631 C 342.448 86.331 341.948 86.931 341.348 87.131 C 340.748 87.431 339.648 87.531 338.148 87.531 L 336.548 87.531 L 336.548 93.231 L 334.048 93.231 L 334.048 93.331 Z M 336.548 80.831 L 336.548 85.131 L 337.948 85.131 C 338.848 85.131 339.548 85.031 339.848 84.931 C 340.148 84.831 340.448 84.531 340.648 84.231 C 340.848 83.931 340.948 83.431 340.948 83.031 C 340.948 82.531 340.848 82.131 340.648 81.731 C 340.448 81.431 340.148 81.131 339.848 81.031 C 339.548 80.931 338.848 80.831 337.848 80.831 L 336.548 80.831 Z" style="fill: rgb(0, 0, 0);"/>
    <path class="st0" d="M 345.548 78.331 L 348.048 78.331 L 348.048 86.431 C 348.048 87.731 348.048 88.531 348.148 88.931 C 348.248 89.631 348.548 90.131 348.948 90.431 C 349.348 90.831 349.948 90.931 350.548 90.931 C 351.148 90.931 351.548 90.831 351.948 90.531 C 352.348 90.231 352.548 89.931 352.648 89.431 C 352.748 88.931 352.848 88.031 352.848 86.531 L 352.848 78.231 L 355.348 78.231 L 355.348 86.131 C 355.348 88.131 355.248 89.631 355.048 90.531 C 354.848 91.431 354.348 92.131 353.548 92.731 C 352.748 93.331 351.748 93.531 350.548 93.531 C 349.248 93.531 348.248 93.331 347.548 92.831 C 346.848 92.331 346.348 91.731 345.948 90.931 C 345.648 90.131 345.448 88.531 345.448 86.331 L 345.448 78.331 L 345.548 78.331 Z" style="fill: rgb(0, 0, 0);"/>
    <path class="st0" d="M 357.948 93.331 L 357.948 78.331 L 367.048 78.331 L 367.048 80.831 L 360.348 80.831 L 360.348 84.131 L 366.548 84.131 L 366.548 86.731 L 360.348 86.731 L 360.348 90.831 L 367.248 90.831 L 367.248 93.331 L 357.948 93.331 Z" style="fill: rgb(0, 0, 0);"/>
    <path class="st0" d="M 369.448 78.331 L 374.348 78.331 C 375.648 78.331 376.648 78.431 377.148 78.731 C 377.648 78.931 378.148 79.431 378.548 80.031 C 378.948 80.631 379.148 81.331 379.148 82.131 C 379.148 82.831 378.948 83.531 378.648 84.131 C 378.348 84.731 377.948 85.131 377.348 85.431 C 378.048 85.731 378.648 86.131 379.048 86.731 C 379.448 87.331 379.648 88.131 379.648 89.031 C 379.648 90.131 379.348 91.031 378.848 91.831 C 378.348 92.631 377.748 93.031 376.948 93.231 C 376.448 93.331 375.248 93.431 373.448 93.431 L 369.248 93.431 L 369.248 78.331 L 369.448 78.331 Z M 371.948 80.831 L 371.948 84.331 L 373.548 84.331 C 374.548 84.331 375.148 84.331 375.348 84.231 C 375.748 84.131 376.148 84.031 376.348 83.731 C 376.548 83.431 376.748 83.031 376.748 82.531 C 376.748 82.131 376.648 81.731 376.448 81.431 C 376.248 81.131 376.048 81.031 375.748 80.931 C 375.448 80.831 374.648 80.831 373.348 80.831 L 371.948 80.831 Z M 371.948 86.831 L 371.948 90.831 L 374.248 90.831 C 375.248 90.831 375.948 90.731 376.248 90.631 C 376.548 90.531 376.748 90.331 376.948 90.031 C 377.148 89.731 377.248 89.331 377.248 88.831 C 377.248 88.331 377.148 87.931 376.948 87.631 C 376.748 87.331 376.448 87.131 376.148 86.931 C 375.848 86.831 375.048 86.731 374.048 86.731 L 371.948 86.731 L 371.948 86.831 Z" style="fill: rgb(0, 0, 0);"/>
    <path class="st0" d="M 381.948 93.331 L 381.948 78.431 L 384.448 78.431 L 384.448 90.831 L 390.648 90.831 L 390.648 93.331 L 381.948 93.331 Z" style="fill: rgb(0, 0, 0);"/>
    <path class="st0" d="M 403.548 93.331 L 400.848 93.331 L 399.748 89.931 L 394.848 89.931 L 393.848 93.331 L 391.248 93.331 L 396.048 78.331 L 398.648 78.331 L 403.548 93.331 Z M 398.948 87.431 L 397.248 81.831 L 395.548 87.431 L 398.948 87.431 Z" style="fill: rgb(0, 0, 0);"/>
  </g>
</svg>